G04 #@! TF.GenerationSoftware,KiCad,Pcbnew,7.0.8-7.0.8~ubuntu22.04.1*
G04 #@! TF.CreationDate,2023-10-27T20:54:45-04:00*
G04 #@! TF.ProjectId,osw,6f73772e-6b69-4636-9164-5f7063625858,4.0*
G04 #@! TF.SameCoordinates,Original*
G04 #@! TF.FileFunction,Legend,Top*
G04 #@! TF.FilePolarity,Positive*
%FSLAX46Y46*%
G04 Gerber Fmt 4.6, Leading zero omitted, Abs format (unit mm)*
G04 Created by KiCad (PCBNEW 7.0.8-7.0.8~ubuntu22.04.1) date 2023-10-27 20:54:45*
%MOMM*%
%LPD*%
G01*
G04 APERTURE LIST*
%ADD10C,0.120000*%
%ADD11C,0.080000*%
%ADD12C,0.100000*%
%ADD13C,0.150000*%
%ADD14C,0.127000*%
%ADD15C,0.300000*%
%ADD16C,0.125000*%
%ADD17C,0.200000*%
%ADD18C,0.152400*%
%ADD19C,0.270000*%
G04 APERTURE END LIST*
D10*
X176525069Y-97221428D02*
X176286974Y-97388094D01*
X176525069Y-97507142D02*
X176025069Y-97507142D01*
X176025069Y-97507142D02*
X176025069Y-97316666D01*
X176025069Y-97316666D02*
X176048879Y-97269047D01*
X176048879Y-97269047D02*
X176072688Y-97245237D01*
X176072688Y-97245237D02*
X176120307Y-97221428D01*
X176120307Y-97221428D02*
X176191736Y-97221428D01*
X176191736Y-97221428D02*
X176239355Y-97245237D01*
X176239355Y-97245237D02*
X176263164Y-97269047D01*
X176263164Y-97269047D02*
X176286974Y-97316666D01*
X176286974Y-97316666D02*
X176286974Y-97507142D01*
X176525069Y-96745237D02*
X176525069Y-97030951D01*
X176525069Y-96888094D02*
X176025069Y-96888094D01*
X176025069Y-96888094D02*
X176096498Y-96935713D01*
X176096498Y-96935713D02*
X176144117Y-96983332D01*
X176144117Y-96983332D02*
X176167926Y-97030951D01*
X176025069Y-96435714D02*
X176025069Y-96388095D01*
X176025069Y-96388095D02*
X176048879Y-96340476D01*
X176048879Y-96340476D02*
X176072688Y-96316666D01*
X176072688Y-96316666D02*
X176120307Y-96292857D01*
X176120307Y-96292857D02*
X176215545Y-96269047D01*
X176215545Y-96269047D02*
X176334593Y-96269047D01*
X176334593Y-96269047D02*
X176429831Y-96292857D01*
X176429831Y-96292857D02*
X176477450Y-96316666D01*
X176477450Y-96316666D02*
X176501260Y-96340476D01*
X176501260Y-96340476D02*
X176525069Y-96388095D01*
X176525069Y-96388095D02*
X176525069Y-96435714D01*
X176525069Y-96435714D02*
X176501260Y-96483333D01*
X176501260Y-96483333D02*
X176477450Y-96507142D01*
X176477450Y-96507142D02*
X176429831Y-96530952D01*
X176429831Y-96530952D02*
X176334593Y-96554761D01*
X176334593Y-96554761D02*
X176215545Y-96554761D01*
X176215545Y-96554761D02*
X176120307Y-96530952D01*
X176120307Y-96530952D02*
X176072688Y-96507142D01*
X176072688Y-96507142D02*
X176048879Y-96483333D01*
X176048879Y-96483333D02*
X176025069Y-96435714D01*
X162916666Y-106325069D02*
X162750000Y-106086974D01*
X162630952Y-106325069D02*
X162630952Y-105825069D01*
X162630952Y-105825069D02*
X162821428Y-105825069D01*
X162821428Y-105825069D02*
X162869047Y-105848879D01*
X162869047Y-105848879D02*
X162892857Y-105872688D01*
X162892857Y-105872688D02*
X162916666Y-105920307D01*
X162916666Y-105920307D02*
X162916666Y-105991736D01*
X162916666Y-105991736D02*
X162892857Y-106039355D01*
X162892857Y-106039355D02*
X162869047Y-106063164D01*
X162869047Y-106063164D02*
X162821428Y-106086974D01*
X162821428Y-106086974D02*
X162630952Y-106086974D01*
X163369047Y-105825069D02*
X163130952Y-105825069D01*
X163130952Y-105825069D02*
X163107143Y-106063164D01*
X163107143Y-106063164D02*
X163130952Y-106039355D01*
X163130952Y-106039355D02*
X163178571Y-106015545D01*
X163178571Y-106015545D02*
X163297619Y-106015545D01*
X163297619Y-106015545D02*
X163345238Y-106039355D01*
X163345238Y-106039355D02*
X163369047Y-106063164D01*
X163369047Y-106063164D02*
X163392857Y-106110783D01*
X163392857Y-106110783D02*
X163392857Y-106229831D01*
X163392857Y-106229831D02*
X163369047Y-106277450D01*
X163369047Y-106277450D02*
X163345238Y-106301260D01*
X163345238Y-106301260D02*
X163297619Y-106325069D01*
X163297619Y-106325069D02*
X163178571Y-106325069D01*
X163178571Y-106325069D02*
X163130952Y-106301260D01*
X163130952Y-106301260D02*
X163107143Y-106277450D01*
X164516666Y-128695069D02*
X164350000Y-128456974D01*
X164230952Y-128695069D02*
X164230952Y-128195069D01*
X164230952Y-128195069D02*
X164421428Y-128195069D01*
X164421428Y-128195069D02*
X164469047Y-128218879D01*
X164469047Y-128218879D02*
X164492857Y-128242688D01*
X164492857Y-128242688D02*
X164516666Y-128290307D01*
X164516666Y-128290307D02*
X164516666Y-128361736D01*
X164516666Y-128361736D02*
X164492857Y-128409355D01*
X164492857Y-128409355D02*
X164469047Y-128433164D01*
X164469047Y-128433164D02*
X164421428Y-128456974D01*
X164421428Y-128456974D02*
X164230952Y-128456974D01*
X164802381Y-128409355D02*
X164754762Y-128385545D01*
X164754762Y-128385545D02*
X164730952Y-128361736D01*
X164730952Y-128361736D02*
X164707143Y-128314117D01*
X164707143Y-128314117D02*
X164707143Y-128290307D01*
X164707143Y-128290307D02*
X164730952Y-128242688D01*
X164730952Y-128242688D02*
X164754762Y-128218879D01*
X164754762Y-128218879D02*
X164802381Y-128195069D01*
X164802381Y-128195069D02*
X164897619Y-128195069D01*
X164897619Y-128195069D02*
X164945238Y-128218879D01*
X164945238Y-128218879D02*
X164969047Y-128242688D01*
X164969047Y-128242688D02*
X164992857Y-128290307D01*
X164992857Y-128290307D02*
X164992857Y-128314117D01*
X164992857Y-128314117D02*
X164969047Y-128361736D01*
X164969047Y-128361736D02*
X164945238Y-128385545D01*
X164945238Y-128385545D02*
X164897619Y-128409355D01*
X164897619Y-128409355D02*
X164802381Y-128409355D01*
X164802381Y-128409355D02*
X164754762Y-128433164D01*
X164754762Y-128433164D02*
X164730952Y-128456974D01*
X164730952Y-128456974D02*
X164707143Y-128504593D01*
X164707143Y-128504593D02*
X164707143Y-128599831D01*
X164707143Y-128599831D02*
X164730952Y-128647450D01*
X164730952Y-128647450D02*
X164754762Y-128671260D01*
X164754762Y-128671260D02*
X164802381Y-128695069D01*
X164802381Y-128695069D02*
X164897619Y-128695069D01*
X164897619Y-128695069D02*
X164945238Y-128671260D01*
X164945238Y-128671260D02*
X164969047Y-128647450D01*
X164969047Y-128647450D02*
X164992857Y-128599831D01*
X164992857Y-128599831D02*
X164992857Y-128504593D01*
X164992857Y-128504593D02*
X164969047Y-128456974D01*
X164969047Y-128456974D02*
X164945238Y-128433164D01*
X164945238Y-128433164D02*
X164897619Y-128409355D01*
X174677450Y-93821428D02*
X174701260Y-93845237D01*
X174701260Y-93845237D02*
X174725069Y-93916666D01*
X174725069Y-93916666D02*
X174725069Y-93964285D01*
X174725069Y-93964285D02*
X174701260Y-94035713D01*
X174701260Y-94035713D02*
X174653640Y-94083332D01*
X174653640Y-94083332D02*
X174606021Y-94107142D01*
X174606021Y-94107142D02*
X174510783Y-94130951D01*
X174510783Y-94130951D02*
X174439355Y-94130951D01*
X174439355Y-94130951D02*
X174344117Y-94107142D01*
X174344117Y-94107142D02*
X174296498Y-94083332D01*
X174296498Y-94083332D02*
X174248879Y-94035713D01*
X174248879Y-94035713D02*
X174225069Y-93964285D01*
X174225069Y-93964285D02*
X174225069Y-93916666D01*
X174225069Y-93916666D02*
X174248879Y-93845237D01*
X174248879Y-93845237D02*
X174272688Y-93821428D01*
X174725069Y-93345237D02*
X174725069Y-93630951D01*
X174725069Y-93488094D02*
X174225069Y-93488094D01*
X174225069Y-93488094D02*
X174296498Y-93535713D01*
X174296498Y-93535713D02*
X174344117Y-93583332D01*
X174344117Y-93583332D02*
X174367926Y-93630951D01*
X174225069Y-92892857D02*
X174225069Y-93130952D01*
X174225069Y-93130952D02*
X174463164Y-93154761D01*
X174463164Y-93154761D02*
X174439355Y-93130952D01*
X174439355Y-93130952D02*
X174415545Y-93083333D01*
X174415545Y-93083333D02*
X174415545Y-92964285D01*
X174415545Y-92964285D02*
X174439355Y-92916666D01*
X174439355Y-92916666D02*
X174463164Y-92892857D01*
X174463164Y-92892857D02*
X174510783Y-92869047D01*
X174510783Y-92869047D02*
X174629831Y-92869047D01*
X174629831Y-92869047D02*
X174677450Y-92892857D01*
X174677450Y-92892857D02*
X174701260Y-92916666D01*
X174701260Y-92916666D02*
X174725069Y-92964285D01*
X174725069Y-92964285D02*
X174725069Y-93083333D01*
X174725069Y-93083333D02*
X174701260Y-93130952D01*
X174701260Y-93130952D02*
X174677450Y-93154761D01*
X162797922Y-108751644D02*
X162797922Y-109156406D01*
X162797922Y-109156406D02*
X162821732Y-109204025D01*
X162821732Y-109204025D02*
X162845541Y-109227835D01*
X162845541Y-109227835D02*
X162893160Y-109251644D01*
X162893160Y-109251644D02*
X162988398Y-109251644D01*
X162988398Y-109251644D02*
X163036017Y-109227835D01*
X163036017Y-109227835D02*
X163059827Y-109204025D01*
X163059827Y-109204025D02*
X163083636Y-109156406D01*
X163083636Y-109156406D02*
X163083636Y-108751644D01*
X163583637Y-109251644D02*
X163297923Y-109251644D01*
X163440780Y-109251644D02*
X163440780Y-108751644D01*
X163440780Y-108751644D02*
X163393161Y-108823073D01*
X163393161Y-108823073D02*
X163345542Y-108870692D01*
X163345542Y-108870692D02*
X163297923Y-108894501D01*
D11*
X171804762Y-124780887D02*
X171804762Y-124380887D01*
X171804762Y-124380887D02*
X171900000Y-124380887D01*
X171900000Y-124380887D02*
X171957143Y-124399935D01*
X171957143Y-124399935D02*
X171995238Y-124438030D01*
X171995238Y-124438030D02*
X172014285Y-124476125D01*
X172014285Y-124476125D02*
X172033333Y-124552316D01*
X172033333Y-124552316D02*
X172033333Y-124609459D01*
X172033333Y-124609459D02*
X172014285Y-124685649D01*
X172014285Y-124685649D02*
X171995238Y-124723744D01*
X171995238Y-124723744D02*
X171957143Y-124761840D01*
X171957143Y-124761840D02*
X171900000Y-124780887D01*
X171900000Y-124780887D02*
X171804762Y-124780887D01*
X172414285Y-124780887D02*
X172185714Y-124780887D01*
X172300000Y-124780887D02*
X172300000Y-124380887D01*
X172300000Y-124380887D02*
X172261904Y-124438030D01*
X172261904Y-124438030D02*
X172223809Y-124476125D01*
X172223809Y-124476125D02*
X172185714Y-124495173D01*
D12*
X172764286Y-124426109D02*
X172764286Y-123926109D01*
X173002381Y-124092776D02*
X173002381Y-124426109D01*
X173002381Y-124140395D02*
X173026191Y-124116585D01*
X173026191Y-124116585D02*
X173073810Y-124092776D01*
X173073810Y-124092776D02*
X173145238Y-124092776D01*
X173145238Y-124092776D02*
X173192857Y-124116585D01*
X173192857Y-124116585D02*
X173216667Y-124164204D01*
X173216667Y-124164204D02*
X173216667Y-124426109D01*
X173669048Y-124426109D02*
X173669048Y-123926109D01*
X173669048Y-124402300D02*
X173621429Y-124426109D01*
X173621429Y-124426109D02*
X173526191Y-124426109D01*
X173526191Y-124426109D02*
X173478572Y-124402300D01*
X173478572Y-124402300D02*
X173454762Y-124378490D01*
X173454762Y-124378490D02*
X173430953Y-124330871D01*
X173430953Y-124330871D02*
X173430953Y-124188014D01*
X173430953Y-124188014D02*
X173454762Y-124140395D01*
X173454762Y-124140395D02*
X173478572Y-124116585D01*
X173478572Y-124116585D02*
X173526191Y-124092776D01*
X173526191Y-124092776D02*
X173621429Y-124092776D01*
X173621429Y-124092776D02*
X173669048Y-124116585D01*
X173907143Y-124426109D02*
X173907143Y-124092776D01*
X173907143Y-123926109D02*
X173883334Y-123949919D01*
X173883334Y-123949919D02*
X173907143Y-123973728D01*
X173907143Y-123973728D02*
X173930953Y-123949919D01*
X173930953Y-123949919D02*
X173907143Y-123926109D01*
X173907143Y-123926109D02*
X173907143Y-123973728D01*
X174359524Y-124402300D02*
X174311905Y-124426109D01*
X174311905Y-124426109D02*
X174216667Y-124426109D01*
X174216667Y-124426109D02*
X174169048Y-124402300D01*
X174169048Y-124402300D02*
X174145238Y-124378490D01*
X174145238Y-124378490D02*
X174121429Y-124330871D01*
X174121429Y-124330871D02*
X174121429Y-124188014D01*
X174121429Y-124188014D02*
X174145238Y-124140395D01*
X174145238Y-124140395D02*
X174169048Y-124116585D01*
X174169048Y-124116585D02*
X174216667Y-124092776D01*
X174216667Y-124092776D02*
X174311905Y-124092776D01*
X174311905Y-124092776D02*
X174359524Y-124116585D01*
X174788095Y-124426109D02*
X174788095Y-124164204D01*
X174788095Y-124164204D02*
X174764285Y-124116585D01*
X174764285Y-124116585D02*
X174716666Y-124092776D01*
X174716666Y-124092776D02*
X174621428Y-124092776D01*
X174621428Y-124092776D02*
X174573809Y-124116585D01*
X174788095Y-124402300D02*
X174740476Y-124426109D01*
X174740476Y-124426109D02*
X174621428Y-124426109D01*
X174621428Y-124426109D02*
X174573809Y-124402300D01*
X174573809Y-124402300D02*
X174550000Y-124354680D01*
X174550000Y-124354680D02*
X174550000Y-124307061D01*
X174550000Y-124307061D02*
X174573809Y-124259442D01*
X174573809Y-124259442D02*
X174621428Y-124235633D01*
X174621428Y-124235633D02*
X174740476Y-124235633D01*
X174740476Y-124235633D02*
X174788095Y-124211823D01*
X174954762Y-124092776D02*
X175145238Y-124092776D01*
X175026190Y-123926109D02*
X175026190Y-124354680D01*
X175026190Y-124354680D02*
X175050000Y-124402300D01*
X175050000Y-124402300D02*
X175097619Y-124426109D01*
X175097619Y-124426109D02*
X175145238Y-124426109D01*
X175383333Y-124426109D02*
X175335714Y-124402300D01*
X175335714Y-124402300D02*
X175311904Y-124378490D01*
X175311904Y-124378490D02*
X175288095Y-124330871D01*
X175288095Y-124330871D02*
X175288095Y-124188014D01*
X175288095Y-124188014D02*
X175311904Y-124140395D01*
X175311904Y-124140395D02*
X175335714Y-124116585D01*
X175335714Y-124116585D02*
X175383333Y-124092776D01*
X175383333Y-124092776D02*
X175454761Y-124092776D01*
X175454761Y-124092776D02*
X175502380Y-124116585D01*
X175502380Y-124116585D02*
X175526190Y-124140395D01*
X175526190Y-124140395D02*
X175549999Y-124188014D01*
X175549999Y-124188014D02*
X175549999Y-124330871D01*
X175549999Y-124330871D02*
X175526190Y-124378490D01*
X175526190Y-124378490D02*
X175502380Y-124402300D01*
X175502380Y-124402300D02*
X175454761Y-124426109D01*
X175454761Y-124426109D02*
X175383333Y-124426109D01*
X175764285Y-124426109D02*
X175764285Y-124092776D01*
X175764285Y-124188014D02*
X175788095Y-124140395D01*
X175788095Y-124140395D02*
X175811904Y-124116585D01*
X175811904Y-124116585D02*
X175859523Y-124092776D01*
X175859523Y-124092776D02*
X175907142Y-124092776D01*
D10*
X175255069Y-122766666D02*
X175612212Y-122766666D01*
X175612212Y-122766666D02*
X175683640Y-122790475D01*
X175683640Y-122790475D02*
X175731260Y-122838094D01*
X175731260Y-122838094D02*
X175755069Y-122909523D01*
X175755069Y-122909523D02*
X175755069Y-122957142D01*
X175755069Y-122266666D02*
X175755069Y-122552380D01*
X175755069Y-122409523D02*
X175255069Y-122409523D01*
X175255069Y-122409523D02*
X175326498Y-122457142D01*
X175326498Y-122457142D02*
X175374117Y-122504761D01*
X175374117Y-122504761D02*
X175397926Y-122552380D01*
X154616666Y-125625069D02*
X154450000Y-125386974D01*
X154330952Y-125625069D02*
X154330952Y-125125069D01*
X154330952Y-125125069D02*
X154521428Y-125125069D01*
X154521428Y-125125069D02*
X154569047Y-125148879D01*
X154569047Y-125148879D02*
X154592857Y-125172688D01*
X154592857Y-125172688D02*
X154616666Y-125220307D01*
X154616666Y-125220307D02*
X154616666Y-125291736D01*
X154616666Y-125291736D02*
X154592857Y-125339355D01*
X154592857Y-125339355D02*
X154569047Y-125363164D01*
X154569047Y-125363164D02*
X154521428Y-125386974D01*
X154521428Y-125386974D02*
X154330952Y-125386974D01*
X154854762Y-125625069D02*
X154950000Y-125625069D01*
X154950000Y-125625069D02*
X154997619Y-125601260D01*
X154997619Y-125601260D02*
X155021428Y-125577450D01*
X155021428Y-125577450D02*
X155069047Y-125506021D01*
X155069047Y-125506021D02*
X155092857Y-125410783D01*
X155092857Y-125410783D02*
X155092857Y-125220307D01*
X155092857Y-125220307D02*
X155069047Y-125172688D01*
X155069047Y-125172688D02*
X155045238Y-125148879D01*
X155045238Y-125148879D02*
X154997619Y-125125069D01*
X154997619Y-125125069D02*
X154902381Y-125125069D01*
X154902381Y-125125069D02*
X154854762Y-125148879D01*
X154854762Y-125148879D02*
X154830952Y-125172688D01*
X154830952Y-125172688D02*
X154807143Y-125220307D01*
X154807143Y-125220307D02*
X154807143Y-125339355D01*
X154807143Y-125339355D02*
X154830952Y-125386974D01*
X154830952Y-125386974D02*
X154854762Y-125410783D01*
X154854762Y-125410783D02*
X154902381Y-125434593D01*
X154902381Y-125434593D02*
X154997619Y-125434593D01*
X154997619Y-125434593D02*
X155045238Y-125410783D01*
X155045238Y-125410783D02*
X155069047Y-125386974D01*
X155069047Y-125386974D02*
X155092857Y-125339355D01*
X175416666Y-104777450D02*
X175392857Y-104801260D01*
X175392857Y-104801260D02*
X175321428Y-104825069D01*
X175321428Y-104825069D02*
X175273809Y-104825069D01*
X175273809Y-104825069D02*
X175202381Y-104801260D01*
X175202381Y-104801260D02*
X175154762Y-104753640D01*
X175154762Y-104753640D02*
X175130952Y-104706021D01*
X175130952Y-104706021D02*
X175107143Y-104610783D01*
X175107143Y-104610783D02*
X175107143Y-104539355D01*
X175107143Y-104539355D02*
X175130952Y-104444117D01*
X175130952Y-104444117D02*
X175154762Y-104396498D01*
X175154762Y-104396498D02*
X175202381Y-104348879D01*
X175202381Y-104348879D02*
X175273809Y-104325069D01*
X175273809Y-104325069D02*
X175321428Y-104325069D01*
X175321428Y-104325069D02*
X175392857Y-104348879D01*
X175392857Y-104348879D02*
X175416666Y-104372688D01*
X175869047Y-104325069D02*
X175630952Y-104325069D01*
X175630952Y-104325069D02*
X175607143Y-104563164D01*
X175607143Y-104563164D02*
X175630952Y-104539355D01*
X175630952Y-104539355D02*
X175678571Y-104515545D01*
X175678571Y-104515545D02*
X175797619Y-104515545D01*
X175797619Y-104515545D02*
X175845238Y-104539355D01*
X175845238Y-104539355D02*
X175869047Y-104563164D01*
X175869047Y-104563164D02*
X175892857Y-104610783D01*
X175892857Y-104610783D02*
X175892857Y-104729831D01*
X175892857Y-104729831D02*
X175869047Y-104777450D01*
X175869047Y-104777450D02*
X175845238Y-104801260D01*
X175845238Y-104801260D02*
X175797619Y-104825069D01*
X175797619Y-104825069D02*
X175678571Y-104825069D01*
X175678571Y-104825069D02*
X175630952Y-104801260D01*
X175630952Y-104801260D02*
X175607143Y-104777450D01*
X154577450Y-123383333D02*
X154601260Y-123407142D01*
X154601260Y-123407142D02*
X154625069Y-123478571D01*
X154625069Y-123478571D02*
X154625069Y-123526190D01*
X154625069Y-123526190D02*
X154601260Y-123597618D01*
X154601260Y-123597618D02*
X154553640Y-123645237D01*
X154553640Y-123645237D02*
X154506021Y-123669047D01*
X154506021Y-123669047D02*
X154410783Y-123692856D01*
X154410783Y-123692856D02*
X154339355Y-123692856D01*
X154339355Y-123692856D02*
X154244117Y-123669047D01*
X154244117Y-123669047D02*
X154196498Y-123645237D01*
X154196498Y-123645237D02*
X154148879Y-123597618D01*
X154148879Y-123597618D02*
X154125069Y-123526190D01*
X154125069Y-123526190D02*
X154125069Y-123478571D01*
X154125069Y-123478571D02*
X154148879Y-123407142D01*
X154148879Y-123407142D02*
X154172688Y-123383333D01*
X154125069Y-122954761D02*
X154125069Y-123049999D01*
X154125069Y-123049999D02*
X154148879Y-123097618D01*
X154148879Y-123097618D02*
X154172688Y-123121428D01*
X154172688Y-123121428D02*
X154244117Y-123169047D01*
X154244117Y-123169047D02*
X154339355Y-123192856D01*
X154339355Y-123192856D02*
X154529831Y-123192856D01*
X154529831Y-123192856D02*
X154577450Y-123169047D01*
X154577450Y-123169047D02*
X154601260Y-123145237D01*
X154601260Y-123145237D02*
X154625069Y-123097618D01*
X154625069Y-123097618D02*
X154625069Y-123002380D01*
X154625069Y-123002380D02*
X154601260Y-122954761D01*
X154601260Y-122954761D02*
X154577450Y-122930952D01*
X154577450Y-122930952D02*
X154529831Y-122907142D01*
X154529831Y-122907142D02*
X154410783Y-122907142D01*
X154410783Y-122907142D02*
X154363164Y-122930952D01*
X154363164Y-122930952D02*
X154339355Y-122954761D01*
X154339355Y-122954761D02*
X154315545Y-123002380D01*
X154315545Y-123002380D02*
X154315545Y-123097618D01*
X154315545Y-123097618D02*
X154339355Y-123145237D01*
X154339355Y-123145237D02*
X154363164Y-123169047D01*
X154363164Y-123169047D02*
X154410783Y-123192856D01*
X149412569Y-120446666D02*
X149769712Y-120446666D01*
X149769712Y-120446666D02*
X149841140Y-120470475D01*
X149841140Y-120470475D02*
X149888760Y-120518094D01*
X149888760Y-120518094D02*
X149912569Y-120589523D01*
X149912569Y-120589523D02*
X149912569Y-120637142D01*
X149412569Y-120256190D02*
X149412569Y-119946666D01*
X149412569Y-119946666D02*
X149603045Y-120113333D01*
X149603045Y-120113333D02*
X149603045Y-120041904D01*
X149603045Y-120041904D02*
X149626855Y-119994285D01*
X149626855Y-119994285D02*
X149650664Y-119970476D01*
X149650664Y-119970476D02*
X149698283Y-119946666D01*
X149698283Y-119946666D02*
X149817331Y-119946666D01*
X149817331Y-119946666D02*
X149864950Y-119970476D01*
X149864950Y-119970476D02*
X149888760Y-119994285D01*
X149888760Y-119994285D02*
X149912569Y-120041904D01*
X149912569Y-120041904D02*
X149912569Y-120184761D01*
X149912569Y-120184761D02*
X149888760Y-120232380D01*
X149888760Y-120232380D02*
X149864950Y-120256190D01*
X168655069Y-121283333D02*
X168416974Y-121449999D01*
X168655069Y-121569047D02*
X168155069Y-121569047D01*
X168155069Y-121569047D02*
X168155069Y-121378571D01*
X168155069Y-121378571D02*
X168178879Y-121330952D01*
X168178879Y-121330952D02*
X168202688Y-121307142D01*
X168202688Y-121307142D02*
X168250307Y-121283333D01*
X168250307Y-121283333D02*
X168321736Y-121283333D01*
X168321736Y-121283333D02*
X168369355Y-121307142D01*
X168369355Y-121307142D02*
X168393164Y-121330952D01*
X168393164Y-121330952D02*
X168416974Y-121378571D01*
X168416974Y-121378571D02*
X168416974Y-121569047D01*
X168655069Y-120807142D02*
X168655069Y-121092856D01*
X168655069Y-120949999D02*
X168155069Y-120949999D01*
X168155069Y-120949999D02*
X168226498Y-120997618D01*
X168226498Y-120997618D02*
X168274117Y-121045237D01*
X168274117Y-121045237D02*
X168297926Y-121092856D01*
X141380952Y-122325069D02*
X141380952Y-122729831D01*
X141380952Y-122729831D02*
X141404762Y-122777450D01*
X141404762Y-122777450D02*
X141428571Y-122801260D01*
X141428571Y-122801260D02*
X141476190Y-122825069D01*
X141476190Y-122825069D02*
X141571428Y-122825069D01*
X141571428Y-122825069D02*
X141619047Y-122801260D01*
X141619047Y-122801260D02*
X141642857Y-122777450D01*
X141642857Y-122777450D02*
X141666666Y-122729831D01*
X141666666Y-122729831D02*
X141666666Y-122325069D01*
X142166667Y-122825069D02*
X141880953Y-122825069D01*
X142023810Y-122825069D02*
X142023810Y-122325069D01*
X142023810Y-122325069D02*
X141976191Y-122396498D01*
X141976191Y-122396498D02*
X141928572Y-122444117D01*
X141928572Y-122444117D02*
X141880953Y-122467926D01*
X142357143Y-122372688D02*
X142380952Y-122348879D01*
X142380952Y-122348879D02*
X142428571Y-122325069D01*
X142428571Y-122325069D02*
X142547619Y-122325069D01*
X142547619Y-122325069D02*
X142595238Y-122348879D01*
X142595238Y-122348879D02*
X142619047Y-122372688D01*
X142619047Y-122372688D02*
X142642857Y-122420307D01*
X142642857Y-122420307D02*
X142642857Y-122467926D01*
X142642857Y-122467926D02*
X142619047Y-122539355D01*
X142619047Y-122539355D02*
X142333333Y-122825069D01*
X142333333Y-122825069D02*
X142642857Y-122825069D01*
X168077450Y-95083333D02*
X168101260Y-95107142D01*
X168101260Y-95107142D02*
X168125069Y-95178571D01*
X168125069Y-95178571D02*
X168125069Y-95226190D01*
X168125069Y-95226190D02*
X168101260Y-95297618D01*
X168101260Y-95297618D02*
X168053640Y-95345237D01*
X168053640Y-95345237D02*
X168006021Y-95369047D01*
X168006021Y-95369047D02*
X167910783Y-95392856D01*
X167910783Y-95392856D02*
X167839355Y-95392856D01*
X167839355Y-95392856D02*
X167744117Y-95369047D01*
X167744117Y-95369047D02*
X167696498Y-95345237D01*
X167696498Y-95345237D02*
X167648879Y-95297618D01*
X167648879Y-95297618D02*
X167625069Y-95226190D01*
X167625069Y-95226190D02*
X167625069Y-95178571D01*
X167625069Y-95178571D02*
X167648879Y-95107142D01*
X167648879Y-95107142D02*
X167672688Y-95083333D01*
X168125069Y-94607142D02*
X168125069Y-94892856D01*
X168125069Y-94749999D02*
X167625069Y-94749999D01*
X167625069Y-94749999D02*
X167696498Y-94797618D01*
X167696498Y-94797618D02*
X167744117Y-94845237D01*
X167744117Y-94845237D02*
X167767926Y-94892856D01*
X180312952Y-100325069D02*
X180312952Y-100729831D01*
X180312952Y-100729831D02*
X180336762Y-100777450D01*
X180336762Y-100777450D02*
X180360571Y-100801260D01*
X180360571Y-100801260D02*
X180408190Y-100825069D01*
X180408190Y-100825069D02*
X180503428Y-100825069D01*
X180503428Y-100825069D02*
X180551047Y-100801260D01*
X180551047Y-100801260D02*
X180574857Y-100777450D01*
X180574857Y-100777450D02*
X180598666Y-100729831D01*
X180598666Y-100729831D02*
X180598666Y-100325069D01*
X181098667Y-100825069D02*
X180812953Y-100825069D01*
X180955810Y-100825069D02*
X180955810Y-100325069D01*
X180955810Y-100325069D02*
X180908191Y-100396498D01*
X180908191Y-100396498D02*
X180860572Y-100444117D01*
X180860572Y-100444117D02*
X180812953Y-100467926D01*
X181265333Y-100325069D02*
X181574857Y-100325069D01*
X181574857Y-100325069D02*
X181408190Y-100515545D01*
X181408190Y-100515545D02*
X181479619Y-100515545D01*
X181479619Y-100515545D02*
X181527238Y-100539355D01*
X181527238Y-100539355D02*
X181551047Y-100563164D01*
X181551047Y-100563164D02*
X181574857Y-100610783D01*
X181574857Y-100610783D02*
X181574857Y-100729831D01*
X181574857Y-100729831D02*
X181551047Y-100777450D01*
X181551047Y-100777450D02*
X181527238Y-100801260D01*
X181527238Y-100801260D02*
X181479619Y-100825069D01*
X181479619Y-100825069D02*
X181336762Y-100825069D01*
X181336762Y-100825069D02*
X181289143Y-100801260D01*
X181289143Y-100801260D02*
X181265333Y-100777450D01*
X157425069Y-109921428D02*
X157186974Y-110088094D01*
X157425069Y-110207142D02*
X156925069Y-110207142D01*
X156925069Y-110207142D02*
X156925069Y-110016666D01*
X156925069Y-110016666D02*
X156948879Y-109969047D01*
X156948879Y-109969047D02*
X156972688Y-109945237D01*
X156972688Y-109945237D02*
X157020307Y-109921428D01*
X157020307Y-109921428D02*
X157091736Y-109921428D01*
X157091736Y-109921428D02*
X157139355Y-109945237D01*
X157139355Y-109945237D02*
X157163164Y-109969047D01*
X157163164Y-109969047D02*
X157186974Y-110016666D01*
X157186974Y-110016666D02*
X157186974Y-110207142D01*
X157425069Y-109445237D02*
X157425069Y-109730951D01*
X157425069Y-109588094D02*
X156925069Y-109588094D01*
X156925069Y-109588094D02*
X156996498Y-109635713D01*
X156996498Y-109635713D02*
X157044117Y-109683332D01*
X157044117Y-109683332D02*
X157067926Y-109730951D01*
X157139355Y-109159523D02*
X157115545Y-109207142D01*
X157115545Y-109207142D02*
X157091736Y-109230952D01*
X157091736Y-109230952D02*
X157044117Y-109254761D01*
X157044117Y-109254761D02*
X157020307Y-109254761D01*
X157020307Y-109254761D02*
X156972688Y-109230952D01*
X156972688Y-109230952D02*
X156948879Y-109207142D01*
X156948879Y-109207142D02*
X156925069Y-109159523D01*
X156925069Y-109159523D02*
X156925069Y-109064285D01*
X156925069Y-109064285D02*
X156948879Y-109016666D01*
X156948879Y-109016666D02*
X156972688Y-108992857D01*
X156972688Y-108992857D02*
X157020307Y-108969047D01*
X157020307Y-108969047D02*
X157044117Y-108969047D01*
X157044117Y-108969047D02*
X157091736Y-108992857D01*
X157091736Y-108992857D02*
X157115545Y-109016666D01*
X157115545Y-109016666D02*
X157139355Y-109064285D01*
X157139355Y-109064285D02*
X157139355Y-109159523D01*
X157139355Y-109159523D02*
X157163164Y-109207142D01*
X157163164Y-109207142D02*
X157186974Y-109230952D01*
X157186974Y-109230952D02*
X157234593Y-109254761D01*
X157234593Y-109254761D02*
X157329831Y-109254761D01*
X157329831Y-109254761D02*
X157377450Y-109230952D01*
X157377450Y-109230952D02*
X157401260Y-109207142D01*
X157401260Y-109207142D02*
X157425069Y-109159523D01*
X157425069Y-109159523D02*
X157425069Y-109064285D01*
X157425069Y-109064285D02*
X157401260Y-109016666D01*
X157401260Y-109016666D02*
X157377450Y-108992857D01*
X157377450Y-108992857D02*
X157329831Y-108969047D01*
X157329831Y-108969047D02*
X157234593Y-108969047D01*
X157234593Y-108969047D02*
X157186974Y-108992857D01*
X157186974Y-108992857D02*
X157163164Y-109016666D01*
X157163164Y-109016666D02*
X157139355Y-109064285D01*
X176619047Y-105425069D02*
X176619047Y-105829831D01*
X176619047Y-105829831D02*
X176642857Y-105877450D01*
X176642857Y-105877450D02*
X176666666Y-105901260D01*
X176666666Y-105901260D02*
X176714285Y-105925069D01*
X176714285Y-105925069D02*
X176809523Y-105925069D01*
X176809523Y-105925069D02*
X176857142Y-105901260D01*
X176857142Y-105901260D02*
X176880952Y-105877450D01*
X176880952Y-105877450D02*
X176904761Y-105829831D01*
X176904761Y-105829831D02*
X176904761Y-105425069D01*
X177095238Y-105425069D02*
X177404762Y-105425069D01*
X177404762Y-105425069D02*
X177238095Y-105615545D01*
X177238095Y-105615545D02*
X177309524Y-105615545D01*
X177309524Y-105615545D02*
X177357143Y-105639355D01*
X177357143Y-105639355D02*
X177380952Y-105663164D01*
X177380952Y-105663164D02*
X177404762Y-105710783D01*
X177404762Y-105710783D02*
X177404762Y-105829831D01*
X177404762Y-105829831D02*
X177380952Y-105877450D01*
X177380952Y-105877450D02*
X177357143Y-105901260D01*
X177357143Y-105901260D02*
X177309524Y-105925069D01*
X177309524Y-105925069D02*
X177166667Y-105925069D01*
X177166667Y-105925069D02*
X177119048Y-105901260D01*
X177119048Y-105901260D02*
X177095238Y-105877450D01*
X159916666Y-107325069D02*
X159750000Y-107086974D01*
X159630952Y-107325069D02*
X159630952Y-106825069D01*
X159630952Y-106825069D02*
X159821428Y-106825069D01*
X159821428Y-106825069D02*
X159869047Y-106848879D01*
X159869047Y-106848879D02*
X159892857Y-106872688D01*
X159892857Y-106872688D02*
X159916666Y-106920307D01*
X159916666Y-106920307D02*
X159916666Y-106991736D01*
X159916666Y-106991736D02*
X159892857Y-107039355D01*
X159892857Y-107039355D02*
X159869047Y-107063164D01*
X159869047Y-107063164D02*
X159821428Y-107086974D01*
X159821428Y-107086974D02*
X159630952Y-107086974D01*
X160345238Y-106991736D02*
X160345238Y-107325069D01*
X160226190Y-106801260D02*
X160107143Y-107158402D01*
X160107143Y-107158402D02*
X160416666Y-107158402D01*
X161516666Y-119017450D02*
X161492857Y-119041260D01*
X161492857Y-119041260D02*
X161421428Y-119065069D01*
X161421428Y-119065069D02*
X161373809Y-119065069D01*
X161373809Y-119065069D02*
X161302381Y-119041260D01*
X161302381Y-119041260D02*
X161254762Y-118993640D01*
X161254762Y-118993640D02*
X161230952Y-118946021D01*
X161230952Y-118946021D02*
X161207143Y-118850783D01*
X161207143Y-118850783D02*
X161207143Y-118779355D01*
X161207143Y-118779355D02*
X161230952Y-118684117D01*
X161230952Y-118684117D02*
X161254762Y-118636498D01*
X161254762Y-118636498D02*
X161302381Y-118588879D01*
X161302381Y-118588879D02*
X161373809Y-118565069D01*
X161373809Y-118565069D02*
X161421428Y-118565069D01*
X161421428Y-118565069D02*
X161492857Y-118588879D01*
X161492857Y-118588879D02*
X161516666Y-118612688D01*
X161754762Y-119065069D02*
X161850000Y-119065069D01*
X161850000Y-119065069D02*
X161897619Y-119041260D01*
X161897619Y-119041260D02*
X161921428Y-119017450D01*
X161921428Y-119017450D02*
X161969047Y-118946021D01*
X161969047Y-118946021D02*
X161992857Y-118850783D01*
X161992857Y-118850783D02*
X161992857Y-118660307D01*
X161992857Y-118660307D02*
X161969047Y-118612688D01*
X161969047Y-118612688D02*
X161945238Y-118588879D01*
X161945238Y-118588879D02*
X161897619Y-118565069D01*
X161897619Y-118565069D02*
X161802381Y-118565069D01*
X161802381Y-118565069D02*
X161754762Y-118588879D01*
X161754762Y-118588879D02*
X161730952Y-118612688D01*
X161730952Y-118612688D02*
X161707143Y-118660307D01*
X161707143Y-118660307D02*
X161707143Y-118779355D01*
X161707143Y-118779355D02*
X161730952Y-118826974D01*
X161730952Y-118826974D02*
X161754762Y-118850783D01*
X161754762Y-118850783D02*
X161802381Y-118874593D01*
X161802381Y-118874593D02*
X161897619Y-118874593D01*
X161897619Y-118874593D02*
X161945238Y-118850783D01*
X161945238Y-118850783D02*
X161969047Y-118826974D01*
X161969047Y-118826974D02*
X161992857Y-118779355D01*
X156178571Y-120725069D02*
X156011905Y-120486974D01*
X155892857Y-120725069D02*
X155892857Y-120225069D01*
X155892857Y-120225069D02*
X156083333Y-120225069D01*
X156083333Y-120225069D02*
X156130952Y-120248879D01*
X156130952Y-120248879D02*
X156154762Y-120272688D01*
X156154762Y-120272688D02*
X156178571Y-120320307D01*
X156178571Y-120320307D02*
X156178571Y-120391736D01*
X156178571Y-120391736D02*
X156154762Y-120439355D01*
X156154762Y-120439355D02*
X156130952Y-120463164D01*
X156130952Y-120463164D02*
X156083333Y-120486974D01*
X156083333Y-120486974D02*
X155892857Y-120486974D01*
X156654762Y-120725069D02*
X156369048Y-120725069D01*
X156511905Y-120725069D02*
X156511905Y-120225069D01*
X156511905Y-120225069D02*
X156464286Y-120296498D01*
X156464286Y-120296498D02*
X156416667Y-120344117D01*
X156416667Y-120344117D02*
X156369048Y-120367926D01*
X157083333Y-120225069D02*
X156988095Y-120225069D01*
X156988095Y-120225069D02*
X156940476Y-120248879D01*
X156940476Y-120248879D02*
X156916666Y-120272688D01*
X156916666Y-120272688D02*
X156869047Y-120344117D01*
X156869047Y-120344117D02*
X156845238Y-120439355D01*
X156845238Y-120439355D02*
X156845238Y-120629831D01*
X156845238Y-120629831D02*
X156869047Y-120677450D01*
X156869047Y-120677450D02*
X156892857Y-120701260D01*
X156892857Y-120701260D02*
X156940476Y-120725069D01*
X156940476Y-120725069D02*
X157035714Y-120725069D01*
X157035714Y-120725069D02*
X157083333Y-120701260D01*
X157083333Y-120701260D02*
X157107142Y-120677450D01*
X157107142Y-120677450D02*
X157130952Y-120629831D01*
X157130952Y-120629831D02*
X157130952Y-120510783D01*
X157130952Y-120510783D02*
X157107142Y-120463164D01*
X157107142Y-120463164D02*
X157083333Y-120439355D01*
X157083333Y-120439355D02*
X157035714Y-120415545D01*
X157035714Y-120415545D02*
X156940476Y-120415545D01*
X156940476Y-120415545D02*
X156892857Y-120439355D01*
X156892857Y-120439355D02*
X156869047Y-120463164D01*
X156869047Y-120463164D02*
X156845238Y-120510783D01*
X144458571Y-96010069D02*
X144291905Y-95771974D01*
X144172857Y-96010069D02*
X144172857Y-95510069D01*
X144172857Y-95510069D02*
X144363333Y-95510069D01*
X144363333Y-95510069D02*
X144410952Y-95533879D01*
X144410952Y-95533879D02*
X144434762Y-95557688D01*
X144434762Y-95557688D02*
X144458571Y-95605307D01*
X144458571Y-95605307D02*
X144458571Y-95676736D01*
X144458571Y-95676736D02*
X144434762Y-95724355D01*
X144434762Y-95724355D02*
X144410952Y-95748164D01*
X144410952Y-95748164D02*
X144363333Y-95771974D01*
X144363333Y-95771974D02*
X144172857Y-95771974D01*
X144934762Y-96010069D02*
X144649048Y-96010069D01*
X144791905Y-96010069D02*
X144791905Y-95510069D01*
X144791905Y-95510069D02*
X144744286Y-95581498D01*
X144744286Y-95581498D02*
X144696667Y-95629117D01*
X144696667Y-95629117D02*
X144649048Y-95652926D01*
X145410952Y-96010069D02*
X145125238Y-96010069D01*
X145268095Y-96010069D02*
X145268095Y-95510069D01*
X145268095Y-95510069D02*
X145220476Y-95581498D01*
X145220476Y-95581498D02*
X145172857Y-95629117D01*
X145172857Y-95629117D02*
X145125238Y-95652926D01*
X150629623Y-124511312D02*
X150677053Y-124569787D01*
X150677053Y-124569787D02*
X150777435Y-124633784D01*
X150777435Y-124633784D02*
X150830388Y-124639307D01*
X150830388Y-124639307D02*
X150863264Y-124632030D01*
X150863264Y-124632030D02*
X150908939Y-124604676D01*
X150908939Y-124604676D02*
X150934538Y-124564523D01*
X150934538Y-124564523D02*
X150940061Y-124511571D01*
X150940061Y-124511571D02*
X150932784Y-124478695D01*
X150932784Y-124478695D02*
X150905430Y-124433019D01*
X150905430Y-124433019D02*
X150837924Y-124361745D01*
X150837924Y-124361745D02*
X150810570Y-124316069D01*
X150810570Y-124316069D02*
X150803293Y-124283193D01*
X150803293Y-124283193D02*
X150808816Y-124230241D01*
X150808816Y-124230241D02*
X150834415Y-124190088D01*
X150834415Y-124190088D02*
X150880090Y-124162734D01*
X150880090Y-124162734D02*
X150912966Y-124155457D01*
X150912966Y-124155457D02*
X150965919Y-124160980D01*
X150965919Y-124160980D02*
X151066301Y-124224977D01*
X151066301Y-124224977D02*
X151113731Y-124283452D01*
X151267066Y-124352972D02*
X151098659Y-124838576D01*
X151098659Y-124838576D02*
X151370958Y-124588627D01*
X151370958Y-124588627D02*
X151259271Y-124940972D01*
X151259271Y-124940972D02*
X151628443Y-124583363D01*
X151743380Y-124713113D02*
X151776256Y-124705836D01*
X151776256Y-124705836D02*
X151829209Y-124711358D01*
X151829209Y-124711358D02*
X151929591Y-124775356D01*
X151929591Y-124775356D02*
X151956945Y-124821032D01*
X151956945Y-124821032D02*
X151964222Y-124853908D01*
X151964222Y-124853908D02*
X151958699Y-124906860D01*
X151958699Y-124906860D02*
X151933100Y-124947013D01*
X151933100Y-124947013D02*
X151874625Y-124994443D01*
X151874625Y-124994443D02*
X151480113Y-125081767D01*
X151480113Y-125081767D02*
X151741108Y-125248161D01*
X163141450Y-126848428D02*
X163165260Y-126872237D01*
X163165260Y-126872237D02*
X163189069Y-126943666D01*
X163189069Y-126943666D02*
X163189069Y-126991285D01*
X163189069Y-126991285D02*
X163165260Y-127062713D01*
X163165260Y-127062713D02*
X163117640Y-127110332D01*
X163117640Y-127110332D02*
X163070021Y-127134142D01*
X163070021Y-127134142D02*
X162974783Y-127157951D01*
X162974783Y-127157951D02*
X162903355Y-127157951D01*
X162903355Y-127157951D02*
X162808117Y-127134142D01*
X162808117Y-127134142D02*
X162760498Y-127110332D01*
X162760498Y-127110332D02*
X162712879Y-127062713D01*
X162712879Y-127062713D02*
X162689069Y-126991285D01*
X162689069Y-126991285D02*
X162689069Y-126943666D01*
X162689069Y-126943666D02*
X162712879Y-126872237D01*
X162712879Y-126872237D02*
X162736688Y-126848428D01*
X163189069Y-126372237D02*
X163189069Y-126657951D01*
X163189069Y-126515094D02*
X162689069Y-126515094D01*
X162689069Y-126515094D02*
X162760498Y-126562713D01*
X162760498Y-126562713D02*
X162808117Y-126610332D01*
X162808117Y-126610332D02*
X162831926Y-126657951D01*
X163189069Y-125896047D02*
X163189069Y-126181761D01*
X163189069Y-126038904D02*
X162689069Y-126038904D01*
X162689069Y-126038904D02*
X162760498Y-126086523D01*
X162760498Y-126086523D02*
X162808117Y-126134142D01*
X162808117Y-126134142D02*
X162831926Y-126181761D01*
X158913450Y-128844333D02*
X158937260Y-128868142D01*
X158937260Y-128868142D02*
X158961069Y-128939571D01*
X158961069Y-128939571D02*
X158961069Y-128987190D01*
X158961069Y-128987190D02*
X158937260Y-129058618D01*
X158937260Y-129058618D02*
X158889640Y-129106237D01*
X158889640Y-129106237D02*
X158842021Y-129130047D01*
X158842021Y-129130047D02*
X158746783Y-129153856D01*
X158746783Y-129153856D02*
X158675355Y-129153856D01*
X158675355Y-129153856D02*
X158580117Y-129130047D01*
X158580117Y-129130047D02*
X158532498Y-129106237D01*
X158532498Y-129106237D02*
X158484879Y-129058618D01*
X158484879Y-129058618D02*
X158461069Y-128987190D01*
X158461069Y-128987190D02*
X158461069Y-128939571D01*
X158461069Y-128939571D02*
X158484879Y-128868142D01*
X158484879Y-128868142D02*
X158508688Y-128844333D01*
X158461069Y-128677666D02*
X158461069Y-128344333D01*
X158461069Y-128344333D02*
X158961069Y-128558618D01*
X168377450Y-101621428D02*
X168401260Y-101645237D01*
X168401260Y-101645237D02*
X168425069Y-101716666D01*
X168425069Y-101716666D02*
X168425069Y-101764285D01*
X168425069Y-101764285D02*
X168401260Y-101835713D01*
X168401260Y-101835713D02*
X168353640Y-101883332D01*
X168353640Y-101883332D02*
X168306021Y-101907142D01*
X168306021Y-101907142D02*
X168210783Y-101930951D01*
X168210783Y-101930951D02*
X168139355Y-101930951D01*
X168139355Y-101930951D02*
X168044117Y-101907142D01*
X168044117Y-101907142D02*
X167996498Y-101883332D01*
X167996498Y-101883332D02*
X167948879Y-101835713D01*
X167948879Y-101835713D02*
X167925069Y-101764285D01*
X167925069Y-101764285D02*
X167925069Y-101716666D01*
X167925069Y-101716666D02*
X167948879Y-101645237D01*
X167948879Y-101645237D02*
X167972688Y-101621428D01*
X168425069Y-101145237D02*
X168425069Y-101430951D01*
X168425069Y-101288094D02*
X167925069Y-101288094D01*
X167925069Y-101288094D02*
X167996498Y-101335713D01*
X167996498Y-101335713D02*
X168044117Y-101383332D01*
X168044117Y-101383332D02*
X168067926Y-101430951D01*
X167925069Y-100716666D02*
X167925069Y-100811904D01*
X167925069Y-100811904D02*
X167948879Y-100859523D01*
X167948879Y-100859523D02*
X167972688Y-100883333D01*
X167972688Y-100883333D02*
X168044117Y-100930952D01*
X168044117Y-100930952D02*
X168139355Y-100954761D01*
X168139355Y-100954761D02*
X168329831Y-100954761D01*
X168329831Y-100954761D02*
X168377450Y-100930952D01*
X168377450Y-100930952D02*
X168401260Y-100907142D01*
X168401260Y-100907142D02*
X168425069Y-100859523D01*
X168425069Y-100859523D02*
X168425069Y-100764285D01*
X168425069Y-100764285D02*
X168401260Y-100716666D01*
X168401260Y-100716666D02*
X168377450Y-100692857D01*
X168377450Y-100692857D02*
X168329831Y-100669047D01*
X168329831Y-100669047D02*
X168210783Y-100669047D01*
X168210783Y-100669047D02*
X168163164Y-100692857D01*
X168163164Y-100692857D02*
X168139355Y-100716666D01*
X168139355Y-100716666D02*
X168115545Y-100764285D01*
X168115545Y-100764285D02*
X168115545Y-100859523D01*
X168115545Y-100859523D02*
X168139355Y-100907142D01*
X168139355Y-100907142D02*
X168163164Y-100930952D01*
X168163164Y-100930952D02*
X168210783Y-100954761D01*
X174878571Y-99525069D02*
X174711905Y-99286974D01*
X174592857Y-99525069D02*
X174592857Y-99025069D01*
X174592857Y-99025069D02*
X174783333Y-99025069D01*
X174783333Y-99025069D02*
X174830952Y-99048879D01*
X174830952Y-99048879D02*
X174854762Y-99072688D01*
X174854762Y-99072688D02*
X174878571Y-99120307D01*
X174878571Y-99120307D02*
X174878571Y-99191736D01*
X174878571Y-99191736D02*
X174854762Y-99239355D01*
X174854762Y-99239355D02*
X174830952Y-99263164D01*
X174830952Y-99263164D02*
X174783333Y-99286974D01*
X174783333Y-99286974D02*
X174592857Y-99286974D01*
X175069048Y-99072688D02*
X175092857Y-99048879D01*
X175092857Y-99048879D02*
X175140476Y-99025069D01*
X175140476Y-99025069D02*
X175259524Y-99025069D01*
X175259524Y-99025069D02*
X175307143Y-99048879D01*
X175307143Y-99048879D02*
X175330952Y-99072688D01*
X175330952Y-99072688D02*
X175354762Y-99120307D01*
X175354762Y-99120307D02*
X175354762Y-99167926D01*
X175354762Y-99167926D02*
X175330952Y-99239355D01*
X175330952Y-99239355D02*
X175045238Y-99525069D01*
X175045238Y-99525069D02*
X175354762Y-99525069D01*
X175830952Y-99525069D02*
X175545238Y-99525069D01*
X175688095Y-99525069D02*
X175688095Y-99025069D01*
X175688095Y-99025069D02*
X175640476Y-99096498D01*
X175640476Y-99096498D02*
X175592857Y-99144117D01*
X175592857Y-99144117D02*
X175545238Y-99167926D01*
D11*
X159795238Y-123080887D02*
X159795238Y-123404697D01*
X159795238Y-123404697D02*
X159814285Y-123442792D01*
X159814285Y-123442792D02*
X159833333Y-123461840D01*
X159833333Y-123461840D02*
X159871428Y-123480887D01*
X159871428Y-123480887D02*
X159947619Y-123480887D01*
X159947619Y-123480887D02*
X159985714Y-123461840D01*
X159985714Y-123461840D02*
X160004761Y-123442792D01*
X160004761Y-123442792D02*
X160023809Y-123404697D01*
X160023809Y-123404697D02*
X160023809Y-123080887D01*
X160404762Y-123080887D02*
X160214286Y-123080887D01*
X160214286Y-123080887D02*
X160195238Y-123271363D01*
X160195238Y-123271363D02*
X160214286Y-123252316D01*
X160214286Y-123252316D02*
X160252381Y-123233268D01*
X160252381Y-123233268D02*
X160347619Y-123233268D01*
X160347619Y-123233268D02*
X160385714Y-123252316D01*
X160385714Y-123252316D02*
X160404762Y-123271363D01*
X160404762Y-123271363D02*
X160423809Y-123309459D01*
X160423809Y-123309459D02*
X160423809Y-123404697D01*
X160423809Y-123404697D02*
X160404762Y-123442792D01*
X160404762Y-123442792D02*
X160385714Y-123461840D01*
X160385714Y-123461840D02*
X160347619Y-123480887D01*
X160347619Y-123480887D02*
X160252381Y-123480887D01*
X160252381Y-123480887D02*
X160214286Y-123461840D01*
X160214286Y-123461840D02*
X160195238Y-123442792D01*
D10*
X158813450Y-122354333D02*
X158837260Y-122378142D01*
X158837260Y-122378142D02*
X158861069Y-122449571D01*
X158861069Y-122449571D02*
X158861069Y-122497190D01*
X158861069Y-122497190D02*
X158837260Y-122568618D01*
X158837260Y-122568618D02*
X158789640Y-122616237D01*
X158789640Y-122616237D02*
X158742021Y-122640047D01*
X158742021Y-122640047D02*
X158646783Y-122663856D01*
X158646783Y-122663856D02*
X158575355Y-122663856D01*
X158575355Y-122663856D02*
X158480117Y-122640047D01*
X158480117Y-122640047D02*
X158432498Y-122616237D01*
X158432498Y-122616237D02*
X158384879Y-122568618D01*
X158384879Y-122568618D02*
X158361069Y-122497190D01*
X158361069Y-122497190D02*
X158361069Y-122449571D01*
X158361069Y-122449571D02*
X158384879Y-122378142D01*
X158384879Y-122378142D02*
X158408688Y-122354333D01*
X158575355Y-122068618D02*
X158551545Y-122116237D01*
X158551545Y-122116237D02*
X158527736Y-122140047D01*
X158527736Y-122140047D02*
X158480117Y-122163856D01*
X158480117Y-122163856D02*
X158456307Y-122163856D01*
X158456307Y-122163856D02*
X158408688Y-122140047D01*
X158408688Y-122140047D02*
X158384879Y-122116237D01*
X158384879Y-122116237D02*
X158361069Y-122068618D01*
X158361069Y-122068618D02*
X158361069Y-121973380D01*
X158361069Y-121973380D02*
X158384879Y-121925761D01*
X158384879Y-121925761D02*
X158408688Y-121901952D01*
X158408688Y-121901952D02*
X158456307Y-121878142D01*
X158456307Y-121878142D02*
X158480117Y-121878142D01*
X158480117Y-121878142D02*
X158527736Y-121901952D01*
X158527736Y-121901952D02*
X158551545Y-121925761D01*
X158551545Y-121925761D02*
X158575355Y-121973380D01*
X158575355Y-121973380D02*
X158575355Y-122068618D01*
X158575355Y-122068618D02*
X158599164Y-122116237D01*
X158599164Y-122116237D02*
X158622974Y-122140047D01*
X158622974Y-122140047D02*
X158670593Y-122163856D01*
X158670593Y-122163856D02*
X158765831Y-122163856D01*
X158765831Y-122163856D02*
X158813450Y-122140047D01*
X158813450Y-122140047D02*
X158837260Y-122116237D01*
X158837260Y-122116237D02*
X158861069Y-122068618D01*
X158861069Y-122068618D02*
X158861069Y-121973380D01*
X158861069Y-121973380D02*
X158837260Y-121925761D01*
X158837260Y-121925761D02*
X158813450Y-121901952D01*
X158813450Y-121901952D02*
X158765831Y-121878142D01*
X158765831Y-121878142D02*
X158670593Y-121878142D01*
X158670593Y-121878142D02*
X158622974Y-121901952D01*
X158622974Y-121901952D02*
X158599164Y-121925761D01*
X158599164Y-121925761D02*
X158575355Y-121973380D01*
X171978571Y-105125069D02*
X171811905Y-104886974D01*
X171692857Y-105125069D02*
X171692857Y-104625069D01*
X171692857Y-104625069D02*
X171883333Y-104625069D01*
X171883333Y-104625069D02*
X171930952Y-104648879D01*
X171930952Y-104648879D02*
X171954762Y-104672688D01*
X171954762Y-104672688D02*
X171978571Y-104720307D01*
X171978571Y-104720307D02*
X171978571Y-104791736D01*
X171978571Y-104791736D02*
X171954762Y-104839355D01*
X171954762Y-104839355D02*
X171930952Y-104863164D01*
X171930952Y-104863164D02*
X171883333Y-104886974D01*
X171883333Y-104886974D02*
X171692857Y-104886974D01*
X172454762Y-105125069D02*
X172169048Y-105125069D01*
X172311905Y-105125069D02*
X172311905Y-104625069D01*
X172311905Y-104625069D02*
X172264286Y-104696498D01*
X172264286Y-104696498D02*
X172216667Y-104744117D01*
X172216667Y-104744117D02*
X172169048Y-104767926D01*
X172645238Y-104672688D02*
X172669047Y-104648879D01*
X172669047Y-104648879D02*
X172716666Y-104625069D01*
X172716666Y-104625069D02*
X172835714Y-104625069D01*
X172835714Y-104625069D02*
X172883333Y-104648879D01*
X172883333Y-104648879D02*
X172907142Y-104672688D01*
X172907142Y-104672688D02*
X172930952Y-104720307D01*
X172930952Y-104720307D02*
X172930952Y-104767926D01*
X172930952Y-104767926D02*
X172907142Y-104839355D01*
X172907142Y-104839355D02*
X172621428Y-105125069D01*
X172621428Y-105125069D02*
X172930952Y-105125069D01*
X152703219Y-105643776D02*
X153060362Y-105643776D01*
X153060362Y-105643776D02*
X153131790Y-105667585D01*
X153131790Y-105667585D02*
X153179410Y-105715204D01*
X153179410Y-105715204D02*
X153203219Y-105786633D01*
X153203219Y-105786633D02*
X153203219Y-105834252D01*
X152750838Y-105429490D02*
X152727029Y-105405681D01*
X152727029Y-105405681D02*
X152703219Y-105358062D01*
X152703219Y-105358062D02*
X152703219Y-105239014D01*
X152703219Y-105239014D02*
X152727029Y-105191395D01*
X152727029Y-105191395D02*
X152750838Y-105167586D01*
X152750838Y-105167586D02*
X152798457Y-105143776D01*
X152798457Y-105143776D02*
X152846076Y-105143776D01*
X152846076Y-105143776D02*
X152917505Y-105167586D01*
X152917505Y-105167586D02*
X153203219Y-105453300D01*
X153203219Y-105453300D02*
X153203219Y-105143776D01*
X148177450Y-123283333D02*
X148201260Y-123307142D01*
X148201260Y-123307142D02*
X148225069Y-123378571D01*
X148225069Y-123378571D02*
X148225069Y-123426190D01*
X148225069Y-123426190D02*
X148201260Y-123497618D01*
X148201260Y-123497618D02*
X148153640Y-123545237D01*
X148153640Y-123545237D02*
X148106021Y-123569047D01*
X148106021Y-123569047D02*
X148010783Y-123592856D01*
X148010783Y-123592856D02*
X147939355Y-123592856D01*
X147939355Y-123592856D02*
X147844117Y-123569047D01*
X147844117Y-123569047D02*
X147796498Y-123545237D01*
X147796498Y-123545237D02*
X147748879Y-123497618D01*
X147748879Y-123497618D02*
X147725069Y-123426190D01*
X147725069Y-123426190D02*
X147725069Y-123378571D01*
X147725069Y-123378571D02*
X147748879Y-123307142D01*
X147748879Y-123307142D02*
X147772688Y-123283333D01*
X147725069Y-123116666D02*
X147725069Y-122807142D01*
X147725069Y-122807142D02*
X147915545Y-122973809D01*
X147915545Y-122973809D02*
X147915545Y-122902380D01*
X147915545Y-122902380D02*
X147939355Y-122854761D01*
X147939355Y-122854761D02*
X147963164Y-122830952D01*
X147963164Y-122830952D02*
X148010783Y-122807142D01*
X148010783Y-122807142D02*
X148129831Y-122807142D01*
X148129831Y-122807142D02*
X148177450Y-122830952D01*
X148177450Y-122830952D02*
X148201260Y-122854761D01*
X148201260Y-122854761D02*
X148225069Y-122902380D01*
X148225069Y-122902380D02*
X148225069Y-123045237D01*
X148225069Y-123045237D02*
X148201260Y-123092856D01*
X148201260Y-123092856D02*
X148177450Y-123116666D01*
X161316666Y-112595069D02*
X161150000Y-112356974D01*
X161030952Y-112595069D02*
X161030952Y-112095069D01*
X161030952Y-112095069D02*
X161221428Y-112095069D01*
X161221428Y-112095069D02*
X161269047Y-112118879D01*
X161269047Y-112118879D02*
X161292857Y-112142688D01*
X161292857Y-112142688D02*
X161316666Y-112190307D01*
X161316666Y-112190307D02*
X161316666Y-112261736D01*
X161316666Y-112261736D02*
X161292857Y-112309355D01*
X161292857Y-112309355D02*
X161269047Y-112333164D01*
X161269047Y-112333164D02*
X161221428Y-112356974D01*
X161221428Y-112356974D02*
X161030952Y-112356974D01*
X161483333Y-112095069D02*
X161792857Y-112095069D01*
X161792857Y-112095069D02*
X161626190Y-112285545D01*
X161626190Y-112285545D02*
X161697619Y-112285545D01*
X161697619Y-112285545D02*
X161745238Y-112309355D01*
X161745238Y-112309355D02*
X161769047Y-112333164D01*
X161769047Y-112333164D02*
X161792857Y-112380783D01*
X161792857Y-112380783D02*
X161792857Y-112499831D01*
X161792857Y-112499831D02*
X161769047Y-112547450D01*
X161769047Y-112547450D02*
X161745238Y-112571260D01*
X161745238Y-112571260D02*
X161697619Y-112595069D01*
X161697619Y-112595069D02*
X161554762Y-112595069D01*
X161554762Y-112595069D02*
X161507143Y-112571260D01*
X161507143Y-112571260D02*
X161483333Y-112547450D01*
X175677450Y-121583333D02*
X175701260Y-121607142D01*
X175701260Y-121607142D02*
X175725069Y-121678571D01*
X175725069Y-121678571D02*
X175725069Y-121726190D01*
X175725069Y-121726190D02*
X175701260Y-121797618D01*
X175701260Y-121797618D02*
X175653640Y-121845237D01*
X175653640Y-121845237D02*
X175606021Y-121869047D01*
X175606021Y-121869047D02*
X175510783Y-121892856D01*
X175510783Y-121892856D02*
X175439355Y-121892856D01*
X175439355Y-121892856D02*
X175344117Y-121869047D01*
X175344117Y-121869047D02*
X175296498Y-121845237D01*
X175296498Y-121845237D02*
X175248879Y-121797618D01*
X175248879Y-121797618D02*
X175225069Y-121726190D01*
X175225069Y-121726190D02*
X175225069Y-121678571D01*
X175225069Y-121678571D02*
X175248879Y-121607142D01*
X175248879Y-121607142D02*
X175272688Y-121583333D01*
X175391736Y-121154761D02*
X175725069Y-121154761D01*
X175201260Y-121273809D02*
X175558402Y-121392856D01*
X175558402Y-121392856D02*
X175558402Y-121083333D01*
D13*
X160553331Y-116680452D02*
X161063812Y-116680452D01*
X161063812Y-116680452D02*
X161123868Y-116650424D01*
X161123868Y-116650424D02*
X161153897Y-116620396D01*
X161153897Y-116620396D02*
X161183925Y-116560339D01*
X161183925Y-116560339D02*
X161183925Y-116440226D01*
X161183925Y-116440226D02*
X161153897Y-116380169D01*
X161153897Y-116380169D02*
X161123868Y-116350141D01*
X161123868Y-116350141D02*
X161063812Y-116320113D01*
X161063812Y-116320113D02*
X160553331Y-116320113D01*
X160823585Y-115929745D02*
X160793557Y-115989802D01*
X160793557Y-115989802D02*
X160763529Y-116019830D01*
X160763529Y-116019830D02*
X160703472Y-116049858D01*
X160703472Y-116049858D02*
X160673444Y-116049858D01*
X160673444Y-116049858D02*
X160613387Y-116019830D01*
X160613387Y-116019830D02*
X160583359Y-115989802D01*
X160583359Y-115989802D02*
X160553331Y-115929745D01*
X160553331Y-115929745D02*
X160553331Y-115809632D01*
X160553331Y-115809632D02*
X160583359Y-115749576D01*
X160583359Y-115749576D02*
X160613387Y-115719547D01*
X160613387Y-115719547D02*
X160673444Y-115689519D01*
X160673444Y-115689519D02*
X160703472Y-115689519D01*
X160703472Y-115689519D02*
X160763529Y-115719547D01*
X160763529Y-115719547D02*
X160793557Y-115749576D01*
X160793557Y-115749576D02*
X160823585Y-115809632D01*
X160823585Y-115809632D02*
X160823585Y-115929745D01*
X160823585Y-115929745D02*
X160853614Y-115989802D01*
X160853614Y-115989802D02*
X160883642Y-116019830D01*
X160883642Y-116019830D02*
X160943699Y-116049858D01*
X160943699Y-116049858D02*
X161063812Y-116049858D01*
X161063812Y-116049858D02*
X161123868Y-116019830D01*
X161123868Y-116019830D02*
X161153897Y-115989802D01*
X161153897Y-115989802D02*
X161183925Y-115929745D01*
X161183925Y-115929745D02*
X161183925Y-115809632D01*
X161183925Y-115809632D02*
X161153897Y-115749576D01*
X161153897Y-115749576D02*
X161123868Y-115719547D01*
X161123868Y-115719547D02*
X161063812Y-115689519D01*
X161063812Y-115689519D02*
X160943699Y-115689519D01*
X160943699Y-115689519D02*
X160883642Y-115719547D01*
X160883642Y-115719547D02*
X160853614Y-115749576D01*
X160853614Y-115749576D02*
X160823585Y-115809632D01*
D10*
X167778571Y-124025069D02*
X167611905Y-123786974D01*
X167492857Y-124025069D02*
X167492857Y-123525069D01*
X167492857Y-123525069D02*
X167683333Y-123525069D01*
X167683333Y-123525069D02*
X167730952Y-123548879D01*
X167730952Y-123548879D02*
X167754762Y-123572688D01*
X167754762Y-123572688D02*
X167778571Y-123620307D01*
X167778571Y-123620307D02*
X167778571Y-123691736D01*
X167778571Y-123691736D02*
X167754762Y-123739355D01*
X167754762Y-123739355D02*
X167730952Y-123763164D01*
X167730952Y-123763164D02*
X167683333Y-123786974D01*
X167683333Y-123786974D02*
X167492857Y-123786974D01*
X168254762Y-124025069D02*
X167969048Y-124025069D01*
X168111905Y-124025069D02*
X168111905Y-123525069D01*
X168111905Y-123525069D02*
X168064286Y-123596498D01*
X168064286Y-123596498D02*
X168016667Y-123644117D01*
X168016667Y-123644117D02*
X167969048Y-123667926D01*
X168421428Y-123525069D02*
X168730952Y-123525069D01*
X168730952Y-123525069D02*
X168564285Y-123715545D01*
X168564285Y-123715545D02*
X168635714Y-123715545D01*
X168635714Y-123715545D02*
X168683333Y-123739355D01*
X168683333Y-123739355D02*
X168707142Y-123763164D01*
X168707142Y-123763164D02*
X168730952Y-123810783D01*
X168730952Y-123810783D02*
X168730952Y-123929831D01*
X168730952Y-123929831D02*
X168707142Y-123977450D01*
X168707142Y-123977450D02*
X168683333Y-124001260D01*
X168683333Y-124001260D02*
X168635714Y-124025069D01*
X168635714Y-124025069D02*
X168492857Y-124025069D01*
X168492857Y-124025069D02*
X168445238Y-124001260D01*
X168445238Y-124001260D02*
X168421428Y-123977450D01*
X138797589Y-98934205D02*
X138869017Y-98958014D01*
X138869017Y-98958014D02*
X138988065Y-98958014D01*
X138988065Y-98958014D02*
X139035684Y-98934205D01*
X139035684Y-98934205D02*
X139059493Y-98910395D01*
X139059493Y-98910395D02*
X139083303Y-98862776D01*
X139083303Y-98862776D02*
X139083303Y-98815157D01*
X139083303Y-98815157D02*
X139059493Y-98767538D01*
X139059493Y-98767538D02*
X139035684Y-98743728D01*
X139035684Y-98743728D02*
X138988065Y-98719919D01*
X138988065Y-98719919D02*
X138892827Y-98696109D01*
X138892827Y-98696109D02*
X138845208Y-98672300D01*
X138845208Y-98672300D02*
X138821398Y-98648490D01*
X138821398Y-98648490D02*
X138797589Y-98600871D01*
X138797589Y-98600871D02*
X138797589Y-98553252D01*
X138797589Y-98553252D02*
X138821398Y-98505633D01*
X138821398Y-98505633D02*
X138845208Y-98481824D01*
X138845208Y-98481824D02*
X138892827Y-98458014D01*
X138892827Y-98458014D02*
X139011874Y-98458014D01*
X139011874Y-98458014D02*
X139083303Y-98481824D01*
X139249969Y-98458014D02*
X139369017Y-98958014D01*
X139369017Y-98958014D02*
X139464255Y-98600871D01*
X139464255Y-98600871D02*
X139559493Y-98958014D01*
X139559493Y-98958014D02*
X139678541Y-98458014D01*
X140083303Y-98624681D02*
X140083303Y-98958014D01*
X139964255Y-98434205D02*
X139845208Y-98791347D01*
X139845208Y-98791347D02*
X140154731Y-98791347D01*
X167646060Y-125728098D02*
X167719089Y-125709775D01*
X167719089Y-125709775D02*
X167819471Y-125645776D01*
X167819471Y-125645776D02*
X167846823Y-125600100D01*
X167846823Y-125600100D02*
X167854100Y-125567224D01*
X167854100Y-125567224D02*
X167848576Y-125514271D01*
X167848576Y-125514271D02*
X167822977Y-125474119D01*
X167822977Y-125474119D02*
X167777301Y-125446766D01*
X167777301Y-125446766D02*
X167744424Y-125439489D01*
X167744424Y-125439489D02*
X167691472Y-125445013D01*
X167691472Y-125445013D02*
X167598367Y-125476136D01*
X167598367Y-125476136D02*
X167545415Y-125481659D01*
X167545415Y-125481659D02*
X167512538Y-125474383D01*
X167512538Y-125474383D02*
X167466862Y-125447030D01*
X167466862Y-125447030D02*
X167441263Y-125406878D01*
X167441263Y-125406878D02*
X167435739Y-125353925D01*
X167435739Y-125353925D02*
X167443016Y-125321049D01*
X167443016Y-125321049D02*
X167470368Y-125275373D01*
X167470368Y-125275373D02*
X167570750Y-125211374D01*
X167570750Y-125211374D02*
X167643779Y-125193051D01*
X167771512Y-125083376D02*
X168140691Y-125440978D01*
X168140691Y-125440978D02*
X168028998Y-125088635D01*
X168028998Y-125088635D02*
X168301301Y-125338579D01*
X168301301Y-125338579D02*
X168132885Y-124852978D01*
X168783132Y-125031383D02*
X168542217Y-125184981D01*
X168662674Y-125108182D02*
X168393877Y-124686580D01*
X168393877Y-124686580D02*
X168392124Y-124772408D01*
X168392124Y-124772408D02*
X168377571Y-124838161D01*
X168377571Y-124838161D02*
X168350219Y-124883837D01*
X156378571Y-108025069D02*
X156211905Y-107786974D01*
X156092857Y-108025069D02*
X156092857Y-107525069D01*
X156092857Y-107525069D02*
X156283333Y-107525069D01*
X156283333Y-107525069D02*
X156330952Y-107548879D01*
X156330952Y-107548879D02*
X156354762Y-107572688D01*
X156354762Y-107572688D02*
X156378571Y-107620307D01*
X156378571Y-107620307D02*
X156378571Y-107691736D01*
X156378571Y-107691736D02*
X156354762Y-107739355D01*
X156354762Y-107739355D02*
X156330952Y-107763164D01*
X156330952Y-107763164D02*
X156283333Y-107786974D01*
X156283333Y-107786974D02*
X156092857Y-107786974D01*
X156854762Y-108025069D02*
X156569048Y-108025069D01*
X156711905Y-108025069D02*
X156711905Y-107525069D01*
X156711905Y-107525069D02*
X156664286Y-107596498D01*
X156664286Y-107596498D02*
X156616667Y-107644117D01*
X156616667Y-107644117D02*
X156569048Y-107667926D01*
X157283333Y-107691736D02*
X157283333Y-108025069D01*
X157164285Y-107501260D02*
X157045238Y-107858402D01*
X157045238Y-107858402D02*
X157354761Y-107858402D01*
X151451047Y-120368669D02*
X151451047Y-120773431D01*
X151451047Y-120773431D02*
X151474857Y-120821050D01*
X151474857Y-120821050D02*
X151498666Y-120844860D01*
X151498666Y-120844860D02*
X151546285Y-120868669D01*
X151546285Y-120868669D02*
X151641523Y-120868669D01*
X151641523Y-120868669D02*
X151689142Y-120844860D01*
X151689142Y-120844860D02*
X151712952Y-120821050D01*
X151712952Y-120821050D02*
X151736761Y-120773431D01*
X151736761Y-120773431D02*
X151736761Y-120368669D01*
X151951048Y-120416288D02*
X151974857Y-120392479D01*
X151974857Y-120392479D02*
X152022476Y-120368669D01*
X152022476Y-120368669D02*
X152141524Y-120368669D01*
X152141524Y-120368669D02*
X152189143Y-120392479D01*
X152189143Y-120392479D02*
X152212952Y-120416288D01*
X152212952Y-120416288D02*
X152236762Y-120463907D01*
X152236762Y-120463907D02*
X152236762Y-120511526D01*
X152236762Y-120511526D02*
X152212952Y-120582955D01*
X152212952Y-120582955D02*
X151927238Y-120868669D01*
X151927238Y-120868669D02*
X152236762Y-120868669D01*
X151525069Y-93721428D02*
X151286974Y-93888094D01*
X151525069Y-94007142D02*
X151025069Y-94007142D01*
X151025069Y-94007142D02*
X151025069Y-93816666D01*
X151025069Y-93816666D02*
X151048879Y-93769047D01*
X151048879Y-93769047D02*
X151072688Y-93745237D01*
X151072688Y-93745237D02*
X151120307Y-93721428D01*
X151120307Y-93721428D02*
X151191736Y-93721428D01*
X151191736Y-93721428D02*
X151239355Y-93745237D01*
X151239355Y-93745237D02*
X151263164Y-93769047D01*
X151263164Y-93769047D02*
X151286974Y-93816666D01*
X151286974Y-93816666D02*
X151286974Y-94007142D01*
X151525069Y-93245237D02*
X151525069Y-93530951D01*
X151525069Y-93388094D02*
X151025069Y-93388094D01*
X151025069Y-93388094D02*
X151096498Y-93435713D01*
X151096498Y-93435713D02*
X151144117Y-93483332D01*
X151144117Y-93483332D02*
X151167926Y-93530951D01*
X151025069Y-92792857D02*
X151025069Y-93030952D01*
X151025069Y-93030952D02*
X151263164Y-93054761D01*
X151263164Y-93054761D02*
X151239355Y-93030952D01*
X151239355Y-93030952D02*
X151215545Y-92983333D01*
X151215545Y-92983333D02*
X151215545Y-92864285D01*
X151215545Y-92864285D02*
X151239355Y-92816666D01*
X151239355Y-92816666D02*
X151263164Y-92792857D01*
X151263164Y-92792857D02*
X151310783Y-92769047D01*
X151310783Y-92769047D02*
X151429831Y-92769047D01*
X151429831Y-92769047D02*
X151477450Y-92792857D01*
X151477450Y-92792857D02*
X151501260Y-92816666D01*
X151501260Y-92816666D02*
X151525069Y-92864285D01*
X151525069Y-92864285D02*
X151525069Y-92983333D01*
X151525069Y-92983333D02*
X151501260Y-93030952D01*
X151501260Y-93030952D02*
X151477450Y-93054761D01*
X170878571Y-98425069D02*
X170711905Y-98186974D01*
X170592857Y-98425069D02*
X170592857Y-97925069D01*
X170592857Y-97925069D02*
X170783333Y-97925069D01*
X170783333Y-97925069D02*
X170830952Y-97948879D01*
X170830952Y-97948879D02*
X170854762Y-97972688D01*
X170854762Y-97972688D02*
X170878571Y-98020307D01*
X170878571Y-98020307D02*
X170878571Y-98091736D01*
X170878571Y-98091736D02*
X170854762Y-98139355D01*
X170854762Y-98139355D02*
X170830952Y-98163164D01*
X170830952Y-98163164D02*
X170783333Y-98186974D01*
X170783333Y-98186974D02*
X170592857Y-98186974D01*
X171354762Y-98425069D02*
X171069048Y-98425069D01*
X171211905Y-98425069D02*
X171211905Y-97925069D01*
X171211905Y-97925069D02*
X171164286Y-97996498D01*
X171164286Y-97996498D02*
X171116667Y-98044117D01*
X171116667Y-98044117D02*
X171069048Y-98067926D01*
X171521428Y-97925069D02*
X171854761Y-97925069D01*
X171854761Y-97925069D02*
X171640476Y-98425069D01*
X175716666Y-120525069D02*
X175550000Y-120286974D01*
X175430952Y-120525069D02*
X175430952Y-120025069D01*
X175430952Y-120025069D02*
X175621428Y-120025069D01*
X175621428Y-120025069D02*
X175669047Y-120048879D01*
X175669047Y-120048879D02*
X175692857Y-120072688D01*
X175692857Y-120072688D02*
X175716666Y-120120307D01*
X175716666Y-120120307D02*
X175716666Y-120191736D01*
X175716666Y-120191736D02*
X175692857Y-120239355D01*
X175692857Y-120239355D02*
X175669047Y-120263164D01*
X175669047Y-120263164D02*
X175621428Y-120286974D01*
X175621428Y-120286974D02*
X175430952Y-120286974D01*
X176145238Y-120025069D02*
X176050000Y-120025069D01*
X176050000Y-120025069D02*
X176002381Y-120048879D01*
X176002381Y-120048879D02*
X175978571Y-120072688D01*
X175978571Y-120072688D02*
X175930952Y-120144117D01*
X175930952Y-120144117D02*
X175907143Y-120239355D01*
X175907143Y-120239355D02*
X175907143Y-120429831D01*
X175907143Y-120429831D02*
X175930952Y-120477450D01*
X175930952Y-120477450D02*
X175954762Y-120501260D01*
X175954762Y-120501260D02*
X176002381Y-120525069D01*
X176002381Y-120525069D02*
X176097619Y-120525069D01*
X176097619Y-120525069D02*
X176145238Y-120501260D01*
X176145238Y-120501260D02*
X176169047Y-120477450D01*
X176169047Y-120477450D02*
X176192857Y-120429831D01*
X176192857Y-120429831D02*
X176192857Y-120310783D01*
X176192857Y-120310783D02*
X176169047Y-120263164D01*
X176169047Y-120263164D02*
X176145238Y-120239355D01*
X176145238Y-120239355D02*
X176097619Y-120215545D01*
X176097619Y-120215545D02*
X176002381Y-120215545D01*
X176002381Y-120215545D02*
X175954762Y-120239355D01*
X175954762Y-120239355D02*
X175930952Y-120263164D01*
X175930952Y-120263164D02*
X175907143Y-120310783D01*
X174319047Y-122725069D02*
X174319047Y-123129831D01*
X174319047Y-123129831D02*
X174342857Y-123177450D01*
X174342857Y-123177450D02*
X174366666Y-123201260D01*
X174366666Y-123201260D02*
X174414285Y-123225069D01*
X174414285Y-123225069D02*
X174509523Y-123225069D01*
X174509523Y-123225069D02*
X174557142Y-123201260D01*
X174557142Y-123201260D02*
X174580952Y-123177450D01*
X174580952Y-123177450D02*
X174604761Y-123129831D01*
X174604761Y-123129831D02*
X174604761Y-122725069D01*
X175057143Y-122891736D02*
X175057143Y-123225069D01*
X174938095Y-122701260D02*
X174819048Y-123058402D01*
X174819048Y-123058402D02*
X175128571Y-123058402D01*
X170380952Y-101225069D02*
X170380952Y-101629831D01*
X170380952Y-101629831D02*
X170404762Y-101677450D01*
X170404762Y-101677450D02*
X170428571Y-101701260D01*
X170428571Y-101701260D02*
X170476190Y-101725069D01*
X170476190Y-101725069D02*
X170571428Y-101725069D01*
X170571428Y-101725069D02*
X170619047Y-101701260D01*
X170619047Y-101701260D02*
X170642857Y-101677450D01*
X170642857Y-101677450D02*
X170666666Y-101629831D01*
X170666666Y-101629831D02*
X170666666Y-101225069D01*
X171166667Y-101725069D02*
X170880953Y-101725069D01*
X171023810Y-101725069D02*
X171023810Y-101225069D01*
X171023810Y-101225069D02*
X170976191Y-101296498D01*
X170976191Y-101296498D02*
X170928572Y-101344117D01*
X170928572Y-101344117D02*
X170880953Y-101367926D01*
X171476190Y-101225069D02*
X171523809Y-101225069D01*
X171523809Y-101225069D02*
X171571428Y-101248879D01*
X171571428Y-101248879D02*
X171595238Y-101272688D01*
X171595238Y-101272688D02*
X171619047Y-101320307D01*
X171619047Y-101320307D02*
X171642857Y-101415545D01*
X171642857Y-101415545D02*
X171642857Y-101534593D01*
X171642857Y-101534593D02*
X171619047Y-101629831D01*
X171619047Y-101629831D02*
X171595238Y-101677450D01*
X171595238Y-101677450D02*
X171571428Y-101701260D01*
X171571428Y-101701260D02*
X171523809Y-101725069D01*
X171523809Y-101725069D02*
X171476190Y-101725069D01*
X171476190Y-101725069D02*
X171428571Y-101701260D01*
X171428571Y-101701260D02*
X171404762Y-101677450D01*
X171404762Y-101677450D02*
X171380952Y-101629831D01*
X171380952Y-101629831D02*
X171357143Y-101534593D01*
X171357143Y-101534593D02*
X171357143Y-101415545D01*
X171357143Y-101415545D02*
X171380952Y-101320307D01*
X171380952Y-101320307D02*
X171404762Y-101272688D01*
X171404762Y-101272688D02*
X171428571Y-101248879D01*
X171428571Y-101248879D02*
X171476190Y-101225069D01*
X178477450Y-100421428D02*
X178501260Y-100445237D01*
X178501260Y-100445237D02*
X178525069Y-100516666D01*
X178525069Y-100516666D02*
X178525069Y-100564285D01*
X178525069Y-100564285D02*
X178501260Y-100635713D01*
X178501260Y-100635713D02*
X178453640Y-100683332D01*
X178453640Y-100683332D02*
X178406021Y-100707142D01*
X178406021Y-100707142D02*
X178310783Y-100730951D01*
X178310783Y-100730951D02*
X178239355Y-100730951D01*
X178239355Y-100730951D02*
X178144117Y-100707142D01*
X178144117Y-100707142D02*
X178096498Y-100683332D01*
X178096498Y-100683332D02*
X178048879Y-100635713D01*
X178048879Y-100635713D02*
X178025069Y-100564285D01*
X178025069Y-100564285D02*
X178025069Y-100516666D01*
X178025069Y-100516666D02*
X178048879Y-100445237D01*
X178048879Y-100445237D02*
X178072688Y-100421428D01*
X178525069Y-99945237D02*
X178525069Y-100230951D01*
X178525069Y-100088094D02*
X178025069Y-100088094D01*
X178025069Y-100088094D02*
X178096498Y-100135713D01*
X178096498Y-100135713D02*
X178144117Y-100183332D01*
X178144117Y-100183332D02*
X178167926Y-100230951D01*
X178025069Y-99778571D02*
X178025069Y-99445238D01*
X178025069Y-99445238D02*
X178525069Y-99659523D01*
D11*
X159896256Y-126929309D02*
X159896256Y-127253119D01*
X159896256Y-127253119D02*
X159915303Y-127291214D01*
X159915303Y-127291214D02*
X159934351Y-127310262D01*
X159934351Y-127310262D02*
X159972446Y-127329309D01*
X159972446Y-127329309D02*
X160048637Y-127329309D01*
X160048637Y-127329309D02*
X160086732Y-127310262D01*
X160086732Y-127310262D02*
X160105779Y-127291214D01*
X160105779Y-127291214D02*
X160124827Y-127253119D01*
X160124827Y-127253119D02*
X160124827Y-126929309D01*
X160277208Y-126929309D02*
X160543875Y-126929309D01*
X160543875Y-126929309D02*
X160372446Y-127329309D01*
D10*
X179433334Y-97601260D02*
X179504762Y-97625069D01*
X179504762Y-97625069D02*
X179623810Y-97625069D01*
X179623810Y-97625069D02*
X179671429Y-97601260D01*
X179671429Y-97601260D02*
X179695238Y-97577450D01*
X179695238Y-97577450D02*
X179719048Y-97529831D01*
X179719048Y-97529831D02*
X179719048Y-97482212D01*
X179719048Y-97482212D02*
X179695238Y-97434593D01*
X179695238Y-97434593D02*
X179671429Y-97410783D01*
X179671429Y-97410783D02*
X179623810Y-97386974D01*
X179623810Y-97386974D02*
X179528572Y-97363164D01*
X179528572Y-97363164D02*
X179480953Y-97339355D01*
X179480953Y-97339355D02*
X179457143Y-97315545D01*
X179457143Y-97315545D02*
X179433334Y-97267926D01*
X179433334Y-97267926D02*
X179433334Y-97220307D01*
X179433334Y-97220307D02*
X179457143Y-97172688D01*
X179457143Y-97172688D02*
X179480953Y-97148879D01*
X179480953Y-97148879D02*
X179528572Y-97125069D01*
X179528572Y-97125069D02*
X179647619Y-97125069D01*
X179647619Y-97125069D02*
X179719048Y-97148879D01*
X179885714Y-97125069D02*
X180004762Y-97625069D01*
X180004762Y-97625069D02*
X180100000Y-97267926D01*
X180100000Y-97267926D02*
X180195238Y-97625069D01*
X180195238Y-97625069D02*
X180314286Y-97125069D01*
X180457143Y-97125069D02*
X180766667Y-97125069D01*
X180766667Y-97125069D02*
X180600000Y-97315545D01*
X180600000Y-97315545D02*
X180671429Y-97315545D01*
X180671429Y-97315545D02*
X180719048Y-97339355D01*
X180719048Y-97339355D02*
X180742857Y-97363164D01*
X180742857Y-97363164D02*
X180766667Y-97410783D01*
X180766667Y-97410783D02*
X180766667Y-97529831D01*
X180766667Y-97529831D02*
X180742857Y-97577450D01*
X180742857Y-97577450D02*
X180719048Y-97601260D01*
X180719048Y-97601260D02*
X180671429Y-97625069D01*
X180671429Y-97625069D02*
X180528572Y-97625069D01*
X180528572Y-97625069D02*
X180480953Y-97601260D01*
X180480953Y-97601260D02*
X180457143Y-97577450D01*
X169177450Y-95083333D02*
X169201260Y-95107142D01*
X169201260Y-95107142D02*
X169225069Y-95178571D01*
X169225069Y-95178571D02*
X169225069Y-95226190D01*
X169225069Y-95226190D02*
X169201260Y-95297618D01*
X169201260Y-95297618D02*
X169153640Y-95345237D01*
X169153640Y-95345237D02*
X169106021Y-95369047D01*
X169106021Y-95369047D02*
X169010783Y-95392856D01*
X169010783Y-95392856D02*
X168939355Y-95392856D01*
X168939355Y-95392856D02*
X168844117Y-95369047D01*
X168844117Y-95369047D02*
X168796498Y-95345237D01*
X168796498Y-95345237D02*
X168748879Y-95297618D01*
X168748879Y-95297618D02*
X168725069Y-95226190D01*
X168725069Y-95226190D02*
X168725069Y-95178571D01*
X168725069Y-95178571D02*
X168748879Y-95107142D01*
X168748879Y-95107142D02*
X168772688Y-95083333D01*
X168772688Y-94892856D02*
X168748879Y-94869047D01*
X168748879Y-94869047D02*
X168725069Y-94821428D01*
X168725069Y-94821428D02*
X168725069Y-94702380D01*
X168725069Y-94702380D02*
X168748879Y-94654761D01*
X168748879Y-94654761D02*
X168772688Y-94630952D01*
X168772688Y-94630952D02*
X168820307Y-94607142D01*
X168820307Y-94607142D02*
X168867926Y-94607142D01*
X168867926Y-94607142D02*
X168939355Y-94630952D01*
X168939355Y-94630952D02*
X169225069Y-94916666D01*
X169225069Y-94916666D02*
X169225069Y-94607142D01*
X160516666Y-110025069D02*
X160350000Y-109786974D01*
X160230952Y-110025069D02*
X160230952Y-109525069D01*
X160230952Y-109525069D02*
X160421428Y-109525069D01*
X160421428Y-109525069D02*
X160469047Y-109548879D01*
X160469047Y-109548879D02*
X160492857Y-109572688D01*
X160492857Y-109572688D02*
X160516666Y-109620307D01*
X160516666Y-109620307D02*
X160516666Y-109691736D01*
X160516666Y-109691736D02*
X160492857Y-109739355D01*
X160492857Y-109739355D02*
X160469047Y-109763164D01*
X160469047Y-109763164D02*
X160421428Y-109786974D01*
X160421428Y-109786974D02*
X160230952Y-109786974D01*
X160707143Y-109572688D02*
X160730952Y-109548879D01*
X160730952Y-109548879D02*
X160778571Y-109525069D01*
X160778571Y-109525069D02*
X160897619Y-109525069D01*
X160897619Y-109525069D02*
X160945238Y-109548879D01*
X160945238Y-109548879D02*
X160969047Y-109572688D01*
X160969047Y-109572688D02*
X160992857Y-109620307D01*
X160992857Y-109620307D02*
X160992857Y-109667926D01*
X160992857Y-109667926D02*
X160969047Y-109739355D01*
X160969047Y-109739355D02*
X160683333Y-110025069D01*
X160683333Y-110025069D02*
X160992857Y-110025069D01*
X171888285Y-93453017D02*
X171888285Y-93841588D01*
X171888285Y-93841588D02*
X171911142Y-93887302D01*
X171911142Y-93887302D02*
X171934000Y-93910160D01*
X171934000Y-93910160D02*
X171979714Y-93933017D01*
X171979714Y-93933017D02*
X172071142Y-93933017D01*
X172071142Y-93933017D02*
X172116857Y-93910160D01*
X172116857Y-93910160D02*
X172139714Y-93887302D01*
X172139714Y-93887302D02*
X172162571Y-93841588D01*
X172162571Y-93841588D02*
X172162571Y-93453017D01*
X172413999Y-93933017D02*
X172505428Y-93933017D01*
X172505428Y-93933017D02*
X172551142Y-93910160D01*
X172551142Y-93910160D02*
X172573999Y-93887302D01*
X172573999Y-93887302D02*
X172619714Y-93818731D01*
X172619714Y-93818731D02*
X172642571Y-93727302D01*
X172642571Y-93727302D02*
X172642571Y-93544445D01*
X172642571Y-93544445D02*
X172619714Y-93498731D01*
X172619714Y-93498731D02*
X172596857Y-93475874D01*
X172596857Y-93475874D02*
X172551142Y-93453017D01*
X172551142Y-93453017D02*
X172459714Y-93453017D01*
X172459714Y-93453017D02*
X172413999Y-93475874D01*
X172413999Y-93475874D02*
X172391142Y-93498731D01*
X172391142Y-93498731D02*
X172368285Y-93544445D01*
X172368285Y-93544445D02*
X172368285Y-93658731D01*
X172368285Y-93658731D02*
X172391142Y-93704445D01*
X172391142Y-93704445D02*
X172413999Y-93727302D01*
X172413999Y-93727302D02*
X172459714Y-93750160D01*
X172459714Y-93750160D02*
X172551142Y-93750160D01*
X172551142Y-93750160D02*
X172596857Y-93727302D01*
X172596857Y-93727302D02*
X172619714Y-93704445D01*
X172619714Y-93704445D02*
X172642571Y-93658731D01*
X163221450Y-124164428D02*
X163245260Y-124188237D01*
X163245260Y-124188237D02*
X163269069Y-124259666D01*
X163269069Y-124259666D02*
X163269069Y-124307285D01*
X163269069Y-124307285D02*
X163245260Y-124378713D01*
X163245260Y-124378713D02*
X163197640Y-124426332D01*
X163197640Y-124426332D02*
X163150021Y-124450142D01*
X163150021Y-124450142D02*
X163054783Y-124473951D01*
X163054783Y-124473951D02*
X162983355Y-124473951D01*
X162983355Y-124473951D02*
X162888117Y-124450142D01*
X162888117Y-124450142D02*
X162840498Y-124426332D01*
X162840498Y-124426332D02*
X162792879Y-124378713D01*
X162792879Y-124378713D02*
X162769069Y-124307285D01*
X162769069Y-124307285D02*
X162769069Y-124259666D01*
X162769069Y-124259666D02*
X162792879Y-124188237D01*
X162792879Y-124188237D02*
X162816688Y-124164428D01*
X163269069Y-123688237D02*
X163269069Y-123973951D01*
X163269069Y-123831094D02*
X162769069Y-123831094D01*
X162769069Y-123831094D02*
X162840498Y-123878713D01*
X162840498Y-123878713D02*
X162888117Y-123926332D01*
X162888117Y-123926332D02*
X162911926Y-123973951D01*
X162769069Y-123378714D02*
X162769069Y-123331095D01*
X162769069Y-123331095D02*
X162792879Y-123283476D01*
X162792879Y-123283476D02*
X162816688Y-123259666D01*
X162816688Y-123259666D02*
X162864307Y-123235857D01*
X162864307Y-123235857D02*
X162959545Y-123212047D01*
X162959545Y-123212047D02*
X163078593Y-123212047D01*
X163078593Y-123212047D02*
X163173831Y-123235857D01*
X163173831Y-123235857D02*
X163221450Y-123259666D01*
X163221450Y-123259666D02*
X163245260Y-123283476D01*
X163245260Y-123283476D02*
X163269069Y-123331095D01*
X163269069Y-123331095D02*
X163269069Y-123378714D01*
X163269069Y-123378714D02*
X163245260Y-123426333D01*
X163245260Y-123426333D02*
X163221450Y-123450142D01*
X163221450Y-123450142D02*
X163173831Y-123473952D01*
X163173831Y-123473952D02*
X163078593Y-123497761D01*
X163078593Y-123497761D02*
X162959545Y-123497761D01*
X162959545Y-123497761D02*
X162864307Y-123473952D01*
X162864307Y-123473952D02*
X162816688Y-123450142D01*
X162816688Y-123450142D02*
X162792879Y-123426333D01*
X162792879Y-123426333D02*
X162769069Y-123378714D01*
X177378571Y-120525069D02*
X177211905Y-120286974D01*
X177092857Y-120525069D02*
X177092857Y-120025069D01*
X177092857Y-120025069D02*
X177283333Y-120025069D01*
X177283333Y-120025069D02*
X177330952Y-120048879D01*
X177330952Y-120048879D02*
X177354762Y-120072688D01*
X177354762Y-120072688D02*
X177378571Y-120120307D01*
X177378571Y-120120307D02*
X177378571Y-120191736D01*
X177378571Y-120191736D02*
X177354762Y-120239355D01*
X177354762Y-120239355D02*
X177330952Y-120263164D01*
X177330952Y-120263164D02*
X177283333Y-120286974D01*
X177283333Y-120286974D02*
X177092857Y-120286974D01*
X177569048Y-120072688D02*
X177592857Y-120048879D01*
X177592857Y-120048879D02*
X177640476Y-120025069D01*
X177640476Y-120025069D02*
X177759524Y-120025069D01*
X177759524Y-120025069D02*
X177807143Y-120048879D01*
X177807143Y-120048879D02*
X177830952Y-120072688D01*
X177830952Y-120072688D02*
X177854762Y-120120307D01*
X177854762Y-120120307D02*
X177854762Y-120167926D01*
X177854762Y-120167926D02*
X177830952Y-120239355D01*
X177830952Y-120239355D02*
X177545238Y-120525069D01*
X177545238Y-120525069D02*
X177854762Y-120525069D01*
X178164285Y-120025069D02*
X178211904Y-120025069D01*
X178211904Y-120025069D02*
X178259523Y-120048879D01*
X178259523Y-120048879D02*
X178283333Y-120072688D01*
X178283333Y-120072688D02*
X178307142Y-120120307D01*
X178307142Y-120120307D02*
X178330952Y-120215545D01*
X178330952Y-120215545D02*
X178330952Y-120334593D01*
X178330952Y-120334593D02*
X178307142Y-120429831D01*
X178307142Y-120429831D02*
X178283333Y-120477450D01*
X178283333Y-120477450D02*
X178259523Y-120501260D01*
X178259523Y-120501260D02*
X178211904Y-120525069D01*
X178211904Y-120525069D02*
X178164285Y-120525069D01*
X178164285Y-120525069D02*
X178116666Y-120501260D01*
X178116666Y-120501260D02*
X178092857Y-120477450D01*
X178092857Y-120477450D02*
X178069047Y-120429831D01*
X178069047Y-120429831D02*
X178045238Y-120334593D01*
X178045238Y-120334593D02*
X178045238Y-120215545D01*
X178045238Y-120215545D02*
X178069047Y-120120307D01*
X178069047Y-120120307D02*
X178092857Y-120072688D01*
X178092857Y-120072688D02*
X178116666Y-120048879D01*
X178116666Y-120048879D02*
X178164285Y-120025069D01*
X175980000Y-95046359D02*
X175980000Y-95353641D01*
X175220000Y-95046359D02*
X175220000Y-95353641D01*
X161553641Y-106480000D02*
X161246359Y-106480000D01*
X161553641Y-105720000D02*
X161246359Y-105720000D01*
X164753641Y-127680000D02*
X164446359Y-127680000D01*
X164753641Y-126920000D02*
X164446359Y-126920000D01*
X174960000Y-95092164D02*
X174960000Y-95307836D01*
X174240000Y-95092164D02*
X174240000Y-95307836D01*
D14*
X164875000Y-103775000D02*
X162650000Y-103775000D01*
X164875000Y-90000000D02*
X164875000Y-89625000D01*
X164875000Y-89625000D02*
X155125000Y-89625000D01*
X157350000Y-103775000D02*
X155125000Y-103775000D01*
X155125000Y-89625000D02*
X155125000Y-90000000D01*
D15*
X166800000Y-102900000D02*
G75*
G03*
X166800000Y-102900000I-100000J0D01*
G01*
D16*
X171587500Y-124500000D02*
G75*
G03*
X171587500Y-124500000I-62500J0D01*
G01*
D10*
X176530000Y-123930000D02*
X176530000Y-122600000D01*
X177860000Y-123930000D02*
X176530000Y-123930000D01*
X179130000Y-123930000D02*
X181730000Y-123930000D01*
X179130000Y-123930000D02*
X179130000Y-121270000D01*
X181730000Y-123930000D02*
X181730000Y-121270000D01*
X179130000Y-121270000D02*
X181730000Y-121270000D01*
X154246359Y-125820000D02*
X154553641Y-125820000D01*
X154246359Y-126580000D02*
X154553641Y-126580000D01*
X174392164Y-105040000D02*
X174607836Y-105040000D01*
X174392164Y-105760000D02*
X174607836Y-105760000D01*
X153960000Y-123092164D02*
X153960000Y-123307836D01*
X153240000Y-123092164D02*
X153240000Y-123307836D01*
D13*
X141650000Y-115760000D02*
X141650000Y-116560000D01*
X142350000Y-116160000D02*
X141650000Y-115760000D01*
X141650000Y-116560000D02*
X142350000Y-116160000D01*
X148700000Y-116980000D02*
X148700000Y-121040000D01*
X148075000Y-116980000D02*
X148700000Y-116980000D01*
X145495000Y-116980000D02*
X145725000Y-116980000D01*
X145495000Y-117280000D02*
X145495000Y-116980000D01*
X143350000Y-117280000D02*
X145495000Y-117280000D01*
X137150000Y-117280000D02*
X140800000Y-117280000D01*
X145495000Y-120740000D02*
X143350000Y-120740000D01*
X145495000Y-120740000D02*
X145495000Y-121040000D01*
X140800000Y-120740000D02*
X137150000Y-120740000D01*
X148700000Y-121040000D02*
X148075000Y-121040000D01*
X145725000Y-121040000D02*
X145495000Y-121040000D01*
D10*
X169220000Y-121353641D02*
X169220000Y-121046359D01*
X169980000Y-121353641D02*
X169980000Y-121046359D01*
D14*
X147200000Y-124400000D02*
X145600000Y-124400000D01*
X147200000Y-121200000D02*
X147200000Y-124400000D01*
X145600000Y-124400000D02*
X145600000Y-123800000D01*
X145600000Y-124400000D02*
X144800000Y-124400000D01*
X145600000Y-123800000D02*
X144800000Y-123800000D01*
X144800000Y-124400000D02*
X143200000Y-124400000D01*
X144800000Y-123800000D02*
X144800000Y-124400000D01*
X143200000Y-124400000D02*
X143200000Y-121200000D01*
X143200000Y-121200000D02*
X147200000Y-121200000D01*
D10*
X168360000Y-96292164D02*
X168360000Y-96507836D01*
X167640000Y-96292164D02*
X167640000Y-96507836D01*
D14*
X179600000Y-101030000D02*
X182400000Y-101030000D01*
X182400000Y-104170000D02*
X179600000Y-104170000D01*
D17*
X179220000Y-101400000D02*
G75*
G03*
X179220000Y-101400000I-100000J0D01*
G01*
D10*
X158480000Y-109446359D02*
X158480000Y-109753641D01*
X157720000Y-109446359D02*
X157720000Y-109753641D01*
D14*
X163650000Y-106137500D02*
X164380000Y-106137500D01*
X178250000Y-106337500D02*
X178250000Y-118437500D01*
X163650000Y-107037500D02*
X163650000Y-106137500D01*
X163650000Y-118737500D02*
X163650000Y-117492500D01*
X163650000Y-118737500D02*
X164380000Y-118737500D01*
D17*
X175850000Y-105337500D02*
G75*
G03*
X175850000Y-105337500I-100000J0D01*
G01*
D10*
X160753641Y-108380000D02*
X160446359Y-108380000D01*
X160753641Y-107620000D02*
X160446359Y-107620000D01*
X161492164Y-119640000D02*
X161707836Y-119640000D01*
X161492164Y-120360000D02*
X161707836Y-120360000D01*
X158953641Y-120780000D02*
X158646359Y-120780000D01*
X158953641Y-120020000D02*
X158646359Y-120020000D01*
X144933641Y-94995000D02*
X144626359Y-94995000D01*
X144933641Y-94235000D02*
X144626359Y-94235000D01*
D14*
X151060571Y-125482758D02*
X152298408Y-126271924D01*
X150766308Y-128675082D02*
X149528471Y-127885915D01*
D10*
X161604000Y-126234836D02*
X161604000Y-126019164D01*
X162324000Y-126234836D02*
X162324000Y-126019164D01*
X159106000Y-126819164D02*
X159106000Y-127034836D01*
X158386000Y-126819164D02*
X158386000Y-127034836D01*
X167440000Y-103107836D02*
X167440000Y-102892164D01*
X168160000Y-103107836D02*
X168160000Y-102892164D01*
X174953641Y-98580000D02*
X174646359Y-98580000D01*
X174953641Y-97820000D02*
X174646359Y-97820000D01*
D14*
X160951000Y-124373000D02*
X160950000Y-124373000D01*
X160251000Y-123773000D02*
X160059000Y-123773000D01*
X160231500Y-125072500D02*
X160070500Y-125073500D01*
X159451000Y-124373000D02*
X159451000Y-124373000D01*
D17*
X161235000Y-124715000D02*
G75*
G03*
X161235000Y-124715000I-100000J0D01*
G01*
D10*
X158286000Y-124234836D02*
X158286000Y-124019164D01*
X159006000Y-124234836D02*
X159006000Y-124019164D01*
X170753641Y-105380000D02*
X170446359Y-105380000D01*
X170753641Y-104620000D02*
X170446359Y-104620000D01*
D17*
X151725000Y-100700000D02*
X151725000Y-114300000D01*
X149225000Y-100700000D02*
X151725000Y-100700000D01*
X137275000Y-100700000D02*
X138225000Y-100700000D01*
X137275000Y-100700000D02*
X137275000Y-102250000D01*
X137275000Y-112750000D02*
X137275000Y-114300000D01*
X149225000Y-114300000D02*
X151725000Y-114300000D01*
X137275000Y-114300000D02*
X138225000Y-114300000D01*
X137274999Y-112750000D02*
G75*
G03*
X137274999Y-102250000I-9038540J5250000D01*
G01*
X141900000Y-111700000D02*
G75*
G03*
X141900000Y-111700000I-100000J0D01*
G01*
D10*
X148640000Y-123107836D02*
X148640000Y-122892164D01*
X149360000Y-123107836D02*
X149360000Y-122892164D01*
X161553641Y-111580000D02*
X161246359Y-111580000D01*
X161553641Y-110820000D02*
X161246359Y-110820000D01*
X174960000Y-121092164D02*
X174960000Y-121307836D01*
X174240000Y-121092164D02*
X174240000Y-121307836D01*
D14*
X160100000Y-114200000D02*
X160100000Y-118200000D01*
X155100000Y-114200000D02*
X155100000Y-118200000D01*
D17*
X160205000Y-111845000D02*
G75*
G03*
X160205000Y-111845000I-100000J0D01*
G01*
D10*
X169153641Y-123180000D02*
X168846359Y-123180000D01*
X169153641Y-122420000D02*
X168846359Y-122420000D01*
D14*
X140834000Y-96750000D02*
X139366000Y-96750000D01*
X139366000Y-93900000D02*
X140834000Y-93900000D01*
X167701577Y-126271948D02*
X168939400Y-125482760D01*
X170471543Y-127885891D02*
X169233720Y-128675079D01*
D10*
X158653641Y-108280000D02*
X158346359Y-108280000D01*
X158653641Y-107520000D02*
X158346359Y-107520000D01*
D14*
X150450000Y-121400000D02*
X150730000Y-121400000D01*
X150450000Y-123300000D02*
X150730000Y-123300000D01*
X151950000Y-121400000D02*
X151670000Y-121400000D01*
X151950000Y-123300000D02*
X151670000Y-123300000D01*
D17*
X149720000Y-121750000D02*
G75*
G03*
X149720000Y-121750000I-100000J0D01*
G01*
D10*
X152880000Y-93246359D02*
X152880000Y-93553641D01*
X152120000Y-93246359D02*
X152120000Y-93553641D01*
X172646359Y-97820000D02*
X172953641Y-97820000D01*
X172646359Y-98580000D02*
X172953641Y-98580000D01*
X175953641Y-119780000D02*
X175646359Y-119780000D01*
X175953641Y-119020000D02*
X175646359Y-119020000D01*
X173100000Y-120190000D02*
X171300000Y-120190000D01*
X171300000Y-123410000D02*
X173750000Y-123410000D01*
X169450000Y-102137500D02*
X169450000Y-102137500D01*
X169450000Y-103837500D02*
X169450000Y-103837500D01*
X169450000Y-104337500D02*
X169450000Y-103837500D01*
X169950000Y-102137500D02*
X169450000Y-102137500D01*
X169950000Y-104337500D02*
X169450000Y-104337500D01*
X171150000Y-102137500D02*
X171650000Y-102137500D01*
X171150000Y-104337500D02*
X171150000Y-104337500D01*
X171650000Y-102137500D02*
X171650000Y-102637500D01*
X171650000Y-102637500D02*
X171650000Y-102637500D01*
X171650000Y-103837500D02*
X171650000Y-104337500D01*
X171650000Y-104337500D02*
X171150000Y-104337500D01*
X178660000Y-101692164D02*
X178660000Y-101907836D01*
X177940000Y-101692164D02*
X177940000Y-101907836D01*
D14*
X160964000Y-126073000D02*
X160963000Y-126073000D01*
X160264000Y-125473000D02*
X160072000Y-125473000D01*
X160244500Y-126772500D02*
X160083500Y-126773500D01*
X159464000Y-126073000D02*
X159464000Y-126073000D01*
D17*
X161248000Y-126415000D02*
G75*
G03*
X161248000Y-126415000I-100000J0D01*
G01*
D14*
X180634000Y-96750000D02*
X179166000Y-96750000D01*
X179166000Y-93900000D02*
X180634000Y-93900000D01*
D10*
X169360000Y-96292164D02*
X169360000Y-96507836D01*
X168640000Y-96292164D02*
X168640000Y-96507836D01*
X160753641Y-109380000D02*
X160446359Y-109380000D01*
X160753641Y-108620000D02*
X160446359Y-108620000D01*
D18*
X171136400Y-97222400D02*
X172863600Y-97222400D01*
X172863600Y-94377600D02*
X171136400Y-94377600D01*
D19*
X170150000Y-94800000D02*
G75*
G03*
X170150000Y-94800000I-50000J0D01*
G01*
D10*
X161586000Y-124334836D02*
X161586000Y-124119164D01*
X162306000Y-124334836D02*
X162306000Y-124119164D01*
X177953641Y-119780000D02*
X177646359Y-119780000D01*
X177953641Y-119020000D02*
X177646359Y-119020000D01*
M02*
