G04 #@! TF.GenerationSoftware,KiCad,Pcbnew,7.0.8-7.0.8~ubuntu22.04.1*
G04 #@! TF.CreationDate,2023-10-27T20:54:45-04:00*
G04 #@! TF.ProjectId,osw,6f73772e-6b69-4636-9164-5f7063625858,4.0*
G04 #@! TF.SameCoordinates,Original*
G04 #@! TF.FileFunction,Paste,Top*
G04 #@! TF.FilePolarity,Positive*
%FSLAX46Y46*%
G04 Gerber Fmt 4.6, Leading zero omitted, Abs format (unit mm)*
G04 Created by KiCad (PCBNEW 7.0.8-7.0.8~ubuntu22.04.1) date 2023-10-27 20:54:45*
%MOMM*%
%LPD*%
G01*
G04 APERTURE LIST*
G04 Aperture macros list*
%AMRoundRect*
0 Rectangle with rounded corners*
0 $1 Rounding radius*
0 $2 $3 $4 $5 $6 $7 $8 $9 X,Y pos of 4 corners*
0 Add a 4 corners polygon primitive as box body*
4,1,4,$2,$3,$4,$5,$6,$7,$8,$9,$2,$3,0*
0 Add four circle primitives for the rounded corners*
1,1,$1+$1,$2,$3*
1,1,$1+$1,$4,$5*
1,1,$1+$1,$6,$7*
1,1,$1+$1,$8,$9*
0 Add four rect primitives between the rounded corners*
20,1,$1+$1,$2,$3,$4,$5,0*
20,1,$1+$1,$4,$5,$6,$7,0*
20,1,$1+$1,$6,$7,$8,$9,0*
20,1,$1+$1,$8,$9,$2,$3,0*%
%AMRotRect*
0 Rectangle, with rotation*
0 The origin of the aperture is its center*
0 $1 length*
0 $2 width*
0 $3 Rotation angle, in degrees counterclockwise*
0 Add horizontal line*
21,1,$1,$2,0,0,$3*%
G04 Aperture macros list end*
%ADD10C,0.010000*%
%ADD11C,0.001000*%
%ADD12RoundRect,0.135000X-0.185000X0.135000X-0.185000X-0.135000X0.185000X-0.135000X0.185000X0.135000X0*%
%ADD13RoundRect,0.135000X0.135000X0.185000X-0.135000X0.185000X-0.135000X-0.185000X0.135000X-0.185000X0*%
%ADD14RoundRect,0.140000X-0.170000X0.140000X-0.170000X-0.140000X0.170000X-0.140000X0.170000X0.140000X0*%
%ADD15R,0.275000X0.400000*%
%ADD16RoundRect,0.135000X-0.135000X-0.185000X0.135000X-0.185000X0.135000X0.185000X-0.135000X0.185000X0*%
%ADD17RoundRect,0.140000X-0.140000X-0.170000X0.140000X-0.170000X0.140000X0.170000X-0.140000X0.170000X0*%
%ADD18RoundRect,0.135000X0.185000X-0.135000X0.185000X0.135000X-0.185000X0.135000X-0.185000X-0.135000X0*%
%ADD19R,0.800000X0.550000*%
%ADD20R,0.500000X0.400000*%
%ADD21R,0.400000X0.500000*%
%ADD22R,0.500000X0.800000*%
%ADD23R,0.800000X0.500000*%
%ADD24R,1.000000X1.000000*%
%ADD25RotRect,1.400000X1.050000X327.481000*%
%ADD26RoundRect,0.140000X0.170000X-0.140000X0.170000X0.140000X-0.170000X0.140000X-0.170000X-0.140000X0*%
%ADD27RotRect,0.480000X0.480000X135.000000*%
%ADD28R,1.200000X0.800000*%
%ADD29R,2.000000X1.500000*%
%ADD30RoundRect,0.090000X-0.210000X0.865000X-0.210000X-0.865000X0.210000X-0.865000X0.210000X0.865000X0*%
%ADD31R,1.400000X1.050000*%
%ADD32RotRect,1.400000X1.050000X32.520000*%
%ADD33RoundRect,0.007500X-0.267500X-0.117500X0.267500X-0.117500X0.267500X0.117500X-0.267500X0.117500X0*%
%ADD34RoundRect,0.006000X-0.269000X-0.094000X0.269000X-0.094000X0.269000X0.094000X-0.269000X0.094000X0*%
%ADD35RoundRect,0.012000X0.138000X-0.288000X0.138000X0.288000X-0.138000X0.288000X-0.138000X-0.288000X0*%
%ADD36R,1.060000X0.650000*%
%ADD37R,0.375000X0.350000*%
%ADD38R,0.350000X0.375000*%
%ADD39R,0.575000X0.250000*%
G04 APERTURE END LIST*
D10*
X166275000Y-103250000D02*
X163825000Y-103250000D01*
X163825000Y-102550000D01*
X166275000Y-102550000D01*
X166275000Y-103250000D01*
G36*
X166275000Y-103250000D02*
G01*
X163825000Y-103250000D01*
X163825000Y-102550000D01*
X166275000Y-102550000D01*
X166275000Y-103250000D01*
G37*
X166275000Y-102250000D02*
X163825000Y-102250000D01*
X163825000Y-101550000D01*
X166275000Y-101550000D01*
X166275000Y-102250000D01*
G36*
X166275000Y-102250000D02*
G01*
X163825000Y-102250000D01*
X163825000Y-101550000D01*
X166275000Y-101550000D01*
X166275000Y-102250000D01*
G37*
X166275000Y-101250000D02*
X163825000Y-101250000D01*
X163825000Y-100550000D01*
X166275000Y-100550000D01*
X166275000Y-101250000D01*
G36*
X166275000Y-101250000D02*
G01*
X163825000Y-101250000D01*
X163825000Y-100550000D01*
X166275000Y-100550000D01*
X166275000Y-101250000D01*
G37*
X166275000Y-100250000D02*
X163825000Y-100250000D01*
X163825000Y-99550000D01*
X166275000Y-99550000D01*
X166275000Y-100250000D01*
G36*
X166275000Y-100250000D02*
G01*
X163825000Y-100250000D01*
X163825000Y-99550000D01*
X166275000Y-99550000D01*
X166275000Y-100250000D01*
G37*
X166275000Y-99250000D02*
X163825000Y-99250000D01*
X163825000Y-98550000D01*
X166275000Y-98550000D01*
X166275000Y-99250000D01*
G36*
X166275000Y-99250000D02*
G01*
X163825000Y-99250000D01*
X163825000Y-98550000D01*
X166275000Y-98550000D01*
X166275000Y-99250000D01*
G37*
X166275000Y-98250000D02*
X163825000Y-98250000D01*
X163825000Y-97550000D01*
X166275000Y-97550000D01*
X166275000Y-98250000D01*
G36*
X166275000Y-98250000D02*
G01*
X163825000Y-98250000D01*
X163825000Y-97550000D01*
X166275000Y-97550000D01*
X166275000Y-98250000D01*
G37*
X166275000Y-97250000D02*
X163825000Y-97250000D01*
X163825000Y-96550000D01*
X166275000Y-96550000D01*
X166275000Y-97250000D01*
G36*
X166275000Y-97250000D02*
G01*
X163825000Y-97250000D01*
X163825000Y-96550000D01*
X166275000Y-96550000D01*
X166275000Y-97250000D01*
G37*
X166275000Y-96250000D02*
X163825000Y-96250000D01*
X163825000Y-95550000D01*
X166275000Y-95550000D01*
X166275000Y-96250000D01*
G36*
X166275000Y-96250000D02*
G01*
X163825000Y-96250000D01*
X163825000Y-95550000D01*
X166275000Y-95550000D01*
X166275000Y-96250000D01*
G37*
X166275000Y-95250000D02*
X163825000Y-95250000D01*
X163825000Y-94550000D01*
X166275000Y-94550000D01*
X166275000Y-95250000D01*
G36*
X166275000Y-95250000D02*
G01*
X163825000Y-95250000D01*
X163825000Y-94550000D01*
X166275000Y-94550000D01*
X166275000Y-95250000D01*
G37*
X166275000Y-94250000D02*
X163825000Y-94250000D01*
X163825000Y-93550000D01*
X166275000Y-93550000D01*
X166275000Y-94250000D01*
G36*
X166275000Y-94250000D02*
G01*
X163825000Y-94250000D01*
X163825000Y-93550000D01*
X166275000Y-93550000D01*
X166275000Y-94250000D01*
G37*
X166275000Y-93250000D02*
X163825000Y-93250000D01*
X163825000Y-92550000D01*
X166275000Y-92550000D01*
X166275000Y-93250000D01*
G36*
X166275000Y-93250000D02*
G01*
X163825000Y-93250000D01*
X163825000Y-92550000D01*
X166275000Y-92550000D01*
X166275000Y-93250000D01*
G37*
X166275000Y-92250000D02*
X163825000Y-92250000D01*
X163825000Y-91550000D01*
X166275000Y-91550000D01*
X166275000Y-92250000D01*
G36*
X166275000Y-92250000D02*
G01*
X163825000Y-92250000D01*
X163825000Y-91550000D01*
X166275000Y-91550000D01*
X166275000Y-92250000D01*
G37*
X166275000Y-91100000D02*
X163825000Y-91100000D01*
X163825000Y-90400000D01*
X166275000Y-90400000D01*
X166275000Y-91100000D01*
G36*
X166275000Y-91100000D02*
G01*
X163825000Y-91100000D01*
X163825000Y-90400000D01*
X166275000Y-90400000D01*
X166275000Y-91100000D01*
G37*
X162350000Y-105175000D02*
X161650000Y-105175000D01*
X161650000Y-102725000D01*
X162350000Y-102725000D01*
X162350000Y-105175000D01*
G36*
X162350000Y-105175000D02*
G01*
X161650000Y-105175000D01*
X161650000Y-102725000D01*
X162350000Y-102725000D01*
X162350000Y-105175000D01*
G37*
X161350000Y-105175000D02*
X160650000Y-105175000D01*
X160650000Y-102725000D01*
X161350000Y-102725000D01*
X161350000Y-105175000D01*
G36*
X161350000Y-105175000D02*
G01*
X160650000Y-105175000D01*
X160650000Y-102725000D01*
X161350000Y-102725000D01*
X161350000Y-105175000D01*
G37*
X160350000Y-105175000D02*
X159650000Y-105175000D01*
X159650000Y-102725000D01*
X160350000Y-102725000D01*
X160350000Y-105175000D01*
G36*
X160350000Y-105175000D02*
G01*
X159650000Y-105175000D01*
X159650000Y-102725000D01*
X160350000Y-102725000D01*
X160350000Y-105175000D01*
G37*
X159350000Y-105175000D02*
X158650000Y-105175000D01*
X158650000Y-102725000D01*
X159350000Y-102725000D01*
X159350000Y-105175000D01*
G36*
X159350000Y-105175000D02*
G01*
X158650000Y-105175000D01*
X158650000Y-102725000D01*
X159350000Y-102725000D01*
X159350000Y-105175000D01*
G37*
X158350000Y-105175000D02*
X157650000Y-105175000D01*
X157650000Y-102725000D01*
X158350000Y-102725000D01*
X158350000Y-105175000D01*
G36*
X158350000Y-105175000D02*
G01*
X157650000Y-105175000D01*
X157650000Y-102725000D01*
X158350000Y-102725000D01*
X158350000Y-105175000D01*
G37*
X156175000Y-103250000D02*
X153725000Y-103250000D01*
X153725000Y-102550000D01*
X156175000Y-102550000D01*
X156175000Y-103250000D01*
G36*
X156175000Y-103250000D02*
G01*
X153725000Y-103250000D01*
X153725000Y-102550000D01*
X156175000Y-102550000D01*
X156175000Y-103250000D01*
G37*
X156175000Y-102250000D02*
X153725000Y-102250000D01*
X153725000Y-101550000D01*
X156175000Y-101550000D01*
X156175000Y-102250000D01*
G36*
X156175000Y-102250000D02*
G01*
X153725000Y-102250000D01*
X153725000Y-101550000D01*
X156175000Y-101550000D01*
X156175000Y-102250000D01*
G37*
X156175000Y-101250000D02*
X153725000Y-101250000D01*
X153725000Y-100550000D01*
X156175000Y-100550000D01*
X156175000Y-101250000D01*
G36*
X156175000Y-101250000D02*
G01*
X153725000Y-101250000D01*
X153725000Y-100550000D01*
X156175000Y-100550000D01*
X156175000Y-101250000D01*
G37*
X156175000Y-100250000D02*
X153725000Y-100250000D01*
X153725000Y-99550000D01*
X156175000Y-99550000D01*
X156175000Y-100250000D01*
G36*
X156175000Y-100250000D02*
G01*
X153725000Y-100250000D01*
X153725000Y-99550000D01*
X156175000Y-99550000D01*
X156175000Y-100250000D01*
G37*
X156175000Y-99250000D02*
X153725000Y-99250000D01*
X153725000Y-98550000D01*
X156175000Y-98550000D01*
X156175000Y-99250000D01*
G36*
X156175000Y-99250000D02*
G01*
X153725000Y-99250000D01*
X153725000Y-98550000D01*
X156175000Y-98550000D01*
X156175000Y-99250000D01*
G37*
X156175000Y-98250000D02*
X153725000Y-98250000D01*
X153725000Y-97550000D01*
X156175000Y-97550000D01*
X156175000Y-98250000D01*
G36*
X156175000Y-98250000D02*
G01*
X153725000Y-98250000D01*
X153725000Y-97550000D01*
X156175000Y-97550000D01*
X156175000Y-98250000D01*
G37*
X156175000Y-97250000D02*
X153725000Y-97250000D01*
X153725000Y-96550000D01*
X156175000Y-96550000D01*
X156175000Y-97250000D01*
G36*
X156175000Y-97250000D02*
G01*
X153725000Y-97250000D01*
X153725000Y-96550000D01*
X156175000Y-96550000D01*
X156175000Y-97250000D01*
G37*
X156175000Y-96250000D02*
X153725000Y-96250000D01*
X153725000Y-95550000D01*
X156175000Y-95550000D01*
X156175000Y-96250000D01*
G36*
X156175000Y-96250000D02*
G01*
X153725000Y-96250000D01*
X153725000Y-95550000D01*
X156175000Y-95550000D01*
X156175000Y-96250000D01*
G37*
X156175000Y-95250000D02*
X153725000Y-95250000D01*
X153725000Y-94550000D01*
X156175000Y-94550000D01*
X156175000Y-95250000D01*
G36*
X156175000Y-95250000D02*
G01*
X153725000Y-95250000D01*
X153725000Y-94550000D01*
X156175000Y-94550000D01*
X156175000Y-95250000D01*
G37*
X156175000Y-94250000D02*
X153725000Y-94250000D01*
X153725000Y-93550000D01*
X156175000Y-93550000D01*
X156175000Y-94250000D01*
G36*
X156175000Y-94250000D02*
G01*
X153725000Y-94250000D01*
X153725000Y-93550000D01*
X156175000Y-93550000D01*
X156175000Y-94250000D01*
G37*
X156175000Y-93250000D02*
X153725000Y-93250000D01*
X153725000Y-92550000D01*
X156175000Y-92550000D01*
X156175000Y-93250000D01*
G36*
X156175000Y-93250000D02*
G01*
X153725000Y-93250000D01*
X153725000Y-92550000D01*
X156175000Y-92550000D01*
X156175000Y-93250000D01*
G37*
X156175000Y-92250000D02*
X153725000Y-92250000D01*
X153725000Y-91550000D01*
X156175000Y-91550000D01*
X156175000Y-92250000D01*
G36*
X156175000Y-92250000D02*
G01*
X153725000Y-92250000D01*
X153725000Y-91550000D01*
X156175000Y-91550000D01*
X156175000Y-92250000D01*
G37*
X156175000Y-91100000D02*
X153725000Y-91100000D01*
X153725000Y-90400000D01*
X156175000Y-90400000D01*
X156175000Y-91100000D01*
G36*
X156175000Y-91100000D02*
G01*
X153725000Y-91100000D01*
X153725000Y-90400000D01*
X156175000Y-90400000D01*
X156175000Y-91100000D01*
G37*
D11*
X180250000Y-101750000D02*
X179750000Y-101750000D01*
X179750000Y-101550000D01*
X179950000Y-101350000D01*
X180250000Y-101350000D01*
X180250000Y-101750000D01*
G36*
X180250000Y-101750000D02*
G01*
X179750000Y-101750000D01*
X179750000Y-101550000D01*
X179950000Y-101350000D01*
X180250000Y-101350000D01*
X180250000Y-101750000D01*
G37*
X160801000Y-124823000D02*
X160331000Y-124823000D01*
X160581000Y-124573000D01*
X160801000Y-124573000D01*
X160801000Y-124823000D01*
G36*
X160801000Y-124823000D02*
G01*
X160331000Y-124823000D01*
X160581000Y-124573000D01*
X160801000Y-124573000D01*
X160801000Y-124823000D01*
G37*
X160801000Y-124173000D02*
X160581000Y-124173000D01*
X160401000Y-123998000D01*
X160401000Y-123923000D01*
X160801000Y-123923000D01*
X160801000Y-124173000D01*
G36*
X160801000Y-124173000D02*
G01*
X160581000Y-124173000D01*
X160401000Y-123998000D01*
X160401000Y-123923000D01*
X160801000Y-123923000D01*
X160801000Y-124173000D01*
G37*
X159901000Y-124748000D02*
X159901000Y-124823000D01*
X159501000Y-124823000D01*
X159501000Y-124573000D01*
X159721000Y-124573000D01*
X159901000Y-124748000D01*
G36*
X159901000Y-124748000D02*
G01*
X159901000Y-124823000D01*
X159501000Y-124823000D01*
X159501000Y-124573000D01*
X159721000Y-124573000D01*
X159901000Y-124748000D01*
G37*
X159901000Y-123998000D02*
X159721000Y-124173000D01*
X159501000Y-124173000D01*
X159501000Y-123923000D01*
X159901000Y-123923000D01*
X159901000Y-123998000D01*
G36*
X159901000Y-123998000D02*
G01*
X159721000Y-124173000D01*
X159501000Y-124173000D01*
X159501000Y-123923000D01*
X159901000Y-123923000D01*
X159901000Y-123998000D01*
G37*
X160814000Y-126523000D02*
X160344000Y-126523000D01*
X160594000Y-126273000D01*
X160814000Y-126273000D01*
X160814000Y-126523000D01*
G36*
X160814000Y-126523000D02*
G01*
X160344000Y-126523000D01*
X160594000Y-126273000D01*
X160814000Y-126273000D01*
X160814000Y-126523000D01*
G37*
X160814000Y-125873000D02*
X160594000Y-125873000D01*
X160414000Y-125698000D01*
X160414000Y-125623000D01*
X160814000Y-125623000D01*
X160814000Y-125873000D01*
G36*
X160814000Y-125873000D02*
G01*
X160594000Y-125873000D01*
X160414000Y-125698000D01*
X160414000Y-125623000D01*
X160814000Y-125623000D01*
X160814000Y-125873000D01*
G37*
X159914000Y-126448000D02*
X159914000Y-126523000D01*
X159514000Y-126523000D01*
X159514000Y-126273000D01*
X159734000Y-126273000D01*
X159914000Y-126448000D01*
G36*
X159914000Y-126448000D02*
G01*
X159914000Y-126523000D01*
X159514000Y-126523000D01*
X159514000Y-126273000D01*
X159734000Y-126273000D01*
X159914000Y-126448000D01*
G37*
X159914000Y-125698000D02*
X159734000Y-125873000D01*
X159514000Y-125873000D01*
X159514000Y-125623000D01*
X159914000Y-125623000D01*
X159914000Y-125698000D01*
G36*
X159914000Y-125698000D02*
G01*
X159734000Y-125873000D01*
X159514000Y-125873000D01*
X159514000Y-125623000D01*
X159914000Y-125623000D01*
X159914000Y-125698000D01*
G37*
D12*
X175600000Y-94690000D03*
X175600000Y-95710000D03*
D13*
X161910000Y-106100000D03*
X160890000Y-106100000D03*
X165110000Y-127300000D03*
X164090000Y-127300000D03*
D14*
X174600000Y-94720000D03*
X174600000Y-95680000D03*
D15*
X172187500Y-124000000D03*
X171662500Y-124000000D03*
D16*
X153890000Y-126200000D03*
X154910000Y-126200000D03*
D17*
X174020000Y-105400000D03*
X174980000Y-105400000D03*
D14*
X153600000Y-122720000D03*
X153600000Y-123680000D03*
D18*
X169600000Y-121710000D03*
X169600000Y-120690000D03*
D19*
X146400000Y-123750000D03*
X146400000Y-122800000D03*
X146400000Y-121850000D03*
X144000000Y-121850000D03*
X144000000Y-122800000D03*
X144000000Y-123750000D03*
D14*
X168000000Y-95920000D03*
X168000000Y-96880000D03*
D20*
X180000000Y-102250000D03*
X180000000Y-102950000D03*
X180000000Y-103650000D03*
D21*
X181000000Y-103600000D03*
D20*
X182000000Y-103650000D03*
X182000000Y-102950000D03*
X182000000Y-102250000D03*
X182000000Y-101550000D03*
D21*
X181000000Y-101600000D03*
D12*
X158100000Y-109090000D03*
X158100000Y-110110000D03*
D22*
X175750000Y-106937500D03*
X174950000Y-106937500D03*
X174150000Y-106937500D03*
X173350000Y-106937500D03*
X172550000Y-106937500D03*
X171750000Y-106937500D03*
X170950000Y-106937500D03*
X170150000Y-106937500D03*
X169350000Y-106937500D03*
X168550000Y-106937500D03*
X167750000Y-106937500D03*
X166950000Y-106937500D03*
X166150000Y-106937500D03*
D23*
X164900000Y-107237500D03*
X164900000Y-108037500D03*
X164900000Y-108837500D03*
X164900000Y-109637500D03*
X164900000Y-110437500D03*
X164900000Y-111237500D03*
X164900000Y-112037500D03*
X164900000Y-112837500D03*
X164900000Y-113637500D03*
X164900000Y-114437500D03*
X164900000Y-115237500D03*
X164900000Y-116037500D03*
X164900000Y-116837500D03*
X164900000Y-117637500D03*
D22*
X166150000Y-117937500D03*
X166950000Y-117937500D03*
X167750000Y-117937500D03*
X168550000Y-117937500D03*
X169350000Y-117937500D03*
X170150000Y-117937500D03*
X170950000Y-117937500D03*
X171750000Y-117937500D03*
X172550000Y-117937500D03*
X173350000Y-117937500D03*
X174150000Y-117937500D03*
X174950000Y-117937500D03*
X175750000Y-117937500D03*
D23*
X177000000Y-117637500D03*
X177000000Y-116837500D03*
X177000000Y-116037500D03*
X177000000Y-115237500D03*
X177000000Y-114437500D03*
X177000000Y-113637500D03*
X177000000Y-112837500D03*
X177000000Y-112037500D03*
X177000000Y-111237500D03*
X177000000Y-110437500D03*
X177000000Y-109637500D03*
X177000000Y-108837500D03*
X177000000Y-108037500D03*
X177000000Y-107237500D03*
D24*
X172450000Y-110937500D03*
X170950000Y-110937500D03*
X169450000Y-110937500D03*
X172450000Y-112437500D03*
X170950000Y-112437500D03*
X169450000Y-112437500D03*
X172450000Y-113937500D03*
X170950000Y-113937500D03*
X169450000Y-113937500D03*
D13*
X161110000Y-108000000D03*
X160090000Y-108000000D03*
D17*
X161120000Y-120000000D03*
X162080000Y-120000000D03*
D13*
X159310000Y-120400000D03*
X158290000Y-120400000D03*
X145290000Y-94615000D03*
X144270000Y-94615000D03*
D25*
X149771961Y-125521028D03*
X152807529Y-127456313D03*
X148992471Y-126743687D03*
X152028039Y-128678972D03*
D26*
X161964000Y-126607000D03*
X161964000Y-125647000D03*
D14*
X158746000Y-126447000D03*
X158746000Y-127407000D03*
D26*
X167800000Y-103480000D03*
X167800000Y-102520000D03*
D13*
X175310000Y-98200000D03*
X174290000Y-98200000D03*
D27*
X160151000Y-124373000D03*
D26*
X158646000Y-124607000D03*
X158646000Y-123647000D03*
D13*
X171110000Y-105000000D03*
X170090000Y-105000000D03*
D28*
X141875000Y-110725000D03*
X141875000Y-109625000D03*
X141875000Y-108525000D03*
X141875000Y-107425000D03*
X141875000Y-106325000D03*
X141875000Y-105225000D03*
X141875000Y-104125000D03*
X141875000Y-103025000D03*
D29*
X139675000Y-100555000D03*
X147875000Y-100555000D03*
X147875000Y-114445000D03*
X139675000Y-114445000D03*
D26*
X149000000Y-123480000D03*
X149000000Y-122520000D03*
D13*
X161910000Y-111200000D03*
X160890000Y-111200000D03*
D14*
X174600000Y-120720000D03*
X174600000Y-121680000D03*
D30*
X159505000Y-113740000D03*
X158235000Y-113740000D03*
X156965000Y-113740000D03*
X155695000Y-113740000D03*
X155695000Y-118660000D03*
X156965000Y-118660000D03*
X158235000Y-118660000D03*
X159505000Y-118660000D03*
D13*
X169510000Y-122800000D03*
X168490000Y-122800000D03*
D31*
X141900000Y-96025000D03*
X138300000Y-96025000D03*
X141900000Y-94575000D03*
X138300000Y-94575000D03*
D32*
X167192477Y-127456346D03*
X170228011Y-125521008D03*
X167971989Y-128678992D03*
X171007523Y-126743654D03*
D13*
X159010000Y-107900000D03*
X157990000Y-107900000D03*
D33*
X150525000Y-121850000D03*
D34*
X150525000Y-122350000D03*
D33*
X150525000Y-122850000D03*
D35*
X151200000Y-123000000D03*
D33*
X151875000Y-122850000D03*
D34*
X151875000Y-122350000D03*
D33*
X151875000Y-121850000D03*
D35*
X151200000Y-121700000D03*
D12*
X152500000Y-92890000D03*
X152500000Y-93910000D03*
D16*
X172290000Y-98200000D03*
X173310000Y-98200000D03*
D13*
X176310000Y-119400000D03*
X175290000Y-119400000D03*
D36*
X173300000Y-122750000D03*
X173300000Y-121800000D03*
X173300000Y-120850000D03*
X171100000Y-120850000D03*
X171100000Y-122750000D03*
D37*
X169787500Y-102487500D03*
X169787500Y-102987500D03*
X169787500Y-103487500D03*
X169787500Y-103987500D03*
D38*
X170300000Y-104000000D03*
X170800000Y-104000000D03*
D37*
X171312500Y-103987500D03*
X171312500Y-103487500D03*
X171312500Y-102987500D03*
X171312500Y-102487500D03*
D38*
X170800000Y-102475000D03*
X170300000Y-102475000D03*
D14*
X178300000Y-101320000D03*
X178300000Y-102280000D03*
D27*
X160164000Y-126073000D03*
D31*
X181700000Y-96025000D03*
X178100000Y-96025000D03*
X181700000Y-94575000D03*
X178100000Y-94575000D03*
D14*
X169000000Y-95920000D03*
X169000000Y-96880000D03*
D13*
X161110000Y-109000000D03*
X160090000Y-109000000D03*
D39*
X170755400Y-94800000D03*
X170755400Y-95300000D03*
X170755400Y-95800000D03*
X170755400Y-96300000D03*
X170755400Y-96800000D03*
X173244600Y-96800000D03*
X173244600Y-96300000D03*
X173244600Y-95800000D03*
X173244600Y-95300000D03*
X173244600Y-94800000D03*
D26*
X161946000Y-124707000D03*
X161946000Y-123747000D03*
D13*
X178310000Y-119400000D03*
X177290000Y-119400000D03*
M02*
