G04 #@! TF.GenerationSoftware,KiCad,Pcbnew,7.0.8-7.0.8~ubuntu22.04.1*
G04 #@! TF.CreationDate,2023-10-27T20:54:45-04:00*
G04 #@! TF.ProjectId,osw,6f73772e-6b69-4636-9164-5f7063625858,4.0*
G04 #@! TF.SameCoordinates,Original*
G04 #@! TF.FileFunction,Legend,Bot*
G04 #@! TF.FilePolarity,Positive*
%FSLAX46Y46*%
G04 Gerber Fmt 4.6, Leading zero omitted, Abs format (unit mm)*
G04 Created by KiCad (PCBNEW 7.0.8-7.0.8~ubuntu22.04.1) date 2023-10-27 20:54:45*
%MOMM*%
%LPD*%
G01*
G04 APERTURE LIST*
%ADD10C,0.175000*%
%ADD11C,0.120000*%
%ADD12C,0.150000*%
%ADD13C,0.127000*%
%ADD14C,0.200000*%
G04 APERTURE END LIST*
D10*
X167615131Y-91078233D02*
X167748464Y-91078233D01*
X167748464Y-91078233D02*
X167815131Y-91111566D01*
X167815131Y-91111566D02*
X167881797Y-91178233D01*
X167881797Y-91178233D02*
X167915131Y-91311566D01*
X167915131Y-91311566D02*
X167915131Y-91544900D01*
X167915131Y-91544900D02*
X167881797Y-91678233D01*
X167881797Y-91678233D02*
X167815131Y-91744900D01*
X167815131Y-91744900D02*
X167748464Y-91778233D01*
X167748464Y-91778233D02*
X167615131Y-91778233D01*
X167615131Y-91778233D02*
X167548464Y-91744900D01*
X167548464Y-91744900D02*
X167481797Y-91678233D01*
X167481797Y-91678233D02*
X167448464Y-91544900D01*
X167448464Y-91544900D02*
X167448464Y-91311566D01*
X167448464Y-91311566D02*
X167481797Y-91178233D01*
X167481797Y-91178233D02*
X167548464Y-91111566D01*
X167548464Y-91111566D02*
X167615131Y-91078233D01*
X168181797Y-91744900D02*
X168281797Y-91778233D01*
X168281797Y-91778233D02*
X168448464Y-91778233D01*
X168448464Y-91778233D02*
X168515130Y-91744900D01*
X168515130Y-91744900D02*
X168548464Y-91711566D01*
X168548464Y-91711566D02*
X168581797Y-91644900D01*
X168581797Y-91644900D02*
X168581797Y-91578233D01*
X168581797Y-91578233D02*
X168548464Y-91511566D01*
X168548464Y-91511566D02*
X168515130Y-91478233D01*
X168515130Y-91478233D02*
X168448464Y-91444900D01*
X168448464Y-91444900D02*
X168315130Y-91411566D01*
X168315130Y-91411566D02*
X168248464Y-91378233D01*
X168248464Y-91378233D02*
X168215130Y-91344900D01*
X168215130Y-91344900D02*
X168181797Y-91278233D01*
X168181797Y-91278233D02*
X168181797Y-91211566D01*
X168181797Y-91211566D02*
X168215130Y-91144900D01*
X168215130Y-91144900D02*
X168248464Y-91111566D01*
X168248464Y-91111566D02*
X168315130Y-91078233D01*
X168315130Y-91078233D02*
X168481797Y-91078233D01*
X168481797Y-91078233D02*
X168581797Y-91111566D01*
X168815131Y-91078233D02*
X168981797Y-91778233D01*
X168981797Y-91778233D02*
X169115131Y-91278233D01*
X169115131Y-91278233D02*
X169248464Y-91778233D01*
X169248464Y-91778233D02*
X169415131Y-91078233D01*
X170615130Y-91778233D02*
X170381797Y-91444900D01*
X170215130Y-91778233D02*
X170215130Y-91078233D01*
X170215130Y-91078233D02*
X170481797Y-91078233D01*
X170481797Y-91078233D02*
X170548464Y-91111566D01*
X170548464Y-91111566D02*
X170581797Y-91144900D01*
X170581797Y-91144900D02*
X170615130Y-91211566D01*
X170615130Y-91211566D02*
X170615130Y-91311566D01*
X170615130Y-91311566D02*
X170581797Y-91378233D01*
X170581797Y-91378233D02*
X170548464Y-91411566D01*
X170548464Y-91411566D02*
X170481797Y-91444900D01*
X170481797Y-91444900D02*
X170215130Y-91444900D01*
X171181797Y-91744900D02*
X171115130Y-91778233D01*
X171115130Y-91778233D02*
X170981797Y-91778233D01*
X170981797Y-91778233D02*
X170915130Y-91744900D01*
X170915130Y-91744900D02*
X170881797Y-91678233D01*
X170881797Y-91678233D02*
X170881797Y-91411566D01*
X170881797Y-91411566D02*
X170915130Y-91344900D01*
X170915130Y-91344900D02*
X170981797Y-91311566D01*
X170981797Y-91311566D02*
X171115130Y-91311566D01*
X171115130Y-91311566D02*
X171181797Y-91344900D01*
X171181797Y-91344900D02*
X171215130Y-91411566D01*
X171215130Y-91411566D02*
X171215130Y-91478233D01*
X171215130Y-91478233D02*
X170881797Y-91544900D01*
X171448464Y-91311566D02*
X171615130Y-91778233D01*
X171615130Y-91778233D02*
X171781797Y-91311566D01*
X172048463Y-91711566D02*
X172081797Y-91744900D01*
X172081797Y-91744900D02*
X172048463Y-91778233D01*
X172048463Y-91778233D02*
X172015130Y-91744900D01*
X172015130Y-91744900D02*
X172048463Y-91711566D01*
X172048463Y-91711566D02*
X172048463Y-91778233D01*
X172048463Y-91344900D02*
X172081797Y-91378233D01*
X172081797Y-91378233D02*
X172048463Y-91411566D01*
X172048463Y-91411566D02*
X172015130Y-91378233D01*
X172015130Y-91378233D02*
X172048463Y-91344900D01*
X172048463Y-91344900D02*
X172048463Y-91411566D01*
X173215129Y-91311566D02*
X173215129Y-91778233D01*
X173048463Y-91044900D02*
X172881796Y-91544900D01*
X172881796Y-91544900D02*
X173315129Y-91544900D01*
X173581796Y-91711566D02*
X173615130Y-91744900D01*
X173615130Y-91744900D02*
X173581796Y-91778233D01*
X173581796Y-91778233D02*
X173548463Y-91744900D01*
X173548463Y-91744900D02*
X173581796Y-91711566D01*
X173581796Y-91711566D02*
X173581796Y-91778233D01*
X174048463Y-91078233D02*
X174115129Y-91078233D01*
X174115129Y-91078233D02*
X174181796Y-91111566D01*
X174181796Y-91111566D02*
X174215129Y-91144900D01*
X174215129Y-91144900D02*
X174248463Y-91211566D01*
X174248463Y-91211566D02*
X174281796Y-91344900D01*
X174281796Y-91344900D02*
X174281796Y-91511566D01*
X174281796Y-91511566D02*
X174248463Y-91644900D01*
X174248463Y-91644900D02*
X174215129Y-91711566D01*
X174215129Y-91711566D02*
X174181796Y-91744900D01*
X174181796Y-91744900D02*
X174115129Y-91778233D01*
X174115129Y-91778233D02*
X174048463Y-91778233D01*
X174048463Y-91778233D02*
X173981796Y-91744900D01*
X173981796Y-91744900D02*
X173948463Y-91711566D01*
X173948463Y-91711566D02*
X173915129Y-91644900D01*
X173915129Y-91644900D02*
X173881796Y-91511566D01*
X173881796Y-91511566D02*
X173881796Y-91344900D01*
X173881796Y-91344900D02*
X173915129Y-91211566D01*
X173915129Y-91211566D02*
X173948463Y-91144900D01*
X173948463Y-91144900D02*
X173981796Y-91111566D01*
X173981796Y-91111566D02*
X174048463Y-91078233D01*
X167481797Y-92538566D02*
X167715131Y-92538566D01*
X167815131Y-92905233D02*
X167481797Y-92905233D01*
X167481797Y-92905233D02*
X167481797Y-92205233D01*
X167481797Y-92205233D02*
X167815131Y-92205233D01*
X168115130Y-92438566D02*
X168115130Y-93138566D01*
X168115130Y-92471900D02*
X168181797Y-92438566D01*
X168181797Y-92438566D02*
X168315130Y-92438566D01*
X168315130Y-92438566D02*
X168381797Y-92471900D01*
X168381797Y-92471900D02*
X168415130Y-92505233D01*
X168415130Y-92505233D02*
X168448464Y-92571900D01*
X168448464Y-92571900D02*
X168448464Y-92771900D01*
X168448464Y-92771900D02*
X168415130Y-92838566D01*
X168415130Y-92838566D02*
X168381797Y-92871900D01*
X168381797Y-92871900D02*
X168315130Y-92905233D01*
X168315130Y-92905233D02*
X168181797Y-92905233D01*
X168181797Y-92905233D02*
X168115130Y-92871900D01*
X168748463Y-92905233D02*
X168748463Y-92205233D01*
X169048463Y-92905233D02*
X169048463Y-92538566D01*
X169048463Y-92538566D02*
X169015130Y-92471900D01*
X169015130Y-92471900D02*
X168948463Y-92438566D01*
X168948463Y-92438566D02*
X168848463Y-92438566D01*
X168848463Y-92438566D02*
X168781797Y-92471900D01*
X168781797Y-92471900D02*
X168748463Y-92505233D01*
X170248463Y-92205233D02*
X169915129Y-92205233D01*
X169915129Y-92205233D02*
X169881796Y-92538566D01*
X169881796Y-92538566D02*
X169915129Y-92505233D01*
X169915129Y-92505233D02*
X169981796Y-92471900D01*
X169981796Y-92471900D02*
X170148463Y-92471900D01*
X170148463Y-92471900D02*
X170215129Y-92505233D01*
X170215129Y-92505233D02*
X170248463Y-92538566D01*
X170248463Y-92538566D02*
X170281796Y-92605233D01*
X170281796Y-92605233D02*
X170281796Y-92771900D01*
X170281796Y-92771900D02*
X170248463Y-92838566D01*
X170248463Y-92838566D02*
X170215129Y-92871900D01*
X170215129Y-92871900D02*
X170148463Y-92905233D01*
X170148463Y-92905233D02*
X169981796Y-92905233D01*
X169981796Y-92905233D02*
X169915129Y-92871900D01*
X169915129Y-92871900D02*
X169881796Y-92838566D01*
X170581796Y-92838566D02*
X170615130Y-92871900D01*
X170615130Y-92871900D02*
X170581796Y-92905233D01*
X170581796Y-92905233D02*
X170548463Y-92871900D01*
X170548463Y-92871900D02*
X170581796Y-92838566D01*
X170581796Y-92838566D02*
X170581796Y-92905233D01*
X170581796Y-92471900D02*
X170615130Y-92505233D01*
X170615130Y-92505233D02*
X170581796Y-92538566D01*
X170581796Y-92538566D02*
X170548463Y-92505233D01*
X170548463Y-92505233D02*
X170581796Y-92471900D01*
X170581796Y-92471900D02*
X170581796Y-92538566D01*
X171281796Y-92905233D02*
X170881796Y-92905233D01*
X171081796Y-92905233D02*
X171081796Y-92205233D01*
X171081796Y-92205233D02*
X171015129Y-92305233D01*
X171015129Y-92305233D02*
X170948463Y-92371900D01*
X170948463Y-92371900D02*
X170881796Y-92405233D01*
X171915130Y-92205233D02*
X171581796Y-92205233D01*
X171581796Y-92205233D02*
X171548463Y-92538566D01*
X171548463Y-92538566D02*
X171581796Y-92505233D01*
X171581796Y-92505233D02*
X171648463Y-92471900D01*
X171648463Y-92471900D02*
X171815130Y-92471900D01*
X171815130Y-92471900D02*
X171881796Y-92505233D01*
X171881796Y-92505233D02*
X171915130Y-92538566D01*
X171915130Y-92538566D02*
X171948463Y-92605233D01*
X171948463Y-92605233D02*
X171948463Y-92771900D01*
X171948463Y-92771900D02*
X171915130Y-92838566D01*
X171915130Y-92838566D02*
X171881796Y-92871900D01*
X171881796Y-92871900D02*
X171815130Y-92905233D01*
X171815130Y-92905233D02*
X171648463Y-92905233D01*
X171648463Y-92905233D02*
X171581796Y-92871900D01*
X171581796Y-92871900D02*
X171548463Y-92838566D01*
X172248463Y-92638566D02*
X172781797Y-92638566D01*
X173481797Y-92905233D02*
X173081797Y-92905233D01*
X173281797Y-92905233D02*
X173281797Y-92205233D01*
X173281797Y-92205233D02*
X173215130Y-92305233D01*
X173215130Y-92305233D02*
X173148464Y-92371900D01*
X173148464Y-92371900D02*
X173081797Y-92405233D01*
X174081797Y-92205233D02*
X173948464Y-92205233D01*
X173948464Y-92205233D02*
X173881797Y-92238566D01*
X173881797Y-92238566D02*
X173848464Y-92271900D01*
X173848464Y-92271900D02*
X173781797Y-92371900D01*
X173781797Y-92371900D02*
X173748464Y-92505233D01*
X173748464Y-92505233D02*
X173748464Y-92771900D01*
X173748464Y-92771900D02*
X173781797Y-92838566D01*
X173781797Y-92838566D02*
X173815131Y-92871900D01*
X173815131Y-92871900D02*
X173881797Y-92905233D01*
X173881797Y-92905233D02*
X174015131Y-92905233D01*
X174015131Y-92905233D02*
X174081797Y-92871900D01*
X174081797Y-92871900D02*
X174115131Y-92838566D01*
X174115131Y-92838566D02*
X174148464Y-92771900D01*
X174148464Y-92771900D02*
X174148464Y-92605233D01*
X174148464Y-92605233D02*
X174115131Y-92538566D01*
X174115131Y-92538566D02*
X174081797Y-92505233D01*
X174081797Y-92505233D02*
X174015131Y-92471900D01*
X174015131Y-92471900D02*
X173881797Y-92471900D01*
X173881797Y-92471900D02*
X173815131Y-92505233D01*
X173815131Y-92505233D02*
X173781797Y-92538566D01*
X173781797Y-92538566D02*
X173748464Y-92605233D01*
D11*
X158225069Y-112716666D02*
X157986974Y-112550000D01*
X158225069Y-112430952D02*
X157725069Y-112430952D01*
X157725069Y-112430952D02*
X157725069Y-112621428D01*
X157725069Y-112621428D02*
X157748879Y-112669047D01*
X157748879Y-112669047D02*
X157772688Y-112692857D01*
X157772688Y-112692857D02*
X157820307Y-112716666D01*
X157820307Y-112716666D02*
X157891736Y-112716666D01*
X157891736Y-112716666D02*
X157939355Y-112692857D01*
X157939355Y-112692857D02*
X157963164Y-112669047D01*
X157963164Y-112669047D02*
X157986974Y-112621428D01*
X157986974Y-112621428D02*
X157986974Y-112430952D01*
X157725069Y-112883333D02*
X157725069Y-113216666D01*
X157725069Y-113216666D02*
X158225069Y-113002381D01*
X144750069Y-108880952D02*
X145154831Y-108880952D01*
X145154831Y-108880952D02*
X145202450Y-108904762D01*
X145202450Y-108904762D02*
X145226260Y-108928571D01*
X145226260Y-108928571D02*
X145250069Y-108976190D01*
X145250069Y-108976190D02*
X145250069Y-109071428D01*
X145250069Y-109071428D02*
X145226260Y-109119047D01*
X145226260Y-109119047D02*
X145202450Y-109142857D01*
X145202450Y-109142857D02*
X145154831Y-109166666D01*
X145154831Y-109166666D02*
X144750069Y-109166666D01*
X145250069Y-109666667D02*
X145250069Y-109380953D01*
X145250069Y-109523810D02*
X144750069Y-109523810D01*
X144750069Y-109523810D02*
X144821498Y-109476191D01*
X144821498Y-109476191D02*
X144869117Y-109428572D01*
X144869117Y-109428572D02*
X144892926Y-109380953D01*
X145250069Y-110142857D02*
X145250069Y-109857143D01*
X145250069Y-110000000D02*
X144750069Y-110000000D01*
X144750069Y-110000000D02*
X144821498Y-109952381D01*
X144821498Y-109952381D02*
X144869117Y-109904762D01*
X144869117Y-109904762D02*
X144892926Y-109857143D01*
D12*
X148929819Y-113635714D02*
X148929819Y-113064286D01*
X148929819Y-113350000D02*
X147929819Y-113350000D01*
X147929819Y-113350000D02*
X148072676Y-113254762D01*
X148072676Y-113254762D02*
X148167914Y-113159524D01*
X148167914Y-113159524D02*
X148215533Y-113064286D01*
X148979819Y-105959523D02*
X148979819Y-105388095D01*
X148979819Y-105673809D02*
X147979819Y-105673809D01*
X147979819Y-105673809D02*
X148122676Y-105578571D01*
X148122676Y-105578571D02*
X148217914Y-105483333D01*
X148217914Y-105483333D02*
X148265533Y-105388095D01*
X148075057Y-106340476D02*
X148027438Y-106388095D01*
X148027438Y-106388095D02*
X147979819Y-106483333D01*
X147979819Y-106483333D02*
X147979819Y-106721428D01*
X147979819Y-106721428D02*
X148027438Y-106816666D01*
X148027438Y-106816666D02*
X148075057Y-106864285D01*
X148075057Y-106864285D02*
X148170295Y-106911904D01*
X148170295Y-106911904D02*
X148265533Y-106911904D01*
X148265533Y-106911904D02*
X148408390Y-106864285D01*
X148408390Y-106864285D02*
X148979819Y-106292857D01*
X148979819Y-106292857D02*
X148979819Y-106911904D01*
D11*
X155025069Y-109078571D02*
X154786974Y-108911905D01*
X155025069Y-108792857D02*
X154525069Y-108792857D01*
X154525069Y-108792857D02*
X154525069Y-108983333D01*
X154525069Y-108983333D02*
X154548879Y-109030952D01*
X154548879Y-109030952D02*
X154572688Y-109054762D01*
X154572688Y-109054762D02*
X154620307Y-109078571D01*
X154620307Y-109078571D02*
X154691736Y-109078571D01*
X154691736Y-109078571D02*
X154739355Y-109054762D01*
X154739355Y-109054762D02*
X154763164Y-109030952D01*
X154763164Y-109030952D02*
X154786974Y-108983333D01*
X154786974Y-108983333D02*
X154786974Y-108792857D01*
X155025069Y-109554762D02*
X155025069Y-109269048D01*
X155025069Y-109411905D02*
X154525069Y-109411905D01*
X154525069Y-109411905D02*
X154596498Y-109364286D01*
X154596498Y-109364286D02*
X154644117Y-109316667D01*
X154644117Y-109316667D02*
X154667926Y-109269048D01*
X155025069Y-109792857D02*
X155025069Y-109888095D01*
X155025069Y-109888095D02*
X155001260Y-109935714D01*
X155001260Y-109935714D02*
X154977450Y-109959523D01*
X154977450Y-109959523D02*
X154906021Y-110007142D01*
X154906021Y-110007142D02*
X154810783Y-110030952D01*
X154810783Y-110030952D02*
X154620307Y-110030952D01*
X154620307Y-110030952D02*
X154572688Y-110007142D01*
X154572688Y-110007142D02*
X154548879Y-109983333D01*
X154548879Y-109983333D02*
X154525069Y-109935714D01*
X154525069Y-109935714D02*
X154525069Y-109840476D01*
X154525069Y-109840476D02*
X154548879Y-109792857D01*
X154548879Y-109792857D02*
X154572688Y-109769047D01*
X154572688Y-109769047D02*
X154620307Y-109745238D01*
X154620307Y-109745238D02*
X154739355Y-109745238D01*
X154739355Y-109745238D02*
X154786974Y-109769047D01*
X154786974Y-109769047D02*
X154810783Y-109792857D01*
X154810783Y-109792857D02*
X154834593Y-109840476D01*
X154834593Y-109840476D02*
X154834593Y-109935714D01*
X154834593Y-109935714D02*
X154810783Y-109983333D01*
X154810783Y-109983333D02*
X154786974Y-110007142D01*
X154786974Y-110007142D02*
X154739355Y-110030952D01*
X155435119Y-110772688D02*
X155482738Y-110748879D01*
X155482738Y-110748879D02*
X155530357Y-110701260D01*
X155530357Y-110701260D02*
X155601785Y-110629831D01*
X155601785Y-110629831D02*
X155649404Y-110606021D01*
X155649404Y-110606021D02*
X155697023Y-110606021D01*
X155673214Y-110725069D02*
X155720833Y-110701260D01*
X155720833Y-110701260D02*
X155768452Y-110653640D01*
X155768452Y-110653640D02*
X155792261Y-110558402D01*
X155792261Y-110558402D02*
X155792261Y-110391736D01*
X155792261Y-110391736D02*
X155768452Y-110296498D01*
X155768452Y-110296498D02*
X155720833Y-110248879D01*
X155720833Y-110248879D02*
X155673214Y-110225069D01*
X155673214Y-110225069D02*
X155577976Y-110225069D01*
X155577976Y-110225069D02*
X155530357Y-110248879D01*
X155530357Y-110248879D02*
X155482738Y-110296498D01*
X155482738Y-110296498D02*
X155458928Y-110391736D01*
X155458928Y-110391736D02*
X155458928Y-110558402D01*
X155458928Y-110558402D02*
X155482738Y-110653640D01*
X155482738Y-110653640D02*
X155530357Y-110701260D01*
X155530357Y-110701260D02*
X155577976Y-110725069D01*
X155577976Y-110725069D02*
X155673214Y-110725069D01*
X154982737Y-110725069D02*
X155268451Y-110725069D01*
X155125594Y-110725069D02*
X155125594Y-110225069D01*
X155125594Y-110225069D02*
X155173213Y-110296498D01*
X155173213Y-110296498D02*
X155220832Y-110344117D01*
X155220832Y-110344117D02*
X155268451Y-110367926D01*
X154615069Y-128329047D02*
X155019831Y-128329047D01*
X155019831Y-128329047D02*
X155067450Y-128352857D01*
X155067450Y-128352857D02*
X155091260Y-128376666D01*
X155091260Y-128376666D02*
X155115069Y-128424285D01*
X155115069Y-128424285D02*
X155115069Y-128519523D01*
X155115069Y-128519523D02*
X155091260Y-128567142D01*
X155091260Y-128567142D02*
X155067450Y-128590952D01*
X155067450Y-128590952D02*
X155019831Y-128614761D01*
X155019831Y-128614761D02*
X154615069Y-128614761D01*
X154615069Y-129067143D02*
X154615069Y-128971905D01*
X154615069Y-128971905D02*
X154638879Y-128924286D01*
X154638879Y-128924286D02*
X154662688Y-128900476D01*
X154662688Y-128900476D02*
X154734117Y-128852857D01*
X154734117Y-128852857D02*
X154829355Y-128829048D01*
X154829355Y-128829048D02*
X155019831Y-128829048D01*
X155019831Y-128829048D02*
X155067450Y-128852857D01*
X155067450Y-128852857D02*
X155091260Y-128876667D01*
X155091260Y-128876667D02*
X155115069Y-128924286D01*
X155115069Y-128924286D02*
X155115069Y-129019524D01*
X155115069Y-129019524D02*
X155091260Y-129067143D01*
X155091260Y-129067143D02*
X155067450Y-129090952D01*
X155067450Y-129090952D02*
X155019831Y-129114762D01*
X155019831Y-129114762D02*
X154900783Y-129114762D01*
X154900783Y-129114762D02*
X154853164Y-129090952D01*
X154853164Y-129090952D02*
X154829355Y-129067143D01*
X154829355Y-129067143D02*
X154805545Y-129019524D01*
X154805545Y-129019524D02*
X154805545Y-128924286D01*
X154805545Y-128924286D02*
X154829355Y-128876667D01*
X154829355Y-128876667D02*
X154853164Y-128852857D01*
X154853164Y-128852857D02*
X154900783Y-128829048D01*
X156221428Y-124977450D02*
X156245237Y-125001260D01*
X156245237Y-125001260D02*
X156316666Y-125025069D01*
X156316666Y-125025069D02*
X156364285Y-125025069D01*
X156364285Y-125025069D02*
X156435713Y-125001260D01*
X156435713Y-125001260D02*
X156483332Y-124953640D01*
X156483332Y-124953640D02*
X156507142Y-124906021D01*
X156507142Y-124906021D02*
X156530951Y-124810783D01*
X156530951Y-124810783D02*
X156530951Y-124739355D01*
X156530951Y-124739355D02*
X156507142Y-124644117D01*
X156507142Y-124644117D02*
X156483332Y-124596498D01*
X156483332Y-124596498D02*
X156435713Y-124548879D01*
X156435713Y-124548879D02*
X156364285Y-124525069D01*
X156364285Y-124525069D02*
X156316666Y-124525069D01*
X156316666Y-124525069D02*
X156245237Y-124548879D01*
X156245237Y-124548879D02*
X156221428Y-124572688D01*
X155745237Y-125025069D02*
X156030951Y-125025069D01*
X155888094Y-125025069D02*
X155888094Y-124525069D01*
X155888094Y-124525069D02*
X155935713Y-124596498D01*
X155935713Y-124596498D02*
X155983332Y-124644117D01*
X155983332Y-124644117D02*
X156030951Y-124667926D01*
X155554761Y-124572688D02*
X155530952Y-124548879D01*
X155530952Y-124548879D02*
X155483333Y-124525069D01*
X155483333Y-124525069D02*
X155364285Y-124525069D01*
X155364285Y-124525069D02*
X155316666Y-124548879D01*
X155316666Y-124548879D02*
X155292857Y-124572688D01*
X155292857Y-124572688D02*
X155269047Y-124620307D01*
X155269047Y-124620307D02*
X155269047Y-124667926D01*
X155269047Y-124667926D02*
X155292857Y-124739355D01*
X155292857Y-124739355D02*
X155578571Y-125025069D01*
X155578571Y-125025069D02*
X155269047Y-125025069D01*
X155821428Y-115177450D02*
X155845237Y-115201260D01*
X155845237Y-115201260D02*
X155916666Y-115225069D01*
X155916666Y-115225069D02*
X155964285Y-115225069D01*
X155964285Y-115225069D02*
X156035713Y-115201260D01*
X156035713Y-115201260D02*
X156083332Y-115153640D01*
X156083332Y-115153640D02*
X156107142Y-115106021D01*
X156107142Y-115106021D02*
X156130951Y-115010783D01*
X156130951Y-115010783D02*
X156130951Y-114939355D01*
X156130951Y-114939355D02*
X156107142Y-114844117D01*
X156107142Y-114844117D02*
X156083332Y-114796498D01*
X156083332Y-114796498D02*
X156035713Y-114748879D01*
X156035713Y-114748879D02*
X155964285Y-114725069D01*
X155964285Y-114725069D02*
X155916666Y-114725069D01*
X155916666Y-114725069D02*
X155845237Y-114748879D01*
X155845237Y-114748879D02*
X155821428Y-114772688D01*
X155345237Y-115225069D02*
X155630951Y-115225069D01*
X155488094Y-115225069D02*
X155488094Y-114725069D01*
X155488094Y-114725069D02*
X155535713Y-114796498D01*
X155535713Y-114796498D02*
X155583332Y-114844117D01*
X155583332Y-114844117D02*
X155630951Y-114867926D01*
X155059523Y-114939355D02*
X155107142Y-114915545D01*
X155107142Y-114915545D02*
X155130952Y-114891736D01*
X155130952Y-114891736D02*
X155154761Y-114844117D01*
X155154761Y-114844117D02*
X155154761Y-114820307D01*
X155154761Y-114820307D02*
X155130952Y-114772688D01*
X155130952Y-114772688D02*
X155107142Y-114748879D01*
X155107142Y-114748879D02*
X155059523Y-114725069D01*
X155059523Y-114725069D02*
X154964285Y-114725069D01*
X154964285Y-114725069D02*
X154916666Y-114748879D01*
X154916666Y-114748879D02*
X154892857Y-114772688D01*
X154892857Y-114772688D02*
X154869047Y-114820307D01*
X154869047Y-114820307D02*
X154869047Y-114844117D01*
X154869047Y-114844117D02*
X154892857Y-114891736D01*
X154892857Y-114891736D02*
X154916666Y-114915545D01*
X154916666Y-114915545D02*
X154964285Y-114939355D01*
X154964285Y-114939355D02*
X155059523Y-114939355D01*
X155059523Y-114939355D02*
X155107142Y-114963164D01*
X155107142Y-114963164D02*
X155130952Y-114986974D01*
X155130952Y-114986974D02*
X155154761Y-115034593D01*
X155154761Y-115034593D02*
X155154761Y-115129831D01*
X155154761Y-115129831D02*
X155130952Y-115177450D01*
X155130952Y-115177450D02*
X155107142Y-115201260D01*
X155107142Y-115201260D02*
X155059523Y-115225069D01*
X155059523Y-115225069D02*
X154964285Y-115225069D01*
X154964285Y-115225069D02*
X154916666Y-115201260D01*
X154916666Y-115201260D02*
X154892857Y-115177450D01*
X154892857Y-115177450D02*
X154869047Y-115129831D01*
X154869047Y-115129831D02*
X154869047Y-115034593D01*
X154869047Y-115034593D02*
X154892857Y-114986974D01*
X154892857Y-114986974D02*
X154916666Y-114963164D01*
X154916666Y-114963164D02*
X154964285Y-114939355D01*
X157180000Y-112646359D02*
X157180000Y-112953641D01*
X156420000Y-112646359D02*
X156420000Y-112953641D01*
D12*
X141675000Y-103800000D02*
X151275000Y-103800000D01*
X151675000Y-104200000D02*
X151675000Y-105200000D01*
X151675000Y-113800000D02*
X151675000Y-114800000D01*
X148725000Y-115200000D02*
X151325000Y-115200000D01*
X141275000Y-115600000D02*
X141275000Y-104200000D01*
X141675000Y-116000000D02*
X147925000Y-116000000D01*
X151675000Y-104200000D02*
G75*
G03*
X151275000Y-103800000I-399999J1D01*
G01*
X141675000Y-103800000D02*
G75*
G03*
X141275000Y-104200000I-1J-399999D01*
G01*
X151275000Y-115200000D02*
G75*
G03*
X151675000Y-114800000I0J400000D01*
G01*
X148725000Y-115200000D02*
G75*
G03*
X148325000Y-115600000I0J-400000D01*
G01*
X147925000Y-116000000D02*
G75*
G03*
X148325000Y-115600000I0J400000D01*
G01*
X141275000Y-115600000D02*
G75*
G03*
X141675000Y-116000000I400000J0D01*
G01*
X147925000Y-104800000D02*
G75*
G03*
X147925000Y-104800000I-500000J0D01*
G01*
X147925000Y-114800000D02*
G75*
G03*
X147925000Y-114800000I-500000J0D01*
G01*
D11*
X154180000Y-109846359D02*
X154180000Y-110153641D01*
X153420000Y-109846359D02*
X153420000Y-110153641D01*
D13*
X155245000Y-114150000D02*
X153930000Y-114150000D01*
X155245000Y-111050000D02*
X153930000Y-111050000D01*
X153930000Y-114150000D02*
X153930000Y-113200000D01*
X153930000Y-111050000D02*
X153930000Y-112000000D01*
D14*
X156937500Y-111650000D02*
G75*
G03*
X156937500Y-111650000I-100000J0D01*
G01*
D13*
X158845000Y-126535000D02*
X158845000Y-129535000D01*
X155705000Y-126535000D02*
X155705000Y-129535000D01*
D14*
X156250000Y-125560000D02*
G75*
G03*
X156250000Y-125560000I-100000J0D01*
G01*
D11*
X157492164Y-124440000D02*
X157707836Y-124440000D01*
X157492164Y-125160000D02*
X157707836Y-125160000D01*
G36*
X139783334Y-100583333D02*
G01*
X139283334Y-100583333D01*
X139283334Y-100500000D01*
X139783334Y-100500000D01*
X139783334Y-100583333D01*
G37*
G36*
X143592188Y-100475660D02*
G01*
X143600000Y-100508333D01*
X143592806Y-100540234D01*
X143566667Y-100550000D01*
X143541146Y-100541007D01*
X143533334Y-100508333D01*
X143540528Y-100476432D01*
X143566667Y-100466667D01*
X143592188Y-100475660D01*
G37*
G36*
X142654882Y-100488811D02*
G01*
X142666667Y-100516667D01*
X142661189Y-100538215D01*
X142633334Y-100550000D01*
X142611786Y-100544522D01*
X142600000Y-100516667D01*
X142605479Y-100495118D01*
X142633334Y-100483333D01*
X142654882Y-100488811D01*
G37*
G36*
X142404882Y-100488811D02*
G01*
X142416667Y-100516667D01*
X142411189Y-100538215D01*
X142383334Y-100550000D01*
X142361786Y-100544522D01*
X142350000Y-100516667D01*
X142355479Y-100495118D01*
X142383334Y-100483333D01*
X142404882Y-100488811D01*
G37*
G36*
X141204882Y-100505478D02*
G01*
X141216667Y-100533333D01*
X141211189Y-100554881D01*
X141183334Y-100566667D01*
X141161786Y-100561188D01*
X141150000Y-100533333D01*
X141155479Y-100511785D01*
X141183334Y-100500000D01*
X141204882Y-100505478D01*
G37*
G36*
X140271549Y-100505478D02*
G01*
X140283334Y-100533333D01*
X140277856Y-100554881D01*
X140250000Y-100566667D01*
X140228452Y-100561188D01*
X140216667Y-100533333D01*
X140222145Y-100511785D01*
X140250000Y-100500000D01*
X140271549Y-100505478D01*
G37*
G36*
X140021549Y-100505478D02*
G01*
X140033334Y-100533333D01*
X140027856Y-100554881D01*
X140000000Y-100566667D01*
X139978452Y-100561188D01*
X139966667Y-100533333D01*
X139972145Y-100511785D01*
X140000000Y-100500000D01*
X140021549Y-100505478D01*
G37*
G36*
X139788215Y-100788811D02*
G01*
X139800000Y-100816667D01*
X139794522Y-100838215D01*
X139766667Y-100850000D01*
X139745119Y-100844522D01*
X139733334Y-100816667D01*
X139738812Y-100795118D01*
X139766667Y-100783333D01*
X139788215Y-100788811D01*
G37*
G36*
X139088215Y-100522145D02*
G01*
X139100000Y-100550000D01*
X139094522Y-100571548D01*
X139066667Y-100583333D01*
X139045119Y-100577855D01*
X139033334Y-100550000D01*
X139038812Y-100528452D01*
X139066667Y-100516667D01*
X139088215Y-100522145D01*
G37*
G36*
X138838215Y-100522145D02*
G01*
X138850000Y-100550000D01*
X138844522Y-100571548D01*
X138816667Y-100583333D01*
X138795119Y-100577855D01*
X138783334Y-100550000D01*
X138788812Y-100528452D01*
X138816667Y-100516667D01*
X138838215Y-100522145D01*
G37*
G36*
X143817285Y-100466672D02*
G01*
X143842637Y-100480169D01*
X143851400Y-100509316D01*
X143838889Y-100538889D01*
X143817654Y-100550645D01*
X143793594Y-100541171D01*
X143783334Y-100508333D01*
X143790528Y-100476432D01*
X143816667Y-100466667D01*
X143817285Y-100466672D01*
G37*
G36*
X137887577Y-100518841D02*
G01*
X137911048Y-100540490D01*
X137909802Y-100577184D01*
X137907308Y-100582659D01*
X137887872Y-100596614D01*
X137866442Y-100585255D01*
X137853008Y-100552861D01*
X137853884Y-100529665D01*
X137872858Y-100516667D01*
X137887577Y-100518841D01*
G37*
G36*
X137637509Y-100518658D02*
G01*
X137660961Y-100540054D01*
X137660334Y-100575798D01*
X137655022Y-100586233D01*
X137632456Y-100600635D01*
X137610115Y-100590177D01*
X137600000Y-100558333D01*
X137604968Y-100531185D01*
X137624017Y-100516667D01*
X137637509Y-100518658D01*
G37*
G36*
X141460908Y-100492676D02*
G01*
X141466667Y-100525000D01*
X141466617Y-100529555D01*
X141459607Y-100559041D01*
X141437500Y-100563494D01*
X141420976Y-100554487D01*
X141408334Y-100525000D01*
X141413501Y-100505379D01*
X141437500Y-100486506D01*
X141440519Y-100486001D01*
X141460908Y-100492676D01*
G37*
G36*
X145708869Y-99168287D02*
G01*
X145749497Y-99185368D01*
X145780839Y-99228071D01*
X145791351Y-99251430D01*
X145797502Y-99305638D01*
X145772417Y-99352854D01*
X145770043Y-99355439D01*
X145738220Y-99379200D01*
X145704833Y-99377096D01*
X145660581Y-99348790D01*
X145659094Y-99347598D01*
X145628639Y-99307484D01*
X145617739Y-99259915D01*
X145624966Y-99214335D01*
X145648891Y-99180189D01*
X145688087Y-99166922D01*
X145708869Y-99168287D01*
G37*
G36*
X145403253Y-101396586D02*
G01*
X145410075Y-101412443D01*
X145399877Y-101440193D01*
X145367912Y-101484278D01*
X145313092Y-101552494D01*
X145364880Y-101616936D01*
X145386806Y-101645245D01*
X145410988Y-101684238D01*
X145413482Y-101708169D01*
X145395834Y-101722295D01*
X145387614Y-101725628D01*
X145372253Y-101732017D01*
X145363192Y-101722103D01*
X145339581Y-101691839D01*
X145306966Y-101648137D01*
X145244427Y-101562941D01*
X145274359Y-101507360D01*
X145306687Y-101456015D01*
X145344451Y-101413619D01*
X145378389Y-101392306D01*
X145403253Y-101396586D01*
G37*
G36*
X147825932Y-101402724D02*
G01*
X147817564Y-101434215D01*
X147785920Y-101487907D01*
X147734841Y-101562149D01*
X147785280Y-101630736D01*
X147802776Y-101656676D01*
X147822088Y-101694406D01*
X147825082Y-101716534D01*
X147817331Y-101723167D01*
X147791960Y-101721040D01*
X147768161Y-101700962D01*
X147735382Y-101664547D01*
X147702386Y-101622306D01*
X147676931Y-101584204D01*
X147666775Y-101560208D01*
X147674843Y-101542192D01*
X147699775Y-101506012D01*
X147735677Y-101461402D01*
X147739909Y-101456514D01*
X147784251Y-101412368D01*
X147813876Y-101394940D01*
X147825932Y-101402724D01*
G37*
G36*
X145215903Y-101392850D02*
G01*
X145221279Y-101403511D01*
X145213744Y-101432892D01*
X145183579Y-101480350D01*
X145133125Y-101550000D01*
X145182926Y-101618749D01*
X145200288Y-101644547D01*
X145219905Y-101681414D01*
X145223714Y-101702082D01*
X145220103Y-101706420D01*
X145194250Y-101716667D01*
X145190540Y-101715996D01*
X145165671Y-101698072D01*
X145133458Y-101662931D01*
X145101342Y-101620268D01*
X145076764Y-101579772D01*
X145067165Y-101551137D01*
X145073703Y-101532635D01*
X145097529Y-101494637D01*
X145132717Y-101450000D01*
X145167414Y-101412863D01*
X145197395Y-101390656D01*
X145215903Y-101392850D01*
G37*
G36*
X147637516Y-101397515D02*
G01*
X147643351Y-101409668D01*
X147634642Y-101437612D01*
X147603032Y-101482054D01*
X147584118Y-101506271D01*
X147559597Y-101540507D01*
X147550000Y-101558333D01*
X147553150Y-101565778D01*
X147571847Y-101593901D01*
X147601769Y-101633040D01*
X147618944Y-101656370D01*
X147639297Y-101693161D01*
X147642452Y-101715396D01*
X147634593Y-101725611D01*
X147615826Y-101730944D01*
X147589728Y-101712727D01*
X147551401Y-101668435D01*
X147518999Y-101620286D01*
X147501486Y-101561575D01*
X147514929Y-101504877D01*
X147559564Y-101443650D01*
X147590475Y-101412451D01*
X147619088Y-101393372D01*
X147637516Y-101397515D01*
G37*
G36*
X147256516Y-101474955D02*
G01*
X147265960Y-101512300D01*
X147262976Y-101578699D01*
X147247532Y-101673056D01*
X147240459Y-101706146D01*
X147228545Y-101745038D01*
X147214445Y-101761754D01*
X147193982Y-101763336D01*
X147187538Y-101761988D01*
X147168103Y-101748560D01*
X147153138Y-101716421D01*
X147138844Y-101658333D01*
X147124193Y-101578398D01*
X147118143Y-101514814D01*
X147123441Y-101478326D01*
X147140103Y-101466667D01*
X147145720Y-101467990D01*
X147162749Y-101493758D01*
X147175295Y-101552143D01*
X147180299Y-101580754D01*
X147191865Y-101612578D01*
X147203526Y-101613590D01*
X147212602Y-101585287D01*
X147216412Y-101529167D01*
X147216660Y-101517250D01*
X147223677Y-101478571D01*
X147241667Y-101466667D01*
X147256516Y-101474955D01*
G37*
G36*
X143331486Y-100482002D02*
G01*
X143346993Y-100512500D01*
X143348210Y-100523271D01*
X143345889Y-100534522D01*
X143334496Y-100542068D01*
X143309179Y-100546648D01*
X143265085Y-100549004D01*
X143197363Y-100549874D01*
X143101160Y-100550000D01*
X143056975Y-100549973D01*
X142973148Y-100549471D01*
X142915640Y-100547824D01*
X142879512Y-100544375D01*
X142859823Y-100538470D01*
X142851633Y-100529452D01*
X142850000Y-100516667D01*
X142851441Y-100504332D01*
X142859665Y-100494483D01*
X142879992Y-100488065D01*
X142917730Y-100484195D01*
X142978186Y-100481986D01*
X143066667Y-100480555D01*
X143077581Y-100480414D01*
X143160589Y-100479256D01*
X143232310Y-100478117D01*
X143285397Y-100477119D01*
X143312500Y-100476389D01*
X143331486Y-100482002D01*
G37*
G36*
X144325805Y-100466691D02*
G01*
X144409849Y-100467184D01*
X144467508Y-100468820D01*
X144503734Y-100472259D01*
X144523480Y-100478162D01*
X144531696Y-100487189D01*
X144533334Y-100500000D01*
X144533148Y-100505663D01*
X144529453Y-100516868D01*
X144517184Y-100524556D01*
X144491390Y-100529387D01*
X144447118Y-100532019D01*
X144379416Y-100533115D01*
X144283334Y-100533333D01*
X144240862Y-100533308D01*
X144156819Y-100532816D01*
X144099160Y-100531180D01*
X144062933Y-100527741D01*
X144043188Y-100521838D01*
X144034972Y-100512811D01*
X144033334Y-100500000D01*
X144033520Y-100494337D01*
X144037215Y-100483131D01*
X144049483Y-100475443D01*
X144075278Y-100470613D01*
X144119550Y-100467980D01*
X144187252Y-100466885D01*
X144283334Y-100466667D01*
X144325805Y-100466691D01*
G37*
G36*
X142103100Y-100485855D02*
G01*
X142138281Y-100488680D01*
X142157327Y-100494227D01*
X142165151Y-100503051D01*
X142166667Y-100515703D01*
X142166179Y-100523777D01*
X142160380Y-100535527D01*
X142143511Y-100543379D01*
X142110006Y-100548437D01*
X142054302Y-100551806D01*
X141970834Y-100554592D01*
X141920997Y-100556019D01*
X141824667Y-100558502D01*
X141755341Y-100559380D01*
X141708576Y-100558235D01*
X141679934Y-100554644D01*
X141664974Y-100548189D01*
X141659254Y-100538447D01*
X141658334Y-100525000D01*
X141658555Y-100519172D01*
X141662522Y-100508014D01*
X141675291Y-100500155D01*
X141701767Y-100494862D01*
X141746857Y-100491405D01*
X141815466Y-100489050D01*
X141912500Y-100487066D01*
X141964680Y-100486157D01*
X142046871Y-100485198D01*
X142103100Y-100485855D01*
G37*
G36*
X140759139Y-100500025D02*
G01*
X140843182Y-100500517D01*
X140900841Y-100502153D01*
X140937068Y-100505592D01*
X140956813Y-100511495D01*
X140965029Y-100520522D01*
X140966667Y-100533333D01*
X140966481Y-100538996D01*
X140962786Y-100550202D01*
X140950518Y-100557890D01*
X140924723Y-100562720D01*
X140880451Y-100565353D01*
X140812749Y-100566448D01*
X140716667Y-100566667D01*
X140674196Y-100566642D01*
X140590152Y-100566149D01*
X140532493Y-100564513D01*
X140496267Y-100561074D01*
X140476521Y-100555171D01*
X140468305Y-100546144D01*
X140466667Y-100533333D01*
X140466853Y-100527670D01*
X140470548Y-100516465D01*
X140482817Y-100508777D01*
X140508611Y-100503946D01*
X140552883Y-100501314D01*
X140620585Y-100500218D01*
X140716667Y-100500000D01*
X140759139Y-100500025D01*
G37*
G36*
X138392472Y-100516691D02*
G01*
X138476515Y-100517184D01*
X138534175Y-100518820D01*
X138570401Y-100522259D01*
X138590146Y-100528162D01*
X138598362Y-100537189D01*
X138600000Y-100550000D01*
X138599814Y-100555663D01*
X138596120Y-100566868D01*
X138583851Y-100574556D01*
X138558056Y-100579387D01*
X138513784Y-100582019D01*
X138446083Y-100583115D01*
X138350000Y-100583333D01*
X138307529Y-100583308D01*
X138223486Y-100582816D01*
X138165826Y-100581180D01*
X138129600Y-100577741D01*
X138109855Y-100571838D01*
X138101639Y-100562811D01*
X138100000Y-100550000D01*
X138100187Y-100544337D01*
X138103881Y-100533131D01*
X138116150Y-100525443D01*
X138141945Y-100520613D01*
X138186217Y-100517980D01*
X138253918Y-100516885D01*
X138350000Y-100516667D01*
X138392472Y-100516691D01*
G37*
G36*
X146041307Y-101474822D02*
G01*
X146050000Y-101508333D01*
X146054894Y-101535511D01*
X146075000Y-101550000D01*
X146091517Y-101541536D01*
X146100000Y-101507111D01*
X146106057Y-101475711D01*
X146127115Y-101469611D01*
X146128730Y-101469954D01*
X146139537Y-101474932D01*
X146146844Y-101487507D01*
X146151150Y-101512824D01*
X146152953Y-101556027D01*
X146152751Y-101622260D01*
X146151042Y-101716667D01*
X146150826Y-101724479D01*
X146145856Y-101752904D01*
X146127287Y-101764473D01*
X146085278Y-101766667D01*
X146074835Y-101766536D01*
X146041331Y-101761903D01*
X146019669Y-101746473D01*
X146007299Y-101714624D01*
X146001669Y-101660729D01*
X146000228Y-101579167D01*
X146000440Y-101548208D01*
X146003493Y-101498779D01*
X146011225Y-101473663D01*
X146025000Y-101466667D01*
X146041307Y-101474822D01*
G37*
G36*
X139774750Y-101050626D02*
G01*
X139782548Y-101059953D01*
X139788860Y-101083456D01*
X139794080Y-101124964D01*
X139798603Y-101188309D01*
X139802824Y-101277322D01*
X139807140Y-101395833D01*
X139808043Y-101422223D01*
X139812015Y-101525818D01*
X139816201Y-101617937D01*
X139820311Y-101693121D01*
X139824053Y-101745906D01*
X139827136Y-101770833D01*
X139828440Y-101788241D01*
X139811135Y-101800000D01*
X139802082Y-101795894D01*
X139793562Y-101777375D01*
X139786966Y-101739597D01*
X139781527Y-101677868D01*
X139776480Y-101587500D01*
X139772643Y-101509519D01*
X139767105Y-101401479D01*
X139761569Y-101297620D01*
X139756800Y-101212500D01*
X139754869Y-101177365D01*
X139752657Y-101113235D01*
X139754347Y-101074368D01*
X139760446Y-101055158D01*
X139771458Y-101050000D01*
X139774750Y-101050626D01*
G37*
G36*
X145783334Y-101611898D02*
G01*
X145783300Y-101629746D01*
X145781941Y-101698100D01*
X145777934Y-101739948D01*
X145770368Y-101760926D01*
X145758334Y-101766667D01*
X145744091Y-101759764D01*
X145735728Y-101732378D01*
X145733334Y-101678185D01*
X145732630Y-101654296D01*
X145724358Y-101595801D01*
X145708864Y-101557352D01*
X145697631Y-101543036D01*
X145686466Y-101535484D01*
X145683864Y-101554167D01*
X145676002Y-101580357D01*
X145658625Y-101584119D01*
X145641239Y-101567529D01*
X145633334Y-101534317D01*
X145633604Y-101523380D01*
X145642034Y-101491667D01*
X145716667Y-101491667D01*
X145725000Y-101500000D01*
X145733334Y-101491667D01*
X145725000Y-101483333D01*
X145716667Y-101491667D01*
X145642034Y-101491667D01*
X145643631Y-101485658D01*
X145672954Y-101465929D01*
X145728162Y-101458961D01*
X145783334Y-101457130D01*
X145783334Y-101491667D01*
X145783334Y-101611898D01*
G37*
G36*
X146900000Y-101615708D02*
G01*
X146899984Y-101628015D01*
X146898714Y-101697201D01*
X146894755Y-101739582D01*
X146887164Y-101760843D01*
X146875000Y-101766667D01*
X146860758Y-101759764D01*
X146852395Y-101732378D01*
X146850000Y-101678185D01*
X146849296Y-101654296D01*
X146841025Y-101595801D01*
X146825531Y-101557352D01*
X146814298Y-101543036D01*
X146803132Y-101535484D01*
X146800531Y-101554167D01*
X146796233Y-101569676D01*
X146773945Y-101583333D01*
X146768190Y-101582837D01*
X146753860Y-101568423D01*
X146753111Y-101529167D01*
X146754649Y-101515190D01*
X146761684Y-101491667D01*
X146833334Y-101491667D01*
X146841667Y-101500000D01*
X146850000Y-101491667D01*
X146841667Y-101483333D01*
X146833334Y-101491667D01*
X146761684Y-101491667D01*
X146762874Y-101487687D01*
X146784371Y-101475188D01*
X146829167Y-101469875D01*
X146900000Y-101464750D01*
X146900000Y-101491667D01*
X146900000Y-101615708D01*
G37*
G36*
X146333334Y-101616667D02*
G01*
X146333321Y-101627567D01*
X146332074Y-101696968D01*
X146328127Y-101739487D01*
X146320530Y-101760821D01*
X146308334Y-101766667D01*
X146302945Y-101765961D01*
X146291083Y-101753240D01*
X146285029Y-101719768D01*
X146283334Y-101659317D01*
X146283087Y-101639483D01*
X146278598Y-101581888D01*
X146269548Y-101547060D01*
X146257349Y-101538521D01*
X146243414Y-101559792D01*
X146239710Y-101575791D01*
X146235125Y-101620464D01*
X146233334Y-101676363D01*
X146231262Y-101729156D01*
X146223509Y-101758335D01*
X146208334Y-101766667D01*
X146201457Y-101765431D01*
X146190501Y-101751245D01*
X146184991Y-101716221D01*
X146183561Y-101654167D01*
X146183667Y-101631042D01*
X146185909Y-101556869D01*
X146192974Y-101508969D01*
X146207412Y-101481718D01*
X146231774Y-101469492D01*
X146268611Y-101466667D01*
X146333334Y-101466667D01*
X146333334Y-101616667D01*
G37*
G36*
X144544716Y-100787464D02*
G01*
X144551189Y-100803501D01*
X144556525Y-100835037D01*
X144561034Y-100885639D01*
X144565027Y-100958872D01*
X144568815Y-101058304D01*
X144572708Y-101187500D01*
X144574667Y-101254270D01*
X144578576Y-101371889D01*
X144582757Y-101481079D01*
X144586946Y-101575615D01*
X144590878Y-101649274D01*
X144594290Y-101695833D01*
X144597657Y-101733939D01*
X144598525Y-101775320D01*
X144592534Y-101795000D01*
X144578629Y-101800000D01*
X144569289Y-101797029D01*
X144560430Y-101784838D01*
X144553019Y-101760378D01*
X144546787Y-101720643D01*
X144541463Y-101662621D01*
X144536780Y-101583305D01*
X144532468Y-101479686D01*
X144528259Y-101348753D01*
X144523883Y-101187500D01*
X144523241Y-101162178D01*
X144520434Y-101039571D01*
X144519034Y-100945931D01*
X144519165Y-100877575D01*
X144520952Y-100830820D01*
X144524517Y-100801983D01*
X144529986Y-100787382D01*
X144537481Y-100783333D01*
X144544716Y-100787464D01*
G37*
G36*
X146532756Y-101608235D02*
G01*
X146528903Y-101671893D01*
X146516678Y-101724972D01*
X146507838Y-101744338D01*
X146486000Y-101762573D01*
X146445845Y-101763557D01*
X146436782Y-101762584D01*
X146405877Y-101754231D01*
X146388864Y-101732486D01*
X146376799Y-101687500D01*
X146370301Y-101622307D01*
X146371572Y-101607350D01*
X146433334Y-101607350D01*
X146433366Y-101613439D01*
X146437335Y-101668602D01*
X146446593Y-101702456D01*
X146459210Y-101710993D01*
X146473254Y-101690208D01*
X146481663Y-101647347D01*
X146481996Y-101590133D01*
X146473217Y-101543030D01*
X146459181Y-101518638D01*
X146445984Y-101521193D01*
X146436787Y-101551701D01*
X146433334Y-101607350D01*
X146371572Y-101607350D01*
X146376799Y-101545833D01*
X146377750Y-101541355D01*
X146390329Y-101498019D01*
X146408618Y-101477307D01*
X146440845Y-101469403D01*
X146474978Y-101470405D01*
X146511679Y-101493422D01*
X146516474Y-101501647D01*
X146528518Y-101547113D01*
X146531501Y-101590133D01*
X146532756Y-101608235D01*
G37*
G36*
X147463691Y-101605723D02*
G01*
X147460389Y-101671539D01*
X147446227Y-101727426D01*
X147422541Y-101762193D01*
X147394966Y-101775327D01*
X147355075Y-101779666D01*
X147322079Y-101770784D01*
X147308334Y-101750000D01*
X147318245Y-101732271D01*
X147350000Y-101719153D01*
X147379441Y-101712260D01*
X147402858Y-101696210D01*
X147397521Y-101679009D01*
X147362052Y-101666667D01*
X147336950Y-101661363D01*
X147312339Y-101644213D01*
X147303352Y-101607395D01*
X147302003Y-101584883D01*
X147302780Y-101579167D01*
X147350256Y-101579167D01*
X147356241Y-101592615D01*
X147379646Y-101599971D01*
X147404970Y-101589475D01*
X147407629Y-101575802D01*
X147397623Y-101545557D01*
X147394379Y-101539687D01*
X147379259Y-101523087D01*
X147365131Y-101535248D01*
X147358904Y-101547022D01*
X147350256Y-101579167D01*
X147302780Y-101579167D01*
X147310586Y-101521710D01*
X147337823Y-101481053D01*
X147381629Y-101466667D01*
X147409858Y-101469467D01*
X147433074Y-101486405D01*
X147450653Y-101526976D01*
X147454795Y-101541170D01*
X147459568Y-101575802D01*
X147463691Y-101605723D01*
G37*
G36*
X145968679Y-101712316D02*
G01*
X145959017Y-101748895D01*
X145955763Y-101752248D01*
X145926930Y-101762527D01*
X145882350Y-101766667D01*
X145816667Y-101766667D01*
X145816667Y-101654808D01*
X145874953Y-101654808D01*
X145877748Y-101697107D01*
X145882615Y-101712211D01*
X145897732Y-101731961D01*
X145910983Y-101721663D01*
X145916667Y-101683333D01*
X145916666Y-101682724D01*
X145911997Y-101647820D01*
X145900984Y-101633333D01*
X145892474Y-101634459D01*
X145874953Y-101654808D01*
X145816667Y-101654808D01*
X145816667Y-101624587D01*
X145817056Y-101559679D01*
X145819630Y-101514951D01*
X145826465Y-101489293D01*
X145839633Y-101475302D01*
X145861208Y-101465574D01*
X145896936Y-101456407D01*
X145927875Y-101457130D01*
X145946967Y-101472147D01*
X145944737Y-101494806D01*
X145916667Y-101511837D01*
X145905437Y-101516211D01*
X145886374Y-101535840D01*
X145885865Y-101556859D01*
X145906293Y-101566667D01*
X145921266Y-101570289D01*
X145949626Y-101591216D01*
X145960505Y-101614185D01*
X145968836Y-101661717D01*
X145968769Y-101683333D01*
X145968679Y-101712316D01*
G37*
G36*
X145597639Y-101668932D02*
G01*
X145591067Y-101718732D01*
X145580000Y-101746667D01*
X145579540Y-101747113D01*
X145549165Y-101760938D01*
X145505000Y-101766667D01*
X145450000Y-101766667D01*
X145450000Y-101607223D01*
X145501211Y-101607223D01*
X145507270Y-101660028D01*
X145509392Y-101667890D01*
X145523048Y-101696686D01*
X145536195Y-101695603D01*
X145546092Y-101667511D01*
X145550000Y-101615278D01*
X145548933Y-101578369D01*
X145542419Y-101544283D01*
X145529167Y-101537416D01*
X145526936Y-101538303D01*
X145508438Y-101562889D01*
X145501211Y-101607223D01*
X145450000Y-101607223D01*
X145450000Y-101558333D01*
X145450001Y-101556494D01*
X145450614Y-101468788D01*
X145452818Y-101409298D01*
X145457217Y-101373013D01*
X145464410Y-101354917D01*
X145475000Y-101350000D01*
X145492547Y-101360305D01*
X145500000Y-101400000D01*
X145500297Y-101411978D01*
X145508708Y-101441874D01*
X145532747Y-101450000D01*
X145555122Y-101456099D01*
X145582747Y-101482237D01*
X145589223Y-101500135D01*
X145596833Y-101548454D01*
X145599600Y-101608446D01*
X145599379Y-101615278D01*
X145597639Y-101668932D01*
G37*
G36*
X147083334Y-101616667D02*
G01*
X147082440Y-101658864D01*
X147078765Y-101709805D01*
X147073217Y-101740303D01*
X147056548Y-101755977D01*
X147021290Y-101766019D01*
X146980714Y-101767312D01*
X146947251Y-101759637D01*
X146933334Y-101742774D01*
X146944578Y-101725356D01*
X146977882Y-101713607D01*
X147001052Y-101708963D01*
X147025842Y-101693044D01*
X147020488Y-101673988D01*
X146984217Y-101658527D01*
X146983208Y-101658304D01*
X146950269Y-101647188D01*
X146936260Y-101626073D01*
X146933827Y-101590571D01*
X146966667Y-101590571D01*
X146972880Y-101596036D01*
X147000000Y-101600000D01*
X147008444Y-101598838D01*
X147029565Y-101580058D01*
X147033817Y-101550374D01*
X147017503Y-101525517D01*
X147013187Y-101524520D01*
X146994041Y-101536775D01*
X146975185Y-101563078D01*
X146966667Y-101590571D01*
X146933827Y-101590571D01*
X146933334Y-101583372D01*
X146935093Y-101535191D01*
X146945314Y-101492814D01*
X146968344Y-101472126D01*
X147008334Y-101466667D01*
X147028650Y-101467529D01*
X147057184Y-101476495D01*
X147073761Y-101500243D01*
X147081453Y-101544918D01*
X147081596Y-101550374D01*
X147083334Y-101616667D01*
G37*
G36*
X142576364Y-98856550D02*
G01*
X142580485Y-98857627D01*
X142614246Y-98861175D01*
X142672483Y-98864045D01*
X142748273Y-98865966D01*
X142834697Y-98866667D01*
X142930967Y-98867806D01*
X143004260Y-98871115D01*
X143050541Y-98876366D01*
X143066667Y-98883333D01*
X143066163Y-98885520D01*
X143046890Y-98895814D01*
X143008334Y-98900000D01*
X142950000Y-98900000D01*
X142950000Y-100016667D01*
X143008334Y-100016667D01*
X143015989Y-100016810D01*
X143052016Y-100022317D01*
X143066667Y-100033333D01*
X143061052Y-100037140D01*
X143026245Y-100042602D01*
X142961416Y-100046639D01*
X142868643Y-100049141D01*
X142750000Y-100050000D01*
X142677668Y-100049704D01*
X142573886Y-100047872D01*
X142497185Y-100044460D01*
X142449643Y-100039577D01*
X142433334Y-100033333D01*
X142433838Y-100031146D01*
X142453111Y-100020853D01*
X142491667Y-100016667D01*
X142550000Y-100016667D01*
X142550000Y-99431550D01*
X142550004Y-99399313D01*
X142550173Y-99249556D01*
X142550699Y-99129424D01*
X142551725Y-99035805D01*
X142553393Y-98965586D01*
X142555846Y-98915655D01*
X142559227Y-98882898D01*
X142563679Y-98864204D01*
X142569343Y-98856458D01*
X142576364Y-98856550D01*
G37*
G36*
X141643030Y-98856550D02*
G01*
X141647152Y-98857627D01*
X141680913Y-98861175D01*
X141739149Y-98864045D01*
X141814940Y-98865966D01*
X141901364Y-98866667D01*
X141921864Y-98866720D01*
X142006630Y-98868229D01*
X142073576Y-98871557D01*
X142117533Y-98876356D01*
X142133334Y-98882277D01*
X142133185Y-98883452D01*
X142116061Y-98895347D01*
X142079167Y-98903111D01*
X142025000Y-98908333D01*
X142016218Y-100016667D01*
X142074776Y-100016667D01*
X142082625Y-100016817D01*
X142118678Y-100022334D01*
X142133334Y-100033333D01*
X142127719Y-100037140D01*
X142092911Y-100042602D01*
X142028083Y-100046639D01*
X141935309Y-100049141D01*
X141816667Y-100050000D01*
X141744334Y-100049704D01*
X141640552Y-100047872D01*
X141563852Y-100044460D01*
X141516309Y-100039577D01*
X141500000Y-100033333D01*
X141500504Y-100031146D01*
X141519777Y-100020853D01*
X141558334Y-100016667D01*
X141616667Y-100016667D01*
X141616667Y-99431550D01*
X141616671Y-99399313D01*
X141616840Y-99249556D01*
X141617366Y-99129424D01*
X141618392Y-99035805D01*
X141620060Y-98965586D01*
X141622513Y-98915655D01*
X141625894Y-98882898D01*
X141630345Y-98864204D01*
X141636010Y-98856458D01*
X141643030Y-98856550D01*
G37*
G36*
X140174000Y-100910256D02*
G01*
X140192986Y-100932418D01*
X140200000Y-100985116D01*
X140200049Y-100996253D01*
X140203466Y-101032558D01*
X140217633Y-101047251D01*
X140250000Y-101050000D01*
X140285093Y-101055152D01*
X140300000Y-101075000D01*
X140289126Y-101092845D01*
X140248991Y-101100000D01*
X140197982Y-101100000D01*
X140206914Y-101212500D01*
X140211843Y-101277125D01*
X140220490Y-101408329D01*
X140226133Y-101522728D01*
X140228638Y-101616236D01*
X140227873Y-101684769D01*
X140223702Y-101724242D01*
X140207103Y-101757808D01*
X140160255Y-101792763D01*
X140145249Y-101799178D01*
X140105239Y-101812719D01*
X140069098Y-101814502D01*
X140018750Y-101806250D01*
X140012295Y-101804894D01*
X139975373Y-101792325D01*
X139969639Y-101779918D01*
X139993290Y-101770441D01*
X140044521Y-101766667D01*
X140096865Y-101763720D01*
X140140748Y-101749306D01*
X140167097Y-101717991D01*
X140179947Y-101664446D01*
X140183334Y-101583343D01*
X140183065Y-101550629D01*
X140180973Y-101465235D01*
X140177260Y-101369145D01*
X140172468Y-101277593D01*
X140161602Y-101100000D01*
X140047468Y-101100000D01*
X140014516Y-101099694D01*
X139965309Y-101096493D01*
X139940301Y-101088711D01*
X139933334Y-101075000D01*
X139935278Y-101066741D01*
X139951086Y-101056582D01*
X139987921Y-101051431D01*
X140051893Y-101050000D01*
X140170452Y-101050000D01*
X140159226Y-100975139D01*
X140157908Y-100966167D01*
X140153863Y-100925155D01*
X140158706Y-100908801D01*
X140174000Y-100910256D01*
G37*
G36*
X137653266Y-101046074D02*
G01*
X137726785Y-101070076D01*
X137779167Y-101108376D01*
X137788791Y-101120314D01*
X137814483Y-101172162D01*
X137813923Y-101226812D01*
X137786028Y-101286871D01*
X137729711Y-101354950D01*
X137643887Y-101433658D01*
X137625186Y-101449583D01*
X137550907Y-101519211D01*
X137504409Y-101577206D01*
X137484245Y-101626761D01*
X137488967Y-101671069D01*
X137517128Y-101713322D01*
X137552189Y-101742128D01*
X137598939Y-101759744D01*
X137663001Y-101765713D01*
X137751824Y-101761567D01*
X137810166Y-101758642D01*
X137851342Y-101760637D01*
X137866667Y-101767319D01*
X137866191Y-101770483D01*
X137852244Y-101782579D01*
X137815207Y-101793718D01*
X137750000Y-101805564D01*
X137654543Y-101812030D01*
X137568713Y-101797718D01*
X137504387Y-101762453D01*
X137463993Y-101707617D01*
X137449959Y-101634595D01*
X137449965Y-101628657D01*
X137451291Y-101598232D01*
X137457620Y-101572519D01*
X137472823Y-101546024D01*
X137500769Y-101513253D01*
X137545329Y-101468712D01*
X137610375Y-101406907D01*
X137618126Y-101399575D01*
X137691905Y-101326830D01*
X137741166Y-101270099D01*
X137767566Y-101225306D01*
X137772760Y-101188371D01*
X137758404Y-101155217D01*
X137726154Y-101121765D01*
X137708714Y-101108224D01*
X137676317Y-101092677D01*
X137632246Y-101085239D01*
X137565738Y-101083333D01*
X137502379Y-101080871D01*
X137463113Y-101074094D01*
X137452304Y-101064505D01*
X137471562Y-101053609D01*
X137522499Y-101042913D01*
X137568671Y-101038937D01*
X137653266Y-101046074D01*
G37*
G36*
X141131927Y-101050000D02*
G01*
X141149626Y-101054555D01*
X141170417Y-101079167D01*
X141170521Y-101079555D01*
X141180427Y-101106932D01*
X141200811Y-101157036D01*
X141229314Y-101224530D01*
X141263579Y-101304076D01*
X141301248Y-101390335D01*
X141339964Y-101477970D01*
X141377368Y-101561643D01*
X141411102Y-101636017D01*
X141438810Y-101695753D01*
X141458133Y-101735513D01*
X141466713Y-101749961D01*
X141469177Y-101746407D01*
X141481665Y-101717894D01*
X141502696Y-101664547D01*
X141530570Y-101590824D01*
X141563587Y-101501188D01*
X141600046Y-101400100D01*
X141642641Y-101282404D01*
X141677300Y-101190672D01*
X141704372Y-101124626D01*
X141725191Y-101081215D01*
X141741095Y-101057390D01*
X141753420Y-101050100D01*
X141756079Y-101050142D01*
X141768133Y-101054440D01*
X141769900Y-101070324D01*
X141760581Y-101104206D01*
X141739374Y-101162500D01*
X141728630Y-101191018D01*
X141703034Y-101259157D01*
X141670671Y-101345458D01*
X141634609Y-101441724D01*
X141597917Y-101539759D01*
X141563664Y-101631364D01*
X141534919Y-101708344D01*
X141514750Y-101762500D01*
X141499388Y-101786054D01*
X141471203Y-101800000D01*
X141459905Y-101794437D01*
X141441398Y-101771855D01*
X141415961Y-101729357D01*
X141382116Y-101664232D01*
X141338385Y-101573770D01*
X141283290Y-101455259D01*
X141246891Y-101376034D01*
X141198975Y-101271684D01*
X141162779Y-101192222D01*
X141137046Y-101134283D01*
X141120518Y-101094497D01*
X141111937Y-101069497D01*
X141110045Y-101055915D01*
X141113585Y-101050384D01*
X141121298Y-101049534D01*
X141131927Y-101050000D01*
G37*
G36*
X142566667Y-101435900D02*
G01*
X142563773Y-101517869D01*
X142553486Y-101581056D01*
X142534065Y-101631901D01*
X142522000Y-101653291D01*
X142472050Y-101716859D01*
X142412355Y-101766428D01*
X142352883Y-101793129D01*
X142319505Y-101801109D01*
X142291667Y-101809196D01*
X142290409Y-101809626D01*
X142256417Y-101812135D01*
X142203164Y-101808177D01*
X142142867Y-101799489D01*
X142087745Y-101787807D01*
X142050018Y-101774866D01*
X141991895Y-101734875D01*
X141929945Y-101657734D01*
X141889196Y-101555677D01*
X141870065Y-101429506D01*
X141870000Y-101428409D01*
X141869261Y-101408333D01*
X141911748Y-101408333D01*
X141911760Y-101409709D01*
X141925250Y-101522926D01*
X141961759Y-101618950D01*
X142019153Y-101693880D01*
X142095299Y-101743814D01*
X142129835Y-101754879D01*
X142208195Y-101764837D01*
X142290324Y-101760939D01*
X142359160Y-101743223D01*
X142388955Y-101727507D01*
X142454014Y-101669012D01*
X142500805Y-101589285D01*
X142526218Y-101494825D01*
X142527145Y-101392133D01*
X142507056Y-101299022D01*
X142461800Y-101207158D01*
X142395221Y-101139477D01*
X142309058Y-101097647D01*
X142205048Y-101083333D01*
X142193537Y-101083473D01*
X142093246Y-101099178D01*
X142014187Y-101140331D01*
X141957095Y-101206117D01*
X141922703Y-101295722D01*
X141911748Y-101408333D01*
X141869261Y-101408333D01*
X141867405Y-101357914D01*
X141871065Y-101307137D01*
X141883151Y-101262883D01*
X141905832Y-101211955D01*
X141950485Y-101140633D01*
X142014408Y-101084785D01*
X142096717Y-101053138D01*
X142201874Y-101043147D01*
X142278783Y-101048326D01*
X142381361Y-101077073D01*
X142461836Y-101130632D01*
X142519811Y-101208575D01*
X142554887Y-101310473D01*
X142562556Y-101392133D01*
X142566667Y-101435900D01*
G37*
G36*
X139566667Y-101435900D02*
G01*
X139563773Y-101517869D01*
X139553486Y-101581056D01*
X139534065Y-101631901D01*
X139522000Y-101653291D01*
X139472050Y-101716859D01*
X139412355Y-101766428D01*
X139352883Y-101793129D01*
X139319505Y-101801109D01*
X139291667Y-101809196D01*
X139290409Y-101809626D01*
X139256417Y-101812135D01*
X139203164Y-101808177D01*
X139142867Y-101799489D01*
X139087745Y-101787807D01*
X139050018Y-101774866D01*
X138991895Y-101734875D01*
X138929945Y-101657734D01*
X138889196Y-101555677D01*
X138870065Y-101429506D01*
X138870000Y-101428409D01*
X138869261Y-101408333D01*
X138911748Y-101408333D01*
X138911760Y-101409709D01*
X138925250Y-101522926D01*
X138961759Y-101618950D01*
X139019153Y-101693880D01*
X139095299Y-101743814D01*
X139129835Y-101754879D01*
X139208195Y-101764837D01*
X139290324Y-101760939D01*
X139359160Y-101743223D01*
X139388955Y-101727507D01*
X139454014Y-101669012D01*
X139500805Y-101589285D01*
X139526218Y-101494825D01*
X139527145Y-101392133D01*
X139507056Y-101299022D01*
X139461800Y-101207158D01*
X139395221Y-101139477D01*
X139309058Y-101097647D01*
X139205048Y-101083333D01*
X139193537Y-101083473D01*
X139093246Y-101099178D01*
X139014187Y-101140331D01*
X138957095Y-101206117D01*
X138922703Y-101295722D01*
X138911748Y-101408333D01*
X138869261Y-101408333D01*
X138867405Y-101357914D01*
X138871065Y-101307137D01*
X138883151Y-101262883D01*
X138905832Y-101211955D01*
X138950485Y-101140633D01*
X139014408Y-101084785D01*
X139096717Y-101053138D01*
X139201874Y-101043147D01*
X139278783Y-101048326D01*
X139381361Y-101077073D01*
X139461836Y-101130632D01*
X139519811Y-101208575D01*
X139554887Y-101310473D01*
X139562556Y-101392133D01*
X139566667Y-101435900D01*
G37*
G36*
X139370834Y-99306162D02*
G01*
X139371923Y-99306433D01*
X139404449Y-99310260D01*
X139461980Y-99313417D01*
X139536711Y-99315584D01*
X139620834Y-99316439D01*
X139699521Y-99317430D01*
X139771486Y-99320758D01*
X139817278Y-99326153D01*
X139833334Y-99333333D01*
X139833330Y-99333541D01*
X139818440Y-99345172D01*
X139783334Y-99350000D01*
X139733334Y-99350000D01*
X139733334Y-100016667D01*
X139783334Y-100016667D01*
X139783956Y-100016668D01*
X139818851Y-100021631D01*
X139833334Y-100033333D01*
X139828720Y-100036837D01*
X139795664Y-100042421D01*
X139732590Y-100046554D01*
X139641651Y-100049119D01*
X139525000Y-100050000D01*
X139439754Y-100049482D01*
X139348274Y-100047476D01*
X139277879Y-100044155D01*
X139232650Y-100039723D01*
X139216667Y-100034389D01*
X139216816Y-100033215D01*
X139233940Y-100021320D01*
X139270834Y-100013556D01*
X139325000Y-100008333D01*
X139325000Y-99783333D01*
X139324924Y-99742258D01*
X139323805Y-99660162D01*
X139320739Y-99602328D01*
X139314948Y-99562285D01*
X139305652Y-99533562D01*
X139292074Y-99509687D01*
X139259147Y-99461040D01*
X139247968Y-99515697D01*
X139247026Y-99520141D01*
X139224833Y-99577105D01*
X139184659Y-99611205D01*
X139119765Y-99628365D01*
X139072354Y-99631069D01*
X139038236Y-99619170D01*
X139000805Y-99586702D01*
X138969179Y-99545179D01*
X138948242Y-99479513D01*
X138956069Y-99413621D01*
X138992934Y-99355551D01*
X139021747Y-99330894D01*
X139055856Y-99319146D01*
X139105339Y-99321936D01*
X139153218Y-99333818D01*
X139196779Y-99359983D01*
X139246656Y-99407293D01*
X139281387Y-99443121D01*
X139311528Y-99472184D01*
X139325917Y-99483333D01*
X139329047Y-99474535D01*
X139332138Y-99440539D01*
X139333334Y-99389723D01*
X139334035Y-99340599D01*
X139338378Y-99311812D01*
X139349575Y-99302717D01*
X139370834Y-99306162D01*
G37*
G36*
X143952610Y-101044829D02*
G01*
X144055895Y-101062403D01*
X144136179Y-101102145D01*
X144195614Y-101164965D01*
X144233334Y-101221596D01*
X144233334Y-101135798D01*
X144234419Y-101103520D01*
X144239744Y-101065017D01*
X144248019Y-101050000D01*
X144253815Y-101057324D01*
X144259857Y-101083314D01*
X144265853Y-101130452D01*
X144272011Y-101201172D01*
X144278541Y-101297909D01*
X144285653Y-101423095D01*
X144293555Y-101579167D01*
X144295163Y-101613221D01*
X144298229Y-101693761D01*
X144298508Y-101747721D01*
X144295682Y-101780090D01*
X144289431Y-101795854D01*
X144279437Y-101800000D01*
X144275977Y-101799539D01*
X144266711Y-101790540D01*
X144259748Y-101766539D01*
X144254461Y-101722953D01*
X144250222Y-101655201D01*
X144246405Y-101558699D01*
X144243872Y-101490495D01*
X144239629Y-101410728D01*
X144233926Y-101352609D01*
X144225686Y-101309111D01*
X144213834Y-101273206D01*
X144197294Y-101237865D01*
X144173783Y-101198420D01*
X144111221Y-101133909D01*
X144030322Y-101096109D01*
X143928632Y-101083607D01*
X143873559Y-101085694D01*
X143787994Y-101102893D01*
X143727595Y-101138397D01*
X143689893Y-101193342D01*
X143679456Y-101229079D01*
X143673290Y-101279205D01*
X143671582Y-101347141D01*
X143674358Y-101436690D01*
X143681646Y-101551653D01*
X143693474Y-101695833D01*
X143695810Y-101725158D01*
X143696920Y-101771188D01*
X143691390Y-101793910D01*
X143678245Y-101800000D01*
X143670134Y-101796034D01*
X143662633Y-101779361D01*
X143656551Y-101745797D01*
X143651383Y-101691234D01*
X143646626Y-101611562D01*
X143641776Y-101502672D01*
X143640939Y-101481816D01*
X143637233Y-101377384D01*
X143635760Y-101299951D01*
X143636750Y-101244155D01*
X143640434Y-101204632D01*
X143647043Y-101176019D01*
X143656806Y-101152954D01*
X143678339Y-101119985D01*
X143731312Y-101077165D01*
X143806733Y-101052297D01*
X143908334Y-101043762D01*
X143952610Y-101044829D01*
G37*
G36*
X143085943Y-101044829D02*
G01*
X143189228Y-101062403D01*
X143269512Y-101102145D01*
X143328947Y-101164965D01*
X143366667Y-101221596D01*
X143366667Y-101135798D01*
X143367752Y-101103520D01*
X143373078Y-101065017D01*
X143381352Y-101050000D01*
X143387148Y-101057324D01*
X143393191Y-101083314D01*
X143399186Y-101130452D01*
X143405344Y-101201172D01*
X143411874Y-101297909D01*
X143418986Y-101423095D01*
X143426888Y-101579167D01*
X143428496Y-101613221D01*
X143431562Y-101693761D01*
X143431841Y-101747721D01*
X143429015Y-101780090D01*
X143422765Y-101795854D01*
X143412771Y-101800000D01*
X143409310Y-101799539D01*
X143400044Y-101790540D01*
X143393081Y-101766539D01*
X143387794Y-101722953D01*
X143383555Y-101655201D01*
X143379738Y-101558699D01*
X143377206Y-101490495D01*
X143372963Y-101410728D01*
X143367259Y-101352609D01*
X143359019Y-101309111D01*
X143347167Y-101273206D01*
X143330628Y-101237865D01*
X143307117Y-101198420D01*
X143244554Y-101133909D01*
X143163655Y-101096109D01*
X143061965Y-101083607D01*
X143006892Y-101085694D01*
X142921327Y-101102893D01*
X142860928Y-101138397D01*
X142823226Y-101193342D01*
X142812790Y-101229079D01*
X142806624Y-101279205D01*
X142804915Y-101347141D01*
X142807692Y-101436690D01*
X142814980Y-101551653D01*
X142826807Y-101695833D01*
X142829144Y-101725158D01*
X142830253Y-101771188D01*
X142824723Y-101793910D01*
X142811579Y-101800000D01*
X142803467Y-101796034D01*
X142795966Y-101779361D01*
X142789884Y-101745797D01*
X142784716Y-101691234D01*
X142779959Y-101611562D01*
X142775109Y-101502672D01*
X142774272Y-101481816D01*
X142770566Y-101377384D01*
X142769093Y-101299951D01*
X142770083Y-101244155D01*
X142773768Y-101204632D01*
X142780376Y-101176019D01*
X142790140Y-101152954D01*
X142811672Y-101119985D01*
X142864645Y-101077165D01*
X142940066Y-101052297D01*
X143041667Y-101043762D01*
X143085943Y-101044829D01*
G37*
G36*
X138335943Y-101044829D02*
G01*
X138439228Y-101062403D01*
X138519512Y-101102145D01*
X138578947Y-101164965D01*
X138616667Y-101221596D01*
X138616667Y-101135798D01*
X138617752Y-101103520D01*
X138623078Y-101065017D01*
X138631352Y-101050000D01*
X138637148Y-101057324D01*
X138643191Y-101083314D01*
X138649186Y-101130452D01*
X138655344Y-101201172D01*
X138661874Y-101297909D01*
X138668986Y-101423095D01*
X138676888Y-101579167D01*
X138678496Y-101613221D01*
X138681562Y-101693761D01*
X138681841Y-101747721D01*
X138679015Y-101780090D01*
X138672765Y-101795854D01*
X138662771Y-101800000D01*
X138659310Y-101799539D01*
X138650044Y-101790540D01*
X138643081Y-101766539D01*
X138637794Y-101722953D01*
X138633555Y-101655201D01*
X138629738Y-101558699D01*
X138627206Y-101490495D01*
X138622963Y-101410728D01*
X138617259Y-101352609D01*
X138609019Y-101309111D01*
X138597167Y-101273206D01*
X138580628Y-101237865D01*
X138557117Y-101198420D01*
X138494554Y-101133909D01*
X138413655Y-101096109D01*
X138311965Y-101083607D01*
X138256892Y-101085694D01*
X138171327Y-101102893D01*
X138110928Y-101138397D01*
X138073226Y-101193342D01*
X138062790Y-101229079D01*
X138056624Y-101279205D01*
X138054915Y-101347141D01*
X138057692Y-101436690D01*
X138064980Y-101551653D01*
X138076807Y-101695833D01*
X138079144Y-101725158D01*
X138080253Y-101771188D01*
X138074723Y-101793910D01*
X138061579Y-101800000D01*
X138053467Y-101796034D01*
X138045966Y-101779361D01*
X138039884Y-101745797D01*
X138034716Y-101691234D01*
X138029959Y-101611562D01*
X138025109Y-101502672D01*
X138024272Y-101481816D01*
X138020566Y-101377384D01*
X138019093Y-101299951D01*
X138020083Y-101244155D01*
X138023768Y-101204632D01*
X138030376Y-101176019D01*
X138040140Y-101152954D01*
X138061672Y-101119985D01*
X138114645Y-101077165D01*
X138190066Y-101052297D01*
X138291667Y-101043762D01*
X138335943Y-101044829D01*
G37*
G36*
X138575918Y-99706497D02*
G01*
X138564857Y-99799026D01*
X138538641Y-99875000D01*
X138489052Y-99948809D01*
X138428486Y-100009826D01*
X138366667Y-100047988D01*
X138328583Y-100058862D01*
X138247527Y-100065504D01*
X138163129Y-100056705D01*
X138091667Y-100033333D01*
X138085430Y-100030148D01*
X138043751Y-100009285D01*
X138023551Y-100003065D01*
X138017100Y-100011704D01*
X138016667Y-100035417D01*
X138014761Y-100054009D01*
X138000700Y-100064627D01*
X137964584Y-100060417D01*
X137929173Y-100056454D01*
X137868234Y-100053101D01*
X137791038Y-100050833D01*
X137706250Y-100050000D01*
X137633349Y-100049177D01*
X137561709Y-100045957D01*
X137516038Y-100040577D01*
X137500000Y-100033333D01*
X137500504Y-100031146D01*
X137519777Y-100020853D01*
X137558334Y-100016667D01*
X137616667Y-100016667D01*
X137616667Y-99788942D01*
X138019681Y-99788942D01*
X138021770Y-99875038D01*
X138026395Y-99932285D01*
X138033458Y-99958482D01*
X138062019Y-99980474D01*
X138105075Y-99988529D01*
X138141960Y-99972326D01*
X138143284Y-99970920D01*
X138152848Y-99953014D01*
X138159538Y-99921182D01*
X138163785Y-99870577D01*
X138166018Y-99796352D01*
X138166667Y-99693662D01*
X138166239Y-99609781D01*
X138163644Y-99520770D01*
X138157602Y-99457941D01*
X138146872Y-99417175D01*
X138130218Y-99394354D01*
X138106399Y-99385359D01*
X138074179Y-99386070D01*
X138025000Y-99391667D01*
X138020412Y-99664450D01*
X138020224Y-99676200D01*
X138019681Y-99788942D01*
X137616667Y-99788942D01*
X137616667Y-98846112D01*
X137654167Y-98856162D01*
X137656753Y-98856753D01*
X137691379Y-98860469D01*
X137750610Y-98863524D01*
X137826850Y-98865615D01*
X137912500Y-98866439D01*
X137998737Y-98867537D01*
X138071253Y-98870892D01*
X138117249Y-98876244D01*
X138133334Y-98883333D01*
X138132830Y-98885520D01*
X138113557Y-98895814D01*
X138075000Y-98900000D01*
X138016667Y-98900000D01*
X138016667Y-99353888D01*
X138054167Y-99342831D01*
X138065306Y-99339822D01*
X138130762Y-99328127D01*
X138208159Y-99320839D01*
X138282684Y-99318962D01*
X138339524Y-99323498D01*
X138413683Y-99353013D01*
X138482286Y-99410324D01*
X138537845Y-99489596D01*
X138552685Y-99524255D01*
X138571852Y-99610533D01*
X138575374Y-99693662D01*
X138575918Y-99706497D01*
G37*
G36*
X140831647Y-101045589D02*
G01*
X140904167Y-101055208D01*
X140938472Y-101063400D01*
X140964820Y-101074278D01*
X140960985Y-101082645D01*
X140928848Y-101087981D01*
X140870292Y-101089768D01*
X140787200Y-101087486D01*
X140737359Y-101085200D01*
X140673655Y-101083326D01*
X140631118Y-101085090D01*
X140602083Y-101091702D01*
X140578887Y-101104370D01*
X140553866Y-101124304D01*
X140534541Y-101142984D01*
X140505838Y-101194505D01*
X140507158Y-101246679D01*
X140536534Y-101295460D01*
X140592001Y-101336797D01*
X140671592Y-101366644D01*
X140747407Y-101386438D01*
X140859104Y-101420444D01*
X140943230Y-101454274D01*
X141003387Y-101489817D01*
X141043179Y-101528964D01*
X141066206Y-101573602D01*
X141070517Y-101588477D01*
X141073791Y-101661307D01*
X141047826Y-101724343D01*
X140995877Y-101772488D01*
X140921196Y-101800648D01*
X140869251Y-101809948D01*
X140826977Y-101814015D01*
X140782664Y-101812520D01*
X140720834Y-101805867D01*
X140676399Y-101799070D01*
X140638959Y-101788177D01*
X140631565Y-101777487D01*
X140652331Y-101768624D01*
X140699369Y-101763209D01*
X140770795Y-101762868D01*
X140798717Y-101763544D01*
X140882649Y-101760570D01*
X140942300Y-101747406D01*
X140984121Y-101721908D01*
X141014559Y-101681937D01*
X141029480Y-101631924D01*
X141018607Y-101571302D01*
X140978965Y-101515527D01*
X140972032Y-101509103D01*
X140946324Y-101488807D01*
X140914714Y-101471088D01*
X140870624Y-101453167D01*
X140807472Y-101432265D01*
X140718679Y-101405602D01*
X140697178Y-101399121D01*
X140629315Y-101376539D01*
X140572638Y-101354682D01*
X140537653Y-101337504D01*
X140496282Y-101310397D01*
X140507744Y-101526032D01*
X140508293Y-101536219D01*
X140513303Y-101619057D01*
X140518550Y-101690679D01*
X140523444Y-101743725D01*
X140527393Y-101770833D01*
X140528381Y-101788756D01*
X140509457Y-101800000D01*
X140496839Y-101797399D01*
X140483185Y-101779167D01*
X140482695Y-101766858D01*
X140480477Y-101724776D01*
X140476785Y-101659582D01*
X140471963Y-101577330D01*
X140466356Y-101484073D01*
X140460417Y-101373748D01*
X140457918Y-101277840D01*
X140460567Y-101206328D01*
X140469177Y-101154602D01*
X140484560Y-101118049D01*
X140507526Y-101092058D01*
X140538889Y-101072017D01*
X140541812Y-101070574D01*
X140592850Y-101055793D01*
X140665297Y-101046373D01*
X140748460Y-101042808D01*
X140831647Y-101045589D01*
G37*
G36*
X141166806Y-99863927D02*
G01*
X141152938Y-99929858D01*
X141112269Y-99988736D01*
X141044729Y-100034277D01*
X140989510Y-100052903D01*
X140892041Y-100065530D01*
X140791807Y-100059065D01*
X140703627Y-100033540D01*
X140669616Y-100018556D01*
X140638188Y-100009627D01*
X140612604Y-100014711D01*
X140578627Y-100033844D01*
X140549451Y-100048403D01*
X140470894Y-100066690D01*
X140384678Y-100064963D01*
X140300417Y-100045036D01*
X140227724Y-100008726D01*
X140176215Y-99957847D01*
X140161163Y-99928305D01*
X140158390Y-99904894D01*
X140169605Y-99900805D01*
X140191921Y-99922528D01*
X140208342Y-99941164D01*
X140224947Y-99945904D01*
X140236813Y-99926581D01*
X140244541Y-99880898D01*
X140246929Y-99838579D01*
X140633334Y-99838579D01*
X140633417Y-99866580D01*
X140635195Y-99919588D01*
X140641199Y-99950748D01*
X140653904Y-99968343D01*
X140675785Y-99980658D01*
X140713397Y-99994473D01*
X140754329Y-99994961D01*
X140781055Y-99970228D01*
X140795602Y-99917904D01*
X140800000Y-99835619D01*
X140799496Y-99808034D01*
X140791673Y-99745121D01*
X140773810Y-99709524D01*
X140771705Y-99707434D01*
X140746414Y-99687973D01*
X140719231Y-99685835D01*
X140676085Y-99699587D01*
X140665225Y-99703997D01*
X140647544Y-99715940D01*
X140637992Y-99736964D01*
X140634084Y-99775149D01*
X140633334Y-99838579D01*
X140246929Y-99838579D01*
X140248736Y-99806558D01*
X140250000Y-99701264D01*
X140250246Y-99645061D01*
X140253058Y-99553645D01*
X140260804Y-99487190D01*
X140275689Y-99440123D01*
X140299919Y-99406871D01*
X140335698Y-99381860D01*
X140385233Y-99359518D01*
X140465895Y-99336305D01*
X140568109Y-99320860D01*
X140679934Y-99314024D01*
X140790977Y-99316013D01*
X140890847Y-99327045D01*
X140969152Y-99347336D01*
X140990200Y-99357759D01*
X141035466Y-99400469D01*
X141061747Y-99456765D01*
X141065690Y-99516662D01*
X141043946Y-99570178D01*
X141021492Y-99592403D01*
X140967681Y-99618056D01*
X140906656Y-99624339D01*
X140849611Y-99610909D01*
X140807736Y-99577422D01*
X140802169Y-99568767D01*
X140783380Y-99507603D01*
X140792226Y-99444288D01*
X140827434Y-99390871D01*
X140871535Y-99350000D01*
X140795947Y-99350000D01*
X140754080Y-99351929D01*
X140700064Y-99366279D01*
X140665167Y-99398746D01*
X140645260Y-99454173D01*
X140636218Y-99537403D01*
X140629938Y-99661758D01*
X140796910Y-99653718D01*
X140854708Y-99651310D01*
X140917522Y-99650937D01*
X140963129Y-99655316D01*
X141001031Y-99665585D01*
X141040729Y-99682879D01*
X141048322Y-99686694D01*
X141114427Y-99736059D01*
X141153945Y-99797232D01*
X141161347Y-99835619D01*
X141166806Y-99863927D01*
G37*
G36*
X144521990Y-99666450D02*
G01*
X144554572Y-99749608D01*
X144582118Y-99813934D01*
X144606408Y-99863390D01*
X144629222Y-99901941D01*
X144652342Y-99933549D01*
X144677548Y-99962179D01*
X144695915Y-99982457D01*
X144722773Y-100016100D01*
X144733334Y-100035664D01*
X144732145Y-100037138D01*
X144708554Y-100042185D01*
X144659341Y-100046269D01*
X144590577Y-100049003D01*
X144508334Y-100050000D01*
X144482857Y-100049972D01*
X144398092Y-100049148D01*
X144340608Y-100046778D01*
X144305555Y-100042323D01*
X144288080Y-100035243D01*
X144283334Y-100025000D01*
X144293050Y-100007747D01*
X144331086Y-100000000D01*
X144384003Y-99988466D01*
X144436247Y-99950332D01*
X144474731Y-99892172D01*
X144495118Y-99820861D01*
X144493068Y-99743274D01*
X144481823Y-99683333D01*
X144072437Y-99683333D01*
X144025160Y-99820833D01*
X144016549Y-99845871D01*
X143995439Y-99907168D01*
X143979240Y-99954097D01*
X143970910Y-99978079D01*
X143970385Y-99980312D01*
X143984095Y-99994769D01*
X144026513Y-100003079D01*
X144036788Y-100004212D01*
X144076400Y-100014369D01*
X144095934Y-100029167D01*
X144096140Y-100030040D01*
X144089690Y-100036913D01*
X144066020Y-100042120D01*
X144021909Y-100045846D01*
X143954137Y-100048278D01*
X143859482Y-100049600D01*
X143734723Y-100050000D01*
X143726026Y-100049999D01*
X143607015Y-100049725D01*
X143517137Y-100048767D01*
X143452447Y-100046847D01*
X143409001Y-100043684D01*
X143382852Y-100039000D01*
X143370056Y-100032516D01*
X143366667Y-100023952D01*
X143372516Y-100008188D01*
X143401751Y-100003119D01*
X143410524Y-100002849D01*
X143421252Y-99996497D01*
X143433395Y-99980590D01*
X143448277Y-99951981D01*
X143467222Y-99907527D01*
X143491555Y-99844080D01*
X143522601Y-99758495D01*
X143560848Y-99650000D01*
X144084408Y-99650000D01*
X144464127Y-99650000D01*
X144371950Y-99374002D01*
X144345860Y-99296675D01*
X144318724Y-99218128D01*
X144296677Y-99156394D01*
X144281493Y-99116424D01*
X144274945Y-99103169D01*
X144270304Y-99114332D01*
X144256295Y-99152582D01*
X144234885Y-99212958D01*
X144207923Y-99290229D01*
X144177262Y-99379167D01*
X144084408Y-99650000D01*
X143560848Y-99650000D01*
X143561684Y-99647628D01*
X143610130Y-99508333D01*
X143629663Y-99452009D01*
X143672539Y-99328597D01*
X143712362Y-99214271D01*
X143747563Y-99113515D01*
X143776574Y-99030812D01*
X143797829Y-98970646D01*
X143809758Y-98937500D01*
X143836091Y-98866667D01*
X144230939Y-98866667D01*
X144263652Y-98954167D01*
X144268104Y-98966167D01*
X144286987Y-99017818D01*
X144314114Y-99092649D01*
X144347317Y-99184663D01*
X144384430Y-99287859D01*
X144423288Y-99396238D01*
X144434593Y-99427785D01*
X144482590Y-99560497D01*
X144515873Y-99650000D01*
X144521990Y-99666450D01*
G37*
G36*
X147327100Y-100395954D02*
G01*
X147309920Y-100505345D01*
X147307163Y-100514668D01*
X147277141Y-100595110D01*
X147242108Y-100647079D01*
X147197833Y-100675009D01*
X147140085Y-100683333D01*
X147120323Y-100682919D01*
X147077866Y-100675908D01*
X147039721Y-100655582D01*
X146992849Y-100615977D01*
X146956362Y-100578955D01*
X146902693Y-100516184D01*
X146856288Y-100453477D01*
X146856281Y-100453466D01*
X146823085Y-100403947D01*
X146797082Y-100365575D01*
X146783900Y-100346659D01*
X146782624Y-100346339D01*
X146778738Y-100364361D01*
X146776022Y-100406628D01*
X146775000Y-100466104D01*
X146774969Y-100481666D01*
X146773249Y-100544846D01*
X146767256Y-100586217D01*
X146754711Y-100615401D01*
X146733334Y-100642025D01*
X146711976Y-100663049D01*
X146686125Y-100677694D01*
X146650748Y-100681717D01*
X146594097Y-100678169D01*
X146577719Y-100676325D01*
X146475994Y-100646246D01*
X146383376Y-100586617D01*
X146301227Y-100499968D01*
X146230906Y-100388831D01*
X146173775Y-100255735D01*
X146131192Y-100103211D01*
X146104520Y-99933789D01*
X146095117Y-99750000D01*
X146100375Y-99608001D01*
X146126445Y-99430400D01*
X146174908Y-99275262D01*
X146246391Y-99140743D01*
X146341519Y-99025000D01*
X146404485Y-98966857D01*
X146479070Y-98914404D01*
X146558264Y-98880415D01*
X146651382Y-98861126D01*
X146767738Y-98852774D01*
X146833350Y-98851194D01*
X146898834Y-98852139D01*
X146949083Y-98857763D01*
X146994371Y-98869385D01*
X147044974Y-98888322D01*
X147047999Y-98889559D01*
X147189587Y-98965328D01*
X147317266Y-99068621D01*
X147429737Y-99196159D01*
X147525697Y-99344665D01*
X147603844Y-99510858D01*
X147662878Y-99691463D01*
X147701497Y-99883199D01*
X147718398Y-100082790D01*
X147712281Y-100286957D01*
X147681845Y-100492421D01*
X147648568Y-100624603D01*
X147584291Y-100799903D01*
X147502725Y-100952402D01*
X147405316Y-101080305D01*
X147293512Y-101181815D01*
X147168758Y-101255136D01*
X147032502Y-101298474D01*
X147020434Y-101300754D01*
X146858970Y-101314325D01*
X146704495Y-101295837D01*
X146558849Y-101246123D01*
X146423869Y-101166019D01*
X146301394Y-101056355D01*
X146193264Y-100917968D01*
X146180466Y-100897942D01*
X146128774Y-100805992D01*
X146081800Y-100706314D01*
X146044605Y-100610397D01*
X146022250Y-100529732D01*
X146018170Y-100513303D01*
X146001583Y-100462553D01*
X145976837Y-100396437D01*
X145947593Y-100325000D01*
X145930809Y-100285085D01*
X145906411Y-100224121D01*
X145889628Y-100178239D01*
X145883373Y-100155150D01*
X145882147Y-100147459D01*
X145864236Y-100123498D01*
X145861171Y-100121833D01*
X145852182Y-100127188D01*
X145857279Y-100160014D01*
X145865878Y-100196322D01*
X145886143Y-100296611D01*
X145905651Y-100411185D01*
X145923096Y-100530682D01*
X145937173Y-100645738D01*
X145946576Y-100746992D01*
X145950000Y-100825080D01*
X145948958Y-100891919D01*
X145943074Y-100964712D01*
X145930125Y-101027626D01*
X145908007Y-101094139D01*
X145907369Y-101095831D01*
X145883905Y-101154386D01*
X145862470Y-101201766D01*
X145847633Y-101227853D01*
X145818994Y-101246865D01*
X145773956Y-101244628D01*
X145720607Y-101217386D01*
X145662179Y-101167957D01*
X145601904Y-101099160D01*
X145543011Y-101013813D01*
X145488732Y-100914735D01*
X145488601Y-100914465D01*
X145446969Y-100823198D01*
X145403758Y-100719053D01*
X145360554Y-100606883D01*
X145318943Y-100491545D01*
X145280510Y-100377895D01*
X145246842Y-100270788D01*
X145219526Y-100175080D01*
X145200146Y-100095626D01*
X145190289Y-100037282D01*
X145191542Y-100004903D01*
X145193058Y-100001131D01*
X145197098Y-99991881D01*
X145201296Y-99988964D01*
X145207050Y-99996022D01*
X145215758Y-100016695D01*
X145228819Y-100054622D01*
X145247630Y-100113444D01*
X145273590Y-100196801D01*
X145308097Y-100308333D01*
X145368678Y-100492137D01*
X145436817Y-100673160D01*
X145506151Y-100832243D01*
X145575356Y-100966600D01*
X145643109Y-101073448D01*
X145708087Y-101150000D01*
X145737835Y-101177837D01*
X145761863Y-101195151D01*
X145777345Y-101193659D01*
X145792833Y-101175981D01*
X145800703Y-101164476D01*
X145808894Y-101148064D01*
X145814368Y-101127490D01*
X145816775Y-101099895D01*
X145815766Y-101062420D01*
X145810990Y-101012207D01*
X145802099Y-100946396D01*
X145788742Y-100862130D01*
X145770570Y-100756549D01*
X145747234Y-100626795D01*
X145718384Y-100470009D01*
X145683670Y-100283333D01*
X145672286Y-100222361D01*
X145654550Y-100127736D01*
X145638739Y-100043813D01*
X145626240Y-99977949D01*
X145618441Y-99937500D01*
X145614950Y-99917766D01*
X145611307Y-99881178D01*
X145614517Y-99866667D01*
X145617741Y-99867748D01*
X145642848Y-99882086D01*
X145685794Y-99909602D01*
X145739536Y-99945833D01*
X145740674Y-99946616D01*
X145778760Y-99973532D01*
X145810397Y-99998963D01*
X145837966Y-100026952D01*
X145863849Y-100061542D01*
X145890430Y-100106776D01*
X145920090Y-100166696D01*
X145955211Y-100245345D01*
X145998177Y-100346765D01*
X146051368Y-100475000D01*
X146057887Y-100490752D01*
X146104406Y-100601357D01*
X146142722Y-100687887D01*
X146176059Y-100756648D01*
X146207636Y-100813944D01*
X146240677Y-100866084D01*
X146278402Y-100919371D01*
X146318014Y-100969516D01*
X146428317Y-101077821D01*
X146549321Y-101158205D01*
X146677487Y-101210618D01*
X146809280Y-101235012D01*
X146941165Y-101231337D01*
X147069605Y-101199544D01*
X147191063Y-101139583D01*
X147302005Y-101051406D01*
X147398893Y-100934964D01*
X147461539Y-100830435D01*
X147537354Y-100653794D01*
X147588053Y-100461186D01*
X147612906Y-100256998D01*
X147611183Y-100045623D01*
X147582156Y-99831450D01*
X147528351Y-99616678D01*
X147457884Y-99428298D01*
X147371309Y-99268912D01*
X147268672Y-99138594D01*
X147150023Y-99037416D01*
X147015409Y-98965453D01*
X146998849Y-98959183D01*
X146887322Y-98932449D01*
X146766677Y-98925504D01*
X146648987Y-98938218D01*
X146546328Y-98970461D01*
X146488649Y-99001165D01*
X146381712Y-99084889D01*
X146293765Y-99192902D01*
X146225802Y-99322451D01*
X146178818Y-99470787D01*
X146153809Y-99635156D01*
X146151769Y-99812806D01*
X146173693Y-100000987D01*
X146183470Y-100051373D01*
X146215824Y-100171239D01*
X146262068Y-100283034D01*
X146327925Y-100401623D01*
X146331599Y-100407579D01*
X146397328Y-100495136D01*
X146466698Y-100551401D01*
X146542026Y-100578287D01*
X146573535Y-100581625D01*
X146600070Y-100573414D01*
X146618324Y-100544686D01*
X146623603Y-100529783D01*
X146627547Y-100498777D01*
X146625524Y-100453716D01*
X146617128Y-100388434D01*
X146601950Y-100296769D01*
X146594459Y-100255022D01*
X146574686Y-100150227D01*
X146550200Y-100025493D01*
X146522713Y-99889253D01*
X146493937Y-99749940D01*
X146483247Y-99699436D01*
X146652737Y-99699436D01*
X146655428Y-99749006D01*
X146665134Y-99819868D01*
X146665718Y-99823650D01*
X146697836Y-99980982D01*
X146742737Y-100128462D01*
X146797982Y-100260256D01*
X146861135Y-100370526D01*
X146929757Y-100453437D01*
X146975614Y-100492455D01*
X147030720Y-100521524D01*
X147076490Y-100520564D01*
X147115010Y-100489987D01*
X147128714Y-100470680D01*
X147153405Y-100416069D01*
X147163573Y-100349768D01*
X147159128Y-100267241D01*
X147139982Y-100163955D01*
X147106044Y-100035376D01*
X147105865Y-100034762D01*
X147066198Y-99915474D01*
X147019534Y-99803657D01*
X146968720Y-99704325D01*
X146916603Y-99622492D01*
X146866029Y-99563170D01*
X146819847Y-99531374D01*
X146797530Y-99524196D01*
X146745386Y-99522876D01*
X146705320Y-99550648D01*
X146673685Y-99609459D01*
X146670247Y-99618608D01*
X146657522Y-99659767D01*
X146652737Y-99699436D01*
X146483247Y-99699436D01*
X146465584Y-99615989D01*
X146439367Y-99495833D01*
X146438253Y-99490778D01*
X146435055Y-99463266D01*
X146448045Y-99455319D01*
X146485417Y-99460681D01*
X146500840Y-99463787D01*
X146559326Y-99481734D01*
X146590681Y-99506366D01*
X146600000Y-99541269D01*
X146601389Y-99560740D01*
X146612399Y-99587489D01*
X146628621Y-99587774D01*
X146643052Y-99558751D01*
X146645308Y-99551108D01*
X146677144Y-99501145D01*
X146728211Y-99464338D01*
X146786245Y-99450000D01*
X146825547Y-99453971D01*
X146906276Y-99485721D01*
X146986500Y-99547305D01*
X147064371Y-99636425D01*
X147138044Y-99750786D01*
X147205674Y-99888093D01*
X147265414Y-100046048D01*
X147288202Y-100120801D01*
X147319915Y-100268326D01*
X147324500Y-100349768D01*
X147327100Y-100395954D01*
G37*
X153907836Y-115360000D02*
X153692164Y-115360000D01*
X153907836Y-114640000D02*
X153692164Y-114640000D01*
M02*
