M48
; DRILL file {KiCad 7.0.8-7.0.8~ubuntu22.04.1} date Fri 27 Oct 2023 08:54:47 PM EDT
; FORMAT={-:-/ absolute / inch / decimal}
; #@! TF.CreationDate,2023-10-27T20:54:47-04:00
; #@! TF.GenerationSoftware,Kicad,Pcbnew,7.0.8-7.0.8~ubuntu22.04.1
; #@! TF.FileFunction,Plated,1,2,PTH
FMAT,2
INCH
; #@! TA.AperFunction,Plated,PTH,ViaDrill
T1C0.0098
; #@! TA.AperFunction,Plated,PTH,ViaDrill
T2C0.0118
; #@! TA.AperFunction,Plated,PTH,ComponentDrill
T3C0.0157
; #@! TA.AperFunction,Plated,PTH,ComponentDrill
T4C0.0236
; #@! TA.AperFunction,Plated,PTH,ComponentDrill
T5C0.0394
%
G90
G05
T1
X5.4803Y-4.0394
X5.6417Y-3.7234
X5.6693Y-3.874
X5.6772Y-4.4134
X5.6929Y-4.0079
X5.6929Y-4.5512
X5.7638Y-4.126
X5.7756Y-3.6496
X5.7953Y-4.2953
X5.7953Y-4.9409
X5.8307Y-3.7598
X5.8976Y-4.8189
X5.9331Y-4.7047
X5.9409Y-3.8386
X5.9409Y-4.0827
X5.9764Y-4.8819
X5.9921Y-4.5118
X6.0Y-4.0118
X6.0Y-4.9409
X6.0079Y-4.2992
X6.0197Y-4.1614
X6.0276Y-4.4685
X6.0512Y-4.122
X6.0551Y-4.2566
X6.0709Y-4.5669
X6.0709Y-4.6299
X6.0978Y-5.103
X6.126Y-4.5512
X6.1299Y-4.937
X6.1339Y-4.122
X6.1614Y-4.311
X6.1811Y-4.5512
X6.1846Y-4.9481
X6.189Y-4.1575
X6.189Y-5.0433
X6.2047Y-4.4016
X6.248Y-5.0157
X6.252Y-3.8583
X6.2717Y-5.1024
X6.2835Y-5.0572
X6.3071Y-4.7244
X6.3071Y-4.8171
X6.3307Y-4.6614
X6.3465Y-4.9331
X6.3465Y-5.0472
X6.3504Y-4.874
X6.3622Y-4.7638
X6.374Y-4.0
X6.4213Y-4.2205
X6.4291Y-4.8307
X6.437Y-5.0709
X6.4803Y-4.1575
X6.4961Y-4.76
X6.5669Y-3.9252
X6.5669Y-4.8976
X6.5748Y-4.4606
X6.5866Y-4.5551
X6.5984Y-4.8307
X6.6024Y-4.1693
X6.6299Y-4.2677
X6.6339Y-3.6732
X6.6339Y-3.874
X6.6417Y-4.0512
X6.6522Y-4.0923
X6.6693Y-4.8819
X6.7008Y-4.7579
X6.7087Y-4.2441
X6.7205Y-4.5748
X6.7303Y-4.6929
X6.7638Y-4.7165
X6.7717Y-3.7717
X6.7795Y-4.1614
X6.7913Y-4.9291
X6.7953Y-4.7205
X6.7992Y-3.626
X6.8071Y-4.0394
X6.8465Y-4.1102
X6.874Y-4.3071
X6.874Y-4.5512
X6.878Y-4.8661
X6.9094Y-3.8071
X6.9449Y-3.9646
X6.9606Y-4.7008
X6.9724Y-4.1102
X7.0827Y-3.7677
X7.126Y-4.0394
T2
X5.6102Y-4.8346
X5.6535Y-4.2756
X5.7598Y-4.4213
X5.7795Y-4.252
X5.8108Y-4.8033
X5.811Y-4.9055
X6.0128Y-4.8494
X6.0354Y-3.9724
X6.0512Y-4.9409
X6.1024Y-4.8898
X6.126Y-4.5827
X6.1969Y-4.8189
X6.2598Y-4.3898
X6.2992Y-4.1654
X6.315Y-4.4094
X6.3228Y-4.5276
X6.3403Y-5.1027
X6.3543Y-4.4882
X6.3543Y-4.6235
X6.3858Y-4.3086
X6.4252Y-4.6535
X6.4257Y-4.7913
X6.4429Y-4.3484
X6.4567Y-4.7008
X6.5197Y-4.8976
X6.5354Y-4.0945
X6.5433Y-4.2598
X6.567Y-4.1115
X6.5679Y-4.9498
X6.5827Y-3.9843
X6.6024Y-4.6929
X6.644Y-4.1378
X6.6496Y-3.9528
X6.6899Y-3.9527
X6.6929Y-4.7165
X6.7796Y-4.783
X6.8268Y-3.9055
X6.8583Y-3.9291
X6.8583Y-3.9843
X7.126Y-3.9291
X7.1535Y-3.9055
T3
X5.5748Y-4.7008
X5.5925Y-4.6701
X5.6102Y-4.7008
X5.628Y-4.6701
X5.6457Y-4.7008
X5.6634Y-4.6701
X5.6811Y-4.7008
X5.6988Y-4.6701
X5.7165Y-4.7008
X5.7343Y-4.6701
X5.752Y-4.7008
X5.7697Y-4.6701
X5.7874Y-4.7008
X5.8051Y-4.6701
T5
X7.0024Y-4.8268
X7.1024Y-4.8268
T4
G00X5.6142Y-4.6291
M15
G01X5.5748Y-4.6291
M16
G05
G00X5.6142Y-4.7417
M15
G01X5.5748Y-4.7417
M16
G05
G00X5.8031Y-4.6291
M15
G01X5.7638Y-4.6291
M16
G05
G00X5.8031Y-4.7417
M15
G01X5.7638Y-4.7417
M16
G05
T0
M30
