G04 #@! TF.GenerationSoftware,KiCad,Pcbnew,7.0.8-7.0.8~ubuntu22.04.1*
G04 #@! TF.CreationDate,2023-10-27T20:54:45-04:00*
G04 #@! TF.ProjectId,osw,6f73772e-6b69-4636-9164-5f7063625858,4.0*
G04 #@! TF.SameCoordinates,Original*
G04 #@! TF.FileFunction,Soldermask,Bot*
G04 #@! TF.FilePolarity,Negative*
%FSLAX46Y46*%
G04 Gerber Fmt 4.6, Leading zero omitted, Abs format (unit mm)*
G04 Created by KiCad (PCBNEW 7.0.8-7.0.8~ubuntu22.04.1) date 2023-10-27 20:54:45*
%MOMM*%
%LPD*%
G01*
G04 APERTURE LIST*
G04 Aperture macros list*
%AMRoundRect*
0 Rectangle with rounded corners*
0 $1 Rounding radius*
0 $2 $3 $4 $5 $6 $7 $8 $9 X,Y pos of 4 corners*
0 Add a 4 corners polygon primitive as box body*
4,1,4,$2,$3,$4,$5,$6,$7,$8,$9,$2,$3,0*
0 Add four circle primitives for the rounded corners*
1,1,$1+$1,$2,$3*
1,1,$1+$1,$4,$5*
1,1,$1+$1,$6,$7*
1,1,$1+$1,$8,$9*
0 Add four rect primitives between the rounded corners*
20,1,$1+$1,$2,$3,$4,$5,0*
20,1,$1+$1,$4,$5,$6,$7,0*
20,1,$1+$1,$6,$7,$8,$9,0*
20,1,$1+$1,$8,$9,$2,$3,0*%
G04 Aperture macros list end*
%ADD10C,0.363500*%
%ADD11R,1.700000X1.700000*%
%ADD12O,1.700000X1.700000*%
%ADD13O,2.052400X1.052400*%
%ADD14RoundRect,0.135000X-0.185000X0.135000X-0.185000X-0.135000X0.185000X-0.135000X0.185000X0.135000X0*%
%ADD15R,2.500000X0.350000*%
%ADD16R,1.000000X0.600000*%
%ADD17RoundRect,0.007500X-0.117500X0.412500X-0.117500X-0.412500X0.117500X-0.412500X0.117500X0.412500X0*%
%ADD18R,2.500000X1.600000*%
%ADD19RoundRect,0.140000X-0.140000X-0.170000X0.140000X-0.170000X0.140000X0.170000X-0.140000X0.170000X0*%
%ADD20RoundRect,0.140000X0.140000X0.170000X-0.140000X0.170000X-0.140000X-0.170000X0.140000X-0.170000X0*%
G04 APERTURE END LIST*
D10*
X147631750Y-118620000D02*
G75*
G03*
X147631750Y-118620000I-181750J0D01*
G01*
X146731750Y-118620000D02*
G75*
G03*
X146731750Y-118620000I-181750J0D01*
G01*
X145831750Y-118620000D02*
G75*
G03*
X145831750Y-118620000I-181750J0D01*
G01*
X144931750Y-118620000D02*
G75*
G03*
X144931750Y-118620000I-181750J0D01*
G01*
X144031750Y-118620000D02*
G75*
G03*
X144031750Y-118620000I-181750J0D01*
G01*
X143131750Y-118620000D02*
G75*
G03*
X143131750Y-118620000I-181750J0D01*
G01*
X142231750Y-118620000D02*
G75*
G03*
X142231750Y-118620000I-181750J0D01*
G01*
X147181750Y-119400000D02*
G75*
G03*
X147181750Y-119400000I-181750J0D01*
G01*
X146281750Y-119400000D02*
G75*
G03*
X146281750Y-119400000I-181750J0D01*
G01*
X145381750Y-119400000D02*
G75*
G03*
X145381750Y-119400000I-181750J0D01*
G01*
X144481750Y-119400000D02*
G75*
G03*
X144481750Y-119400000I-181750J0D01*
G01*
X143581750Y-119400000D02*
G75*
G03*
X143581750Y-119400000I-181750J0D01*
G01*
X142681750Y-119400000D02*
G75*
G03*
X142681750Y-119400000I-181750J0D01*
G01*
X141781750Y-119400000D02*
G75*
G03*
X141781750Y-119400000I-181750J0D01*
G01*
D11*
X177860000Y-122600000D03*
D12*
X180400000Y-122600000D03*
D13*
X142100000Y-117580000D03*
X142100000Y-120440000D03*
X146900000Y-117580000D03*
X146900000Y-120440000D03*
D14*
X156800000Y-112290000D03*
X156800000Y-113310000D03*
D15*
X150725000Y-113350000D03*
X150725000Y-112650000D03*
X150725000Y-111950000D03*
X150725000Y-111250000D03*
X150725000Y-110550000D03*
X150725000Y-109850000D03*
X150725000Y-109150000D03*
X150725000Y-108450000D03*
X150725000Y-107750000D03*
X150725000Y-107050000D03*
X150725000Y-106350000D03*
X150725000Y-105650000D03*
D14*
X153800000Y-109490000D03*
X153800000Y-110510000D03*
D16*
X155587500Y-111650000D03*
X155587500Y-113550000D03*
X153587500Y-112600000D03*
D17*
X156150000Y-126600000D03*
X156600000Y-126600000D03*
X157050000Y-126600000D03*
X157500000Y-126600000D03*
X157950000Y-126600000D03*
X158400000Y-126600000D03*
X158400000Y-129470000D03*
X157950000Y-129470000D03*
X157500000Y-129470000D03*
X157050000Y-129470000D03*
X156600000Y-129470000D03*
X156150000Y-129470000D03*
D18*
X157275000Y-128035000D03*
D19*
X157120000Y-124800000D03*
X158080000Y-124800000D03*
D20*
X154280000Y-115000000D03*
X153320000Y-115000000D03*
M02*
